<?xml version="1.0" encoding="UTF-8"?>
<svg id="Layer_1" data-name="Layer 1" xmlns="http://www.w3.org/2000/svg" viewBox="0 0 724.43 479.48">
  <defs>
    <style>
      .cls-1 {
        fill: #fff;
      }

      .cls-2 {
        fill: #152917;
      }

      .cls-3 {
        fill: rgba(176, 174, 176, .01);
      }
    </style>
  </defs>
  <path class="cls-2" d="M196.21,50.57c18.46-.44,36.16,1.24,54.68,1.43,50.37.03,100.73.64,151.08,1.85,42.61.33,85.21,1.05,127.81,2.18,8.94.25,17.91.47,26.84.73,13.11.38,28.79-.33,40.94,5.15.06,4.36,1.82,7.1,2.85,11.14,2.53,9.9,6.34,19.18,9.88,28.74,1.25,3.37,1.67,7.18,2.79,10.63l16.78,50.13,7.24,22.39c1.8,5.57,3.9,11.26,4.79,17.02.99,2.68,2.07,3.84,3.9,6.02l-1.43,3.1c4.96,2.43,7.53,3.18,12.55,4.97,2.57.92,10.26,6.3,12.58,8.28-2.42-.42-5.99-1.26-8.25-.81l.17.35c4.26.68,20.64,8.61,23.8,11.41-2.35-.28-4.84-.62-7.19-.79,2.18,1.1,13.95,6.32,13.81,8.22-.79,10.96-1.58,23.23.78,34.09,1.65,7.56.12,11.7-1.67,18.98-.36,1.45.62,3.79.12,5.66-.82.32-.5.25-1.39.21-1.03,1.47-1.75,14.54-1.96,17.36,9.02-1.42,9.64-2.04,19.15-1,.81,6.59.21,29.34-6.85,32.36l-.82.88c1.32,1.29,1.42,1.47,1.75,3.29-1.42,5.72-13.51-.06-16.64-2.53,1.93-3.95,1.89-10.97,2.65-15.78h-.33c-10.13.31-20.59-3.57-29.92,1.53-2.23,1.22-5.48,2.55-5.17,5.32.28,2.56,1.69,5.12,2.2,7.64.37,12.51-3.19,26.97-11.04,36.85-4.81,6.05-10.7,9.89-16.51,14.25,10.78-.04,20.75.17,31.54.76,6.46.35,16.56-1.86,22.9.61l.11.45c-4.31,2.27-20.01,1.15-25.67,1.53-3.83.26-8.4,1.91-11.64,2.07-8.63.42-18.01.07-26.66-.28-6.91,7.5-7.5.87-11.44.84-4.83-.03-9.88,1.94-15.6.89l.19-1.16.06-.4c-3.24-3.21-45.19,1.46-53.37-2.96-.5-1-.51-.52-.21-1.47,3.65-1.71,15.88-1.01,20.62-.96-12.11-8.79-18.94-15.04-17.01-30.83,1.14-1.36,2.32-2.33,3.64-3.5-7.68-.88-19.29-1.11-27.36-1.58-17.57-1.01-35.6-1.49-53.2-1.86-13.96-.3-34.76,2.7-47.99-.62,2.97-.17,10.92-.19,13.3-.85l-.37-.22c-3.16-.1-28.84-.98-30.1.08.44.64.59.92.94,1.61-1.51,1.21-10.68,1.38-13.29,1.61-3.85.33-8.92,1.96-12.6,1.87-5.46-.12-11.14-.8-16.66-1.05l-36.92-1.27c-7.57-.27-15.19-.23-22.74-.62-14.75-.77-29.5-.11-44.23-.53-.09,1.39-.28,2.85-.61,4.2-3.3,13.33-8.26,25.28-20.13,32.85,4.3.3,29.99.36,31.04,2.73-3.12,3-6.7.76-9.61,2.45-1.05.84-2.03.44-3.27.21l2-.31c-1.69-.55-8.1-.53-9.86.02l-.18.43.03.04.11,1.18c-1.99-.12-4.5.13-6.52.25-14.81.91-29.56.62-44.38.45-28.38-.52-56.75-1.48-85.09-2.87-16.35-.71-32.71-1.18-49.05-2.07-5.54-.3-10.98-1.07-16.5-1.63l.5-1.24c15.55-.59,32.89.17,48.53.27,16.64.11,32.49.32,49.12-.31,10.31-.39,16.55,1.72,27.89-.15-5.66-3.95-8.7-6-13.59-11.14-6.95-7.31-13.35-23.52-12.74-33.44l-.63-.21c-10.17,3.21-28.39,1.93-39.31,1.79-10.89-.15-21.79.04-32.68-.18-8.84-.18-17.69-.85-26.54-.72-5.43.08-9.92,2.26-15.37,2.36-3.3.06-18-1.16-19.84.32-.18.14-.34.3-.51.44-5.61-2.72-6.13-20.1-4.23-25.69,3.79-2.2,5.59-2.22,9.91-2.93-1.54-16.21-1.16-36.5-1.8-53.09-1.9-58.51-2.78-117.04-2.62-175.58-.05-15.53.67-30.73.44-46.14.84-1.5,1.8-3.32,3.17-4.29.54.12,2.85.9,3.14.88,14.23-1.33,28.75-1.34,43.07-1.56,22.17-.31,44.35-.4,66.53-.29,17.87.24,32.08,1.26,50.09.33,3.14-.63,19.56-.81,23.31-.8Z"/>
  <path class="cls-1" d="M12.47,55.96c19.35-1.36,40.77,2.45,60.1,2.29,19.3-.16,38.84-1.09,58.18-1.39l111.68-1.19c7.84-.11,15.7-1.21,23.37-1.18,50.15.19,100.3,2.96,150.42,4.09l109.32,1.82c16.93.32,33.94.4,50.86,1.27,3.06.16,3.98-.17,6.49,1.7l.78-.06c-.33-.48-.55-.75-.75-1.3,3.26-.07,6.23,1.25,11.05,1.18.96,3.47,2.25,8.65,3.6,11.85l.28.63c-5.38.38-11.87-.51-17.33-.68-6.78-.21-13.52-.38-20.29-.66-25.11-1-50.23-1.68-75.36-2.03-2.17,0-2.85-.01-5,.46,3.25,1.09,15.07,1,19.31,1.24,19.15,1.07,38.44.66,57.59,1.83l1.82.64c3.39.66,8.48.45,12.1.58,3.55.13,6.48.41,10,.68-.75,1.32-.71,1.46-.84,3.02-.96,3.28.43,8.79.78,12.4.35,3.65.17,8.22.84,11.67l-.64,1.3c.88.5,1.07.56,1.87,1.17,0,13.43.9,26.63,1.08,39.97.25,18.24,1.89,35.77,2.98,53.9.71,13.38,1.19,26.76,1.46,40.15.33,13.94,1.74,28.46-.04,42.15-.6,4.66-3.38,8.73-4.88,13.08-1,2.11-4.77,9.35-4.68,11.22l.69,1.02c-1.8,4.13-6.53,13.72-7.53,17.28l-.38.64.39.74.05.27.69.34c-4.51,7.94-7.91,16.18-11.54,24.59-1.66,3.85-3.22,10.54-8.04,11.7-.77.19-1.49.24-2.18-.19l.36-.75c-13.29.12-28.92-1.45-42.52-2.04l-99.84-4.11c-24.16-.62-48.34-.82-72.5-.62-28.98,0-57.97.17-86.87-2.27-1.84-.16-3.54-.53-5.28-1.15-2.07-11.87-3.18-18.8-10.21-29.29-7.53-11.43-19.35-19.35-32.79-21.97-12.32-2.41-32.46-.24-43.36,6.75-9.96,7.06-16.78,20.09-20.48,31.42-.89,2.72-.8,8.17-1.48,11.37-3.4-.31-7.15-.86-10.57-1.29l-.26-1.4c-2.57-.1-9.25.35-10.71.19l-.18-.37c-1.48-.14-2.83-.2-4.31-.26l-74.14-.03c-.05-6.17.19-7.91-6.57-8.41-4.32-.32-8.52-.45-12.86-.47.02-11.37-.96-23.21-1.36-34.62l-1.63-59.73-.17-.39c.45-2.76-.26-13.48-.4-17.01-.25-8.18-.44-16.36-.56-24.54-.39-29.09-.47-58.18-.24-87.27.04-8.17.02-16.34-.04-24.5-.06-5-.38-11.66-.01-16.52,1-1.3.71.34,2.57-.23.04-1.25-1.27-3.09-1.96-4.27l-.35-1.72c-.25-2.2.42-9.87.47-12.72Z"/>
  <path class="cls-2" d="M492.95,102.46c2.78-7.92.43-15.43.83-23.46.04-.74.09-.59.73-1.01.18.31,1.06,1.75,1.41,1.78,4.15.35,8.38.17,12.56.26l35.78,1c7.27.22,17.23.2,24.05,1.47l.68-.1c-5.72-.2-13.31,0-19.29-.09l-54.26-.93c-.22,7.16-.57,14.2,1.87,20.97,18.56-.17,37.18-.64,55.73-.18,6.23.15,20.48.15,26.34,1.7.83.34,1.3.5,2.08.96l-.64,1.3c.88.5,1.07.56,1.87,1.17,0,13.43.9,26.63,1.08,39.97.25,18.24,1.89,35.77,2.98,53.9.71,13.38,1.19,26.76,1.46,40.15.33,13.94,1.74,28.46-.04,42.15-.6,4.66-3.38,8.73-4.88,13.08-1,2.11-4.77,9.35-4.68,11.22l.69,1.02c-1.8,4.13-6.53,13.72-7.53,17.28l-.38.64.39.74.05.27c-7.4,10.02-8.55,15.66-14.15,26.17-19.22,5.32-38.85.39-58.9-.15-.58,1.52-1.3,3.29-2.94,3.91-2.93-1.55-2.06-7.08-1.82-9.91.22-1.22.27-2.39.36-3.62-.2-3.98-.14-8.25-.13-12.25.05-30.44.63-60.79-1.04-91.22v-.63c.09-8.88-.28-17.43-.32-26.23l-.04-53.54c-.06-14.2.06-28.76-.58-42.98-.1-2.27-1.78-3.4-2.01-5.39-.55-4.69-2.19-29.6-.35-32.66l.47.05c1.73,3.57,1.32,17.28,2.5,22.7l.11.49Z"/>
  <path class="cls-1" d="M579.38,103.87c.83.34,1.3.5,2.08.96l-.64,1.3c-4.64-.86-14.85.04-21.01-.77,5.67-1.86,13.82,1.14,19.58-1.49Z"/>
  <path class="cls-1" d="M497.27,106.18c16.81-.84,36.94,1.1,53.94,1.56,8.38.23,22.21-.07,29.83,1.03.56,9.18.74,22.29.99,31.72.43,3.13.91,15.5.36,18.37l-.89-.24c.48,4.82,2.35,25.81,1.64,29.49-.85.68-1.09.8-2.05,1.33-1.82,4.27-3.9,11.86-5.26,16.45-1.22-2.16-1.57-2.74-3.16-4.67,2.87-5.7,1.15-6.24-.29-9.91-.58-1.48,2.36-10.8,2.89-13.46,1.48-.59,2.39-.73,3.28-1.95-.34-1.6-1.53-1.43-1.48-2.21.19-3.06,1.99-2.04-.03-4.86-1.98-.68-2.88,1.78-3.9,3.37-1.95.66-3.62.83-5.64,1.13l3.63,2.74c-6.12,2.38-11.97,4.28-16.81,8.84,2.72-.54,5.29-1.31,7.78-1.81.73-.04.49-.17.82.07l.08,1.15c1.13.9,2.46.41,3.37.81l-.57.29-.31-.46-.32.69c-1,.34-2.68.97-3.66,1.05,0,3.47.08,7.17-.13,10.6.07.75.1,1.36.12,2.12-.65.58-.38.45-1.16.75-5.17.72-11.45.12-16.03,1.58,5.93.77,10.4.9,16.29.87,2.99,3.73,3.36,4.39,3.32,9.28,2.33,3.09,3.21,3.82,6.93,5.32-.15,3.26-.41,5.87-.96,9.1l2.37,3.02-3.01,2.91c1.08,3.93-1.36,12-4.63,14.17-.2,1.99.66,5.12-1.59,5.84-.42.31-1.05.69-1.32,1.06-3.06,2.66-11.12,10.31-14.35,11.33-2.03-.49-3.07-1.73-2.87-3.9,2-2.12,3.01.66,5.94-1.3l.03-.86c1.16-.91,2.33-2.05,3.42-3.06.7.64.47.61,1.28.87,2.44-1.58,4.19-2.74,6.44-4.55.63-4.7,2.31-12.88-4.69-12.89-11.04,0-20.94,3.53-31.07,7.45-.67-4.39-.97-9.47-1.37-13.95l-.63-.6c-.97-2.32-1.42-4.12-1.62-6.61l-.33-.83-1.81-1.18c-1.32-.96-.87-.35-1.4-1.88-.9-4.69-2.49-9.92-3.47-14.76-1.13-5.62-1.98-12.14-3.61-17.52l-2.76-2.15c-.51-16.05.84-32.23.04-48.28-.27-5.39,1.53-22.81-.94-26.34-2.1,2.17-1.36,21.44-1.63,25.52-.52,7.69-.98,15.96-1.36,23.65-.92,18.21-1.49,36.43-1.7,54.66-.09,12.31-.07,24.61.06,36.92.1,5.9,2.4,35.13-4.85,36.83-.94-1.05-.84-23.05-.89-26.53-.36-21.96-.36-43.92-.01-65.87.11-30.43,0-60.86-.32-91.29Z"/>
  <path class="cls-2" d="M520.31,200.73c-3.94-14.41-2.95-26.44-3.62-41.14-.44-9.81-1.27-19.7-1.67-29.52-.26-6.44.87-9.68,5.32-14.39-.86,2.96-3.1,7.8-3.43,10.41-.41,3.25.19,9.2.42,12.69.45,6.59.87,13.18,1.25,19.77.55,10.84,0,20.48,1.11,31.42,6.39,2.08,19.35,2.03,26.2.47.92-.21.61-.59,2.13-.44.03.98.04.65-.28,1.63l-.82.39c-.83-.63-1.03-.58-2.07-.66-1.29.6-.87.14-1.42,1.28-6.55-.06-12.99.23-19.61-.18-1.03-.06-2.59,0-3.37.78l.07.55c3.92,2.49,9.51,1.06,13.37,3.24-1.63,1.8-9.49-.22-12.39.13l-.21.65c2.08,3.35,7.87-.09,11.17,2.33-1.72.99-9.71.62-12.15.59Z"/>
  <path class="cls-2" d="M572.82,116.45c-6.93.07-16.3-.33-23.21-.56-5.52-.18-27.02.64-30.75-1.07,4.41-2.83,41.87-1.39,49.16-1.03,2.59.13,8.35,3.14,11.71,3.87-.18,9.54.7,18.74,1.59,28.22.84-1,.64-3.89.69-5.39.43,3.13.91,15.5.36,18.37l-.89-.24c-1.91-12.96-2.58-26.17-3.27-39.25-2.06-.84-3.51-1.78-5.4-2.92Z"/>
  <path class="cls-1" d="M582.02,140.49c.43,3.13.91,15.5.36,18.37-.47-1.86-.9-10.59-1.05-12.98.84-1,.64-3.89.69-5.39Z"/>
  <path class="cls-1" d="M560.26,187.29l1.24-.61c0,3.47.08,7.17-.13,10.6.07.75.1,1.36.12,2.12-.65.58-.38.45-1.16.75l-.15-1.85c-1.67-.97-11.22-.72-13.31-.38l-.42-.26c-1.1.66-1.21.66-2.4,1.03l-.4-.22c2.34-3.37,12.84-9.01,16.6-11.19Z"/>
  <path class="cls-2" d="M560.26,187.29l1.24-.61c0,3.47.08,7.17-.13,10.6.07.75.1,1.36.12,2.12-.65.58-.38.45-1.16.75l-.15-1.85c-1.67-.97-11.22-.72-13.31-.38l-.42-.26c3.15-2.22,9.51-1.18,13.56-.97-.04-3.22.1-6.19.24-9.4Z"/>
  <path class="cls-2" d="M562.1,183.08c.73-.04.49-.17.82.07l.08,1.15c1.13.9,2.46.41,3.37.81l-.57.29-.31-.46-.32.69c-1,.34-2.68.97-3.66,1.05l-1.24.61c-3.76,2.18-14.26,7.81-16.6,11.19l.4.22c1.18-.37,1.29-.37,2.4-1.03l.42.26c-1.32,1.85-4.15,4.49-6.46,4.89l-.5-.4c-.18-2.19,1.02-3.46,1.35-5.35.37-2.07,1.73-2.9,2.17-4.42.55-1.14.14-.68,1.42-1.28,1.04.08,1.23.03,2.07.66l.82-.39c3.81-1.79,10.85-6.18,14.35-8.55Z"/>
  <path class="cls-2" d="M518.69,221.34c.66-.19,3.59-1.54,4.31-1.88,4.35-2.08,6.04-2.49,10.77-3.07l.45,1.16c-4.61,1.4-10.03,3.08-14.13,5.68-1.32-.96-.87-.35-1.4-1.88Z"/>
  <path class="cls-2" d="M523.85,231.85c6.6-3.27,11.84-5.3,19.09-6.74-6.08,2.74-12.36,4.65-18.46,7.34l-.63-.6Z"/>
  <path class="cls-1" d="M521.9,224.41c2.85-.92,6.24-2.47,8.96-2.96-1.45,1.06-6.7,3.03-8.63,3.79l-.33-.83Z"/>
  <path class="cls-2" d="M533.77,216.39c3.14-.54,5.19-.81,8.35-1.03-2.72.83-5.14,1.52-7.9,2.19l-.45-1.16Z"/>
  <path class="cls-2" d="M550.45,258.58c1.16-.91,2.33-2.05,3.42-3.06.7.64.47.61,1.28.87l-4.73,3.05.03-.86Z"/>
  <path class="cls-2" d="M570.71,116.57c3.92,4.44,3.89,7.71,4.35,13.41.72,6.02.76,13.65.62,19.76,0,3.42.28,13.95-1.49,16.25l-.57-.17c-1.62-3.42-2.4-42.34-2.9-49.25Z"/>
  <path class="cls-1" d="M575.06,129.98c.72,6.02.76,13.65.62,19.76-1.41-1.4-1.63-2.54-1.89-4.45.06-4.09-.57-10.29-.19-14.1l.53-.15c.84-.49.5-.17.94-1.06Z"/>
  <path class="cls-1" d="M573.79,145.29c.06-4.09-.57-10.29-.19-14.1l.53-.15c.14,2.34.9,13.46-.01,14.61l-.32-.36Z"/>
  <path class="cls-1" d="M507.11,306.07l.02-1.27c.87-.46,9.21-.07,10.62,0,7.24.35,32.69-1.58,37.97,2.65l.38.84c-.07.64-.19,2.22-.42,2.72-.91,7.26-1.61,14.33-2.87,21.55l-.44.26c-2.1,1.61-6.02,1.85-8.55,1.52l-.82-.16-.95.76c-1.97,1.6-9.5,4.16-11.13,2.05-5.06,1.14-10.75,1.13-14.87,3.07.41.48,3.76-.37,5.49-.11-1.62.45-9.31,2.11-10.03,2.59.98.83,1.29,1,1.98,2.12l-.29.59c-3.07,1.18-5.93.56-9.22.23.11-6.62,2.14-13.22,2.7-19.55.49-5.5.03-10.41.65-16.35-.23-1.1-.18-2.37-.21-3.52Z"/>
  <path class="cls-1" d="M507.11,306.07l.02-1.27c.87-.46,9.21-.07,10.62,0,7.24.35,32.69-1.58,37.97,2.65l.38.84c-.07.64-.19,2.22-.42,2.72l-.25-.68c-1.27-.63-16.32-.97-18.77-.99-3.86-.59-26.77-.9-29.35.26-.23-1.1-.18-2.37-.21-3.52Z"/>
  <path class="cls-1" d="M507.11,306.07c.27,1.34.12,1.94.93,2.68,4.86-.04,22.98-1.58,27-.35l1.63.94c-3.86-.59-26.77-.9-29.35.26-.23-1.1-.18-2.37-.21-3.52Z"/>
  <path class="cls-2" d="M535.03,308.41c3.8.11,18.22.92,21.07-.11-.07.64-.19,2.22-.42,2.72l-.25-.68c-1.27-.63-16.32-.97-18.77-.99l-1.63-.94Z"/>
  <path class="cls-2" d="M523.12,334.95c1.01-.2,2.02-.38,3.04-.54,7.77-1.17,16.53-1.78,24.41-2.88.92-.13,1.55.53,2.25,1.05l-.44.26c-2.1,1.61-6.02,1.85-8.55,1.52l-.82-.16-.95.76c-1.97,1.6-9.5,4.16-11.13,2.05l.29-1.39c-2.89-.14-5.22-.25-8.08-.67Z"/>
  <path class="cls-1" d="M542.04,334.95c-1.97,1.6-9.5,4.16-11.13,2.05l.29-1.39c3.87.32,7.08.43,10.84-.66Z"/>
  <path class="cls-1" d="M543.82,334.35c2.81-1.51,5.4-2.72,8.55-1.52-2.1,1.61-6.02,1.85-8.55,1.52Z"/>
  <path class="cls-1" d="M560.57,282.37c.54-5.28,10.03-42.69,12.79-44.74,1.48-1.1,7.34-.25,7.74-1.88-2.39-.79-5.62-.44-7.03-1.24,3.23-2.84,6.39.69,8.99-4.39,1.39,1.31.81,34.78.66,39.24-1.09.53-2.6,1.09-3.21,2.05l.31.61c1.4.25,1.92.06,2.68.89.97,5.03,1.34,9.66,1.8,14.75-5.08,6.74-4.29,8.96-7.83,15.74-2.53.09-22.58-.34-23.79-.98-.22-2.79,2.05-1.71,3.01-3.97-1.75-3.46-1.12-4.26.11-7.92,1.9-.76,4.22-1.62,6.01-2.54-.2-.99-1-2.03-1.56-2.92l-.86.09-.18-.57c1.54-1.11,4.48-1.4,5.91-2.09,2.35-1.14,13.97-5.09,14.56-7.47-2.45-.75-15.25,4.67-17.64,5.93-.84.44-1.67.91-2.47,1.41Z"/>
  <path class="cls-2" d="M561.24,285.07c2.09-.6,7.57-2.45,9.26-1.66-1.18,1.81-5.67,3.63-7.7,4.58-.2-.99-1-2.03-1.56-2.92Z"/>
  <path class="cls-2" d="M574.76,239.42c.51,1.97-9.14,32.18-10.52,36.39-.77-4.28,7.85-32.42,10.52-36.39Z"/>
  <path class="cls-1" d="M559.94,308.76c-.03-1.6-.06-2.04.23-3.58,1.46-.77,13.24-.52,15.42-.24.48.89.11,2.29,0,3.49l-.25.79c-1.99,4.76-3.74,6.7-6.62,10.84-.37.53-.1,3.47-.52,4.22-1.55,2.79-3.7,5.8-5.18,8.58-2.29,4.27-4.11,9.01-6.39,13.21.49-6.93,1.34-31.48,3.23-36.27l.09-1.05Z"/>
  <path class="cls-1" d="M559.94,308.76c-.03-1.6-.06-2.04.23-3.58,1.46-.77,13.24-.52,15.42-.24.48.89.11,2.29,0,3.49l-.25.79c-4.99.26-10.49.54-15.48.58l.09-1.05Z"/>
  <path class="cls-1" d="M559.94,308.76c5.81.23,9.93.09,15.64-.33l-.25.79c-4.99.26-10.49.54-15.48.58l.09-1.05Z"/>
  <path class="cls-1" d="M509.66,251.63c6.81,4.79-8.54,20.98,27.91,8.98l.39.23-.52,2c2.11,2.37,2.43,3.1,3.02,6.05-8.17,3.82-12.01,7.32-21.16,10.51,3.77-3.18,17.34-9.8,18.1-11.8l-.7-.09c-4.92,2.72-10.74,6.08-15.95,8.01,4.64-4.6,10.32-7.12,15.34-11.51-5.11,1.1-7.4,2.95-11.5,6.04-2.98-1.26-8.73-2.56-11.36-.07l.12.74c1.22,1,2.43.97,4.04,1.19-2,1.24-3.95,2.74-5.86,4.13-.91-7.66-1.47-16.76-1.86-24.42Z"/>
  <path class="cls-1" d="M502.66,312.03l.51.28c.38,4.63-.32,23.95-1.54,28.18-.75,1.12-1.52,1.19-2.82,1.63-2.13-1.43-.09-26.01.16-29.11,1.23-.33,2.46-.66,3.69-.97Z"/>
  <path class="cls-1" d="M562.91,183.15c3.01-1.6,7.41-4.1,10.47-5.31-2.94,8.43-4.01,14.61-12.02,19.44.22-3.44.14-7.14.13-10.6.97-.07,2.65-.71,3.66-1.05l.32-.69.31.46.57-.29c-.91-.41-2.24.09-3.37-.81l-.08-1.15Z"/>
  <path class="cls-1" d="M582.87,194.64c.9,2.47.61,20.11.41,23.42-2.89-.5-4.29-.84-7.19-.31-.89-.88-.62-.35-.71-1.69.93-1.68,1.39-3.06,1.87-4.91,1.49-5.71,3.33-11.07,5.62-16.51Z"/>
  <path class="cls-1" d="M510.37,349.3c2.75-.19,12.55.5,15.96.72,8,.5,18.47.16,26.06,1.19,1.05.81.84.99,1.4,2.48-7.94-.22-38.22-1.34-43.42-4.39Z"/>
  <path class="cls-1" d="M561.8,256.08l1.03.38c-.4,1.71-.82,3.81-1.31,5.46-2.22,1.75-11.18,9.62-13.01,9.8-.17-.75-.16-.35.29-1.21l-.74-1.06c-.28-3.09,8.63-9.45,11.17-11.37l2.58-1.99Z"/>
  <path class="cls-2" d="M559.22,258.07l1.11.66.13.47c-2.15,2.43-9.07,9.33-11.67,11.31l-.74-1.06c-.28-3.09,8.63-9.45,11.17-11.37Z"/>
  <path class="cls-1" d="M559.22,258.07l1.11.66c-5.24,2.6-8.42,7.67-12.28,10.72-.28-3.09,8.63-9.45,11.17-11.37Z"/>
  <path class="cls-1" d="M539.71,278.56l1.15-.71c1.8,1.23,2.18,5.02,2.6,7.24l.67,3.68c-3.7,1.36-5.5,2.32-8.92,4.35l.2-.55c1.3-3.55,2.85-5.59,5.01-8.68-.58-.37-1.34-.63-1.71-1.11.88-1.27.83-2.62.99-4.21Z"/>
  <path class="cls-2" d="M531.96,283.49c-.94-.14-.56.09-1.22-.58.59-2.47,6.74-6,9.19-6.67l.47.29-.57.7-.11,1.32c-.17,1.59-.11,2.94-.99,4.21h-.52c-2.28,2.42-6.78,4.6-9.84,5.98l3.89-4.06-.29-1.19Z"/>
  <path class="cls-1" d="M531.96,283.49c-.94-.14-.56.09-1.22-.58.59-2.47,6.74-6,9.19-6.67l.47.29-.57.7c-2.77,2.36-4.71,4.39-7.86,6.25Z"/>
  <path class="cls-1" d="M532.25,284.69c2.3-1.75,3.11-2.06,5.95-1.93-2.28,2.43-6.78,4.62-9.84,5.99l3.89-4.06Z"/>
  <path class="cls-1" d="M539.18,270.77l.83.18.28.84c-.93,2.57-10.06,6.35-13.02,7.75-.53.18-.25.18-.81-.08,1.05-1.95,10.21-7.16,12.72-8.68Z"/>
  <path class="cls-1" d="M550.45,258.58c-1.48.05-3.58,0-4.75-1,.48-2.41,5.65-2.92,7.67-2.71l.5.65c-1.1,1.01-2.26,2.15-3.42,3.06Z"/>
  <path class="cls-1" d="M538.21,296.13l.4.41-.15.62c-6.03,5.12-7.46,5.08-15.29,5.01l-.28-.34.48-.51c1.88-.45,5.67-.3,7.77-.29,2.38-1.27,4.87-3.26,7.06-4.91Z"/>
  <path class="cls-1" d="M558.76,267.49l.26.44c-3.39,2.89-6.56,5.34-9.99,8.36l-.38-.57c.1-3.26,7.57-6.86,10.11-8.24Z"/>
  <path class="cls-1" d="M556.77,277.2l.47.34c-.32,1.78-1.1,4.26-3.17,4.58-.01-.17.44-1.46.52-1.72-1.03-.32-.55-.19-1.95.36-.75,1.05-.76,1.22-1.91,1.87l-.41-.19c.59-2.16,4.55-4.15,6.45-5.24Z"/>
  <path class="cls-1" d="M513.13,285.59c1.29.38,2.66.62,3.59,1.53.11,1.34-.01,1.02-.95,2.45-1.45.54-1.64.37-2.63-.63-.46-1.56-.37-1.69-.01-3.35Z"/>
  <path class="cls-1" d="M493.61,108.86c1.44,1.66.75,10.32.64,12.96-1.39-1.12-.82-10.84-.64-12.96Z"/>
  <path class="cls-1" d="M554.54,283.39c1.95,1.77-.79,4.4-2.13,5.48l-.51-.54c.13-2.12,1.29-3.38,2.64-4.94Z"/>
  <path class="cls-1" d="M536.56,293.59c1.15-.06.73-.15,1.77.26-.5,1.12-2.77,2.31-3.93,3.06-.66.28-.31.23-1.08.09.15-1.7,1.83-2.76,3.24-3.4Z"/>
  <path class="cls-1" d="M547.22,336.67l.27.14-.29.47c-2.19.76-5.55,1.14-7.94,1.5l-.26-.41c1.63-1.23,6.13-1.49,8.22-1.7Z"/>
  <path class="cls-1" d="M502.26,347.79c1.33.79,2.25,1.16,3.17,2.36l-.34.59c-1.49-.04-2.6.14-3.73-.55-.06-1.25.14-1.1.89-2.4Z"/>
  <path class="cls-1" d="M547.4,105.08c2.06-.32,7.53-.71,9.27.39-1.63.22-8.22.64-9.27-.39Z"/>
  <path class="cls-1" d="M518.85,289.63l.13.12v.49c-1.3,1.16-2.38,1.54-3.95,2.27l-.36-.84.31-.77c1.25-.94,2.3-.98,3.87-1.28Z"/>
  <path class="cls-1" d="M550.6,338.46c.2.16.6.92.76,1.19l-.22.78c-1.37.84-1.81.73-3.48.83l-.46-.32.16-.44c1.61-.73,2.06-.81,3.24-2.04Z"/>
  <path class="cls-1" d="M504.89,278.2c1.24,1.53.92,4.48.84,6.47-.38-.16-.5-.33-.83-.62-.4-2.09-.16-3.73,0-5.85Z"/>
  <path class="cls-1" d="M561.7,253.31c.27-.37.9-.76,1.32-1.06l-.19,4.21-1.03-.38-.1-2.77Z"/>
  <path class="cls-1" d="M517.98,292l.59.34c-.34,1.16-1.39,1.82-2.36,2.66l-.7-.22-.09-.64c.76-1.12,1.42-1.41,2.56-2.14Z"/>
  <path class="cls-1" d="M543.91,289.47c.5.62.28.3.35,1.33-.68,1.19-1.3,1.4-2.48,2.1l-.29-.5c.36-1.16,1.51-2.05,2.42-2.93Z"/>
  <path class="cls-1" d="M518.65,224.42c.26.12.85.54,1.11.71.69,1.07.54,1.79.54,3.08l-.79-.19c-.84-1.09-.75-2.18-.86-3.6Z"/>
  <path class="cls-1" d="M558.14,271.44l.59.59c.01,1.31-.7,1.99-1.49,3.09l-.53-.58c-.03-1.31.66-1.98,1.43-3.1Z"/>
  <path class="cls-2" d="M473.63,346.27c-25.78-.07-51.54-.27-77.33-.02-1.62.02-4.25-.59-5.66-1.45l.03-.5c5.58-2.6,75.2.57,85.96,1.24l-.21.45-2.8.28Z"/>
  <path class="cls-2" d="M482.06,71.4c31.57-.99,63.75,1.56,95.31,2.2,5.34.11,16.65,1.66,20.2,1.44l.28.63c-5.38.38-11.87-.51-17.33-.68-6.78-.21-13.52-.38-20.29-.66-25.11-1-50.23-1.68-75.36-2.03-.8-.22-1.64-.32-2.47-.45l-.33-.46Z"/>
  <path class="cls-2" d="M477.02,73.71c.87-.12,1.66-.2,2.53-.29l.3-.65c3.25,1.09,15.07,1,19.31,1.24,19.15,1.07,38.44.66,57.59,1.83l1.82.64c-3.16.08-6.53,0-9.69-.08-23.82-.57-48.13-.75-71.86-2.7Z"/>
  <path class="cls-2" d="M438.21,71.71c9.73-.99,34.05-1.01,43.85-.31l.33.46c.83.13,1.67.23,2.47.45-2.17,0-2.85-.01-5,.46l-.3.65c-.87.09-1.66.17-2.53.29-10.95-1.79-26.65-.14-38.81-2Z"/>
  <path class="cls-2" d="M12,68.68c14.54.31,28.27,1.37,42.88,1.18l.08.46c-5.7.52-11.43.73-17.15.61-9.33-.25-15.79-1.1-25.46-.53l-.35-1.72Z"/>
  <path class="cls-2" d="M12.99,244.74c3.83-.95,33.41-1.52,37.01-.74-4.2,1.13-31.5,1.1-36.84,1.13l-.17-.39Z"/>
  <path class="cls-2" d="M471.42,238.88c5.77-.27,15.96.38,21.76,1.14v.63c-7.55-.17-14.3-.4-21.76-1.77Z"/>
  <path class="cls-2" d="M109.73,348.38c3.48-.45,15.14-.64,18.54-.11-1.19.24-2.11.42-3.33.55-2.57-.1-9.25.35-10.71.19l-.18-.37c-1.48-.14-2.83-.2-4.31-.26Z"/>
  <path class="cls-2" d="M551.09,363.42c2.49-2.42.66-5.53,3.64-6.29l.44.41c.03,2.83-1.94,5.43-4.44,6.63l.36-.75Z"/>
  <path class="cls-1" d="M482.98,346.25c3.21-.37,6.82,1.29,9.97.39,1.1-.31,1.09-1.35,1.4-2.51-.09,1.23-.14,2.41-.36,3.62-3.14-.25-9.52-.55-12.38-1.12l1.37-.38Z"/>
  <path class="cls-2" d="M476.64,345.54c1.98.13,4.81.64,6.34.71l-1.37.38c-2.79-.06-5.21-.14-7.98-.36l2.8-.28.21-.45Z"/>
  <path class="cls-1" d="M54.89,69.86c1.29-.08,3.84-.31,5.02-.21l.26.35.69-.12c-.41-.13-.24-.11-.5-.11l-.44.37c-1.75.13-3.19.17-4.95.18l-.08-.46Z"/>
  <path class="cls-2" d="M238.93,95.83c-1.32-.56-2.1-.65-2.35-2.03,3.53-4.17,45.27-2.4,52.53-2.23l53,1.18c25.3.46,51.17-.47,76.39.91.87.92,2.44,2.39,2.7,3.53-.23.21-1.52,1.46-1.52,1.7,0,14.48.18,28.98-.23,43.46-.19,6.81-.16,13.85-1.13,20.59-4.52-11.37-1.71-54.71-4.42-58.24l-.58.18c-3.09,4.96-.42,15.2.04,20.98,1.11,13.84,1.8,26.48-1.34,40.16-.96-1.08-2.16-2.23-3.2-3.26-6.48-1.48-16.84-1.74-22.97,1.36-1.25,2.16-1.78,3.88-4.04,4.6-1.64-.25-2.51-1.09-3.89-2.07,1.33-3.16,2.81-6.39,3.65-9.7-1.76,2.89-3.44,6.18-5.05,9.18-3.76-1.81-8.52-3.58-12.47-5.14l-1.97-.72h-.23s-.29-.36-.29-.36c2.06-5.14,6.83-12.98,9.76-18.04,5.93-11.22,11.64-22.84,17.27-34.23.68-1.38.83-2.09.26-3.39-3.76.98-7.25,11.43-8.95,14.96-4.99,10.2-10.19,20.29-15.62,30.26-1.64,3.03-4.27,10.42-7.56,11.1l-.32-.57c.28-4.44,6.84-15.12,9.19-19.7,5.98-11.83,12.06-23.61,18.24-35.33l-32.83-1.39c-2.42.04-5.27,0-7.64.16l-12.61,18.03c-4.7,6.82.14,37.12-3.12,39.39-1.4-.79-2.09-3.86-2.57-5.47-.75,3.81-1.42,8.74-2.2,12.25-1.98-6.78-3.05-19.73-2.69-27.06.02-1.08-.34-1.23-1.03-2.33,1.62-4.23,1.66-9.64,1.79-14.16-8.22,12.67-16.83,25-24.91,37.82l-5.41-.25c6.98-13.97,16.8-25.32,23.69-38.3,1.59-1.24,2.63-3.53,2.92-5.53,1.1-2.29,2.02-3.5,3.92-5.22.52-2.37.66-6.31,2.18-7.89,2.55,2.13,1.54,11.46,2.39,15.23l.18.14-.21-.66.46-.46c.61-5.54.66-11.35.56-16.93l-4.83.04c-1.27,2-3.49,5.25-4.24,7.34.66,1.56,1.05,1.59.74,2.81-1.86,1.27-1.54-.34-2.89,1.27-2.05,2.44-4.09,5.68-5.82,8.37-3.8,6-7.43,12.11-10.88,18.32-3.4,6.23-5.73,12.54-10.54,17.92-1.9,2.12-2.39,4.69-6.07,3.85-.96-.22-1.38-.26-1.69-1.32l-.27-.19c-1.82,1.58-3.36,1.15-5.72,2.22-3.08,1.4-5.03,6.64-7.45,6.21-1.32-.24-8.54-3.04-9.48-3.66,1.57-3.16,3.38-6.57,4.66-9.83-2.34,2.9-4.6,5.86-6.78,8.88-1.43-.65-2.73-1.26-4.2-1.79l-.56-.27c-.28-1.01-.24-1-.81-1.86-2.23-.53-2.89,2-5.01.47-1.08-2.91.29-10.69.76-14.06,2.63-2.5,2.94-3.52,4.08-6.83-1.07,1.12-2.16,2.21-3.29,3.27l-.38-.28c-1.89-6.88.44-20.11.52-27.63.06-5.55-.26-11.01-.17-16.57,3.94-.58,8.13-.38,12.14-.39l18.31-.08c13.62-.07,27.32-.7,40.92-.01,3.6.18,4.87.61,8.22,1.82.99-1.3,1.26-2.02,2.71-2.37,2.85,3.44,5.41.2,5.2-1.23-2.86-.32-8.92-.18-12.16-.21l-24.03-.17c-18.21-.12-36.61-.85-54.68-.85-.03,10.93,1.21,23.27-.13,34.06-.62,5.02-1.24,29.02-2.84,31.31l-.45-.42c-.74-3.18-.79-13.43-.86-17.27-.22-15.8-.16-31.61.16-47.41Z"/>
  <path class="cls-1" d="M334.47,103c2.84.01,4.77.09,7.6.36,1.73-.07,7.91-.51,8.95.22-2.42.04-5.27,0-7.64.16l-12.61,18.03-.61-.44-.25.06-.3-.26c0-2.82.47-6.42.76-9.29.72-.81,1.43-1.69,2.13-2.52l-.19-.17-1.75,1.2-.3-.19c.29-2.14,2.89-5.35,4.22-7.15Z"/>
  <path class="cls-2" d="M342.07,103.37c1.73-.07,7.91-.51,8.95.22-2.42.04-5.27,0-7.64.16l-12.61,18.03-.61-.44c4.39-5.93,6.95-11.83,11.92-17.97Z"/>
  <path class="cls-2" d="M362.07,160.29h-.23s-.29-.36-.29-.36c2.06-5.14,6.83-12.98,9.76-18.04.56.5.7.61,1.19,1.18l-.1.46c-1.58,5.41-5.8,11.94-8.37,17.48l-1.97-.72Z"/>
  <path class="cls-1" d="M362.07,160.29c3.24-3.3,7.66-12.29,10.33-16.76-1.58,5.41-5.8,11.94-8.37,17.48l-1.97-.72Z"/>
  <path class="cls-1" d="M280.24,160.77c1.91-2.71,3.65-5.2,5.74-7.79-1.57,3.29-2.61,5.49-5.47,7.98l-.27-.19Z"/>
  <path class="cls-1" d="M255.94,156.1c-1.43,2.78-2.35,4.49-4.67,6.71l-.56-.27c1.06-2.03,3.62-4.68,5.23-6.44Z"/>
  <path class="cls-1" d="M351,99.4c-4.21-.09-12.87.71-15.82.34-.56-1.04-.34-.9-.18-2.34,1.27-1.32,9.31-.68,11.56-.62,20.91.58,41.68,1.42,62.61,1.09,1.09-.02,2.56.1,3.47.67l-.15.6c-1.06.52-20.58.94-23.33.98l.59,1.46c-2.49,1.23-17.63.83-20.9.39l-11.5-.09c-2.68,0-6.41.19-8.82-.94.24-2.11.73-.36,2.45-1.54Z"/>
  <path class="cls-2" d="M351,99.4c12.39-.13,25.55.67,38.17.73l.59,1.46c-2.49,1.23-17.63.83-20.9.39l-11.5-.09c-2.68,0-6.41.19-8.82-.94.24-2.11.73-.36,2.45-1.54Z"/>
  <path class="cls-1" d="M374.19,101.24c4.25-.14,11.42-.27,15.58.35-2.49,1.23-17.63.83-20.9.39,1.84-.13,4.01.16,5.32-.74Z"/>
  <path class="cls-1" d="M357.37,101.88l-.3-.34.1-.23c2.34-.43,7.26-.18,10.02-.22l7,.14c-1.31.9-3.48.61-5.32.74l-11.5-.09Z"/>
  <path class="cls-1" d="M348.55,100.94c3.72-.19,15.24-.44,18.64.15-2.75.04-7.68-.21-10.02.22l-.1.23.3.34c-2.68,0-6.41.19-8.82-.94Z"/>
  <path class="cls-1" d="M278.55,102.1c1.44.3,1.02-.08,1.78.77-8.81,11.31-17.32,21.46-25.95,33.13l-.4.34-.25-.31c2.09-5.7,20.06-27.83,24.83-33.93Z"/>
  <path class="cls-2" d="M351.19,168.04c10.33-1.33,20.89,1.84,26.21,11.27,4.48,7.94,2.93,15.86,3.07,24.4.32,19.72,3.42,40.16-22.02,43.52-12.5,1.73-28.13-4.73-29.14-18.92-.91-12.81-1.14-28.07.12-40.86,1.23-12.56,10.47-17.75,21.77-19.41Z"/>
  <path class="cls-1" d="M354.07,182.82c1.85.25,4.44.92,5.59,2.54,2.19,3.1,1.8,38.39.42,43.13-.57,1.96-2.48,2.8-4.15,3.67-.85-.01-1.65-.06-2.48-.22-1.64-.31-3.34-1.16-4.1-2.75-1.55-3.22-1.47-39.89.2-43.35.86-1.77,2.81-2.39,4.52-3.01Z"/>
  <path class="cls-2" d="M91.14,169.22c9.01-.63,17.74-.44,26.93,1.18,13.26,2.34,16.21,13.61,13.93,25.29-.94,4.8-4.49,8.09-8.7,10.46,1.3.78,2.72,1.63,3.98,2.53,7.84,5.56,7.34,17.4,4.92,25.63-.63,2.14-1.74,3.72-3.05,5.48-2.09,2.14-4.76,4.28-7.77,4.8-12.15,2.07-25.75,1.36-38.06,1.27-.19-14.48-.06-28.77.01-43.25.05-11.09-.31-22.05.04-33.18,2.55,0,5.2-.12,7.76-.2Z"/>
  <path class="cls-1" d="M102.68,213.04c2.59-.05,5.13-.28,7.62.59,6.32,2.2,4.72,11.57,2.71,16.52-3.24,2.19-6.54,1.81-10.28,1.68-.06-6.26-.08-12.52-.05-18.78Z"/>
  <path class="cls-1" d="M102.59,183.19c2.26-.03,4.82-.18,6.98.54,6.38,2.12,4.88,10.72,2.84,15.62-3.93,1.34-5.75,1.12-9.86,1.04-.03-5.73-.02-11.46.03-17.2Z"/>
  <path class="cls-2" d="M222.4,169.23c7.97-.38,17.5-.23,25.33.88,13.54,1.92,16.33,16.38,14.15,27.64-1.21,6.26-3.87,7.95-8.86,11.08,11.72,6.41,8.52,13.86,9.19,25.27.25,4.22,1.44,7.73,2.69,11.72-4.76-.02-14.68,1.28-18.16-1.09-2.54-1.73-2.69-5.01-3.1-7.82-.14-3.15.05-7.17.16-10.33.36-9.55-3.18-10.64-11.6-10.81-.14,10.12.21,19.88-.09,30.07h-19.01s0-46.82,0-46.82c0-9.74-.29-19.9.11-29.59l9.17-.2Z"/>
  <path class="cls-1" d="M232.13,183.58c1.83-.04,4.58-.2,6.29.28,7.64,2.16,5.66,11.68,3.57,17.25-2.98,2.06-6.37,1.68-9.85,1.55v-19.08Z"/>
  <path class="cls-2" d="M160.72,169.41h22.28c2.62,8.63,4.51,18.88,6.52,27.79l11.22,48.52c-6.32.22-13.44.04-19.82.03-.43-2.49-.96-5.05-1.43-7.54l-.95-4.35c-4.87-.24-9.68-.17-14.55-.09-.26,3.45-1.28,8.55-1.87,12.08l-18.62-.09c2.09-11.97,5.22-23.82,7.81-35.68,2.99-13.71,5.64-27.14,9.42-40.67Z"/>
  <path class="cls-1" d="M171.16,192.02c1.56,1.47,4.45,24.48,4.86,28.16h-4.77s-4.76-.04-4.76-.04c1.36-9.41,2.91-18.79,4.66-28.13Z"/>
  <path class="cls-2" d="M437.3,168.03c1.05-.08,2.09-.14,3.14-.18,16.18-.49,23.62,9.02,23.78,24.36-4.85.45-11.79.26-16.82.23-.07-3.15-.14-6.22-2.48-8.62-1.17-1.22-2.81-1.88-4.51-1.82-1.83.07-3.55.92-4.71,2.34-7.38,9.04,15.72,18.32,20.95,22.26,13.25,9.99,11.73,32.01-4.23,38.58-4,1.65-6.64,1.7-10.82,2.15-17.72.13-26.87-7.31-26.89-25.72,5.54-.45,11.73-.54,17.3-.71,0,1.03.02,2.05.06,3.08.13,2.73,1.06,5.53,3.19,7.34,1.52,1.29,3.5,1.89,5.48,1.68,1.68-.19,3.8-1.24,4.65-2.68,5.86-10-10.42-16.16-16.37-20.24-8.21-5.31-14.34-11.89-12.9-22.52,1.71-12.59,9.54-17.64,21.18-19.55Z"/>
  <path class="cls-2" d="M277.67,169.41h18.52c.35,19.72,0,40.54,0,60.34l23.52.09c.03,5.19.15,10.76-.38,15.89-2.8.3-10.12.07-13.37.07h-28.38c-.12-15.4-.16-30.79-.12-46.18-.03-9.44-.57-21.04.2-30.2Z"/>
  <path class="cls-2" d="M170.14,265.81c4.7-.2,10.43-.47,14.09,2.95,4.03,3.76.8,7.93-2.13,10.81.4.26.79.53,1.17.81,4.26,3.09,4.79,6.45,1.62,10.61-4.81,4.12-11.67,3.08-17.61,2.7-.11-4.8-.41-23.31.12-27.2.91-.74,1.32-.52,2.73-.67Z"/>
  <path class="cls-1" d="M173.1,281.8c3.93.11,11.2.49,6.9,6.4-2.78.87-4.71.7-7.55.57-.05-1.89-.47-5.77.64-6.97Z"/>
  <path class="cls-1" d="M172.36,270.46c4.88-.09,9.65-.22,7.25,6.18-2.96,1.04-4.07.94-7.14.85l-.11-7.03Z"/>
  <path class="cls-2" d="M334.8,265.79c7.02-.41,21.4.97,15.67,12.74-.74,1.52-2.96,3.1-4.39,4.14,1.91,3.66,3.87,7.3,5.88,10.91-2.96.28-5.1,1.19-6.78-1.52-1.67-2.94-3.26-6.25-4.79-9.28l-4.39.03v10.8s-5.15.23-5.15.23c-.32-4.25-.48-23.89.25-27.49.92-.49,2.57-.48,3.69-.55Z"/>
  <path class="cls-1" d="M336.21,270.53c5.47-.02,12.27-.78,9.32,7.02-3.47,1.19-5.75.94-9.35.76l.02-7.78Z"/>
  <path class="cls-2" d="M236.22,265.81c5.56-.29,18.5-.7,18.34,8.69-.05,3.19-3.46,6.2-5.87,8.14,1.46,3.19,4.05,7.78,5.76,11-3.16.25-5.14,1.16-6.96-1.67-1.5-2.88-2.97-6.17-4.36-9.13l-4.56-.05-.04,11.03-5.25-.21c0-8.28-.27-19.13.17-27.2.92-.65,1.47-.48,2.78-.6Z"/>
  <path class="cls-1" d="M238.62,270.55c5.54-.03,12.95-.84,9.24,7.17-2.27.82-6.62.85-9.2.95l-.04-8.12Z"/>
  <path class="cls-2" d="M276.12,265.67c6.16-.24,7.89.41,12.72,3.91-1.03,1.18-2.18,2.37-3.25,3.52-2.43-1.51-6.06-3.16-8.88-2.18-11.73,4.1-6.93,21.15,5.66,17.48.94-.27,1.11-.92,1.44-1.7-.88-3.22-4.58-1.05-4.23-6.87l9.25-.03-.09,11.68c-4.87,2.38-10.85,3.61-15.97,1.32-3.61-1.62-6.38-4.67-7.65-8.42-3.04-9.08,2.38-16.18,11-18.72Z"/>
  <path class="cls-2" d="M391.04,169.41h14.33c.29,10.03,1.91,21.16-7.86,27.31-1.75.71-3.33,1.22-5.21,1.05-1.5-.89-1-.3-1.76-1.65.2-3.42,4.96-4.76,6.93-8.63-.08-3.01-4.16-2.46-6.43-2.43v-15.64Z"/>
  <path class="cls-2" d="M203.43,266.01c-.06,4.77-.16,9.6-.06,14.32.1,4.81.61,7.03,5.51,8.72.92.32,2.54.41,3.21-.2,5.03-4.52,2.46-16.66,3.34-22.28,1.18-1.11,3.52-1,4.77.04.72,1.43.43,3.37.37,5.07.1,5.98,1.01,14.95-3.41,19.6-3.54,3.76-12.3,3.94-15.68-.1-5.06-6.05-3.59-17.84-3.3-25.17h5.24Z"/>
  <path class="cls-2" d="M301.16,266.03h17.89s-.11,4.76-.11,4.76c-4.2,0-8.4-.05-12.59-.13v6.49c3.53.03,7.25-.1,10.79-.16l-.38,5.02c-2.17-.07-9.08-.59-10.48.46l.08,6.28h12.67s0,4.87,0,4.87c-5.96.13-11.93.14-17.89.02l.02-27.62Z"/>
  <path class="cls-2" d="M26.09,94c7.03.2,16.14-.7,22.74,1.01.23,3.72.6,7.8-1.91,10.72-8.34,2.46-13.76,2.32-21.41-1.5-.5-3.8-.7-6.59.58-10.23Z"/>
  <path class="cls-1" d="M29.12,96.2c6.89.51,8.53,1.03,15.94.64.14,1.45.63,4.35-.08,5.54h-.85c-4.3-.92-6.84-.89-11.26-.91l-3.27,3.03c-.06-2.83-.26-5.48-.47-8.3Z"/>
  <path class="cls-2" d="M368.29,265.64c4.15-.1,10.15-.64,11.27,4.45-1.07,4.12-8.53-1.57-11.98.95-1.12,5.13,7.73,6.61,10.45,9.65,2.01,2.25,2.02,2.6,3.2,5.34-1.66,5.12-2.54,6.21-7.46,7.97-5.43.43-7.38-.35-11.79-3.12l2.24-4.36c2.64,1.68,9.64,5.3,11.23.54-1.2-4.64-9.63-6.04-12.24-10.43-3.12-5.24.62-8.43,5.09-10.99Z"/>
  <path class="cls-2" d="M222.3,68.39c12.79-.41,25.58-.54,38.38-.41,10.28.14,20.47.72,30.79.76l32.61-.08c8.42-.01,24.13-.24,31.93,1.87-34.17-1.25-68.71.86-102.95-1.06-10.87-.61-22.59.36-33.59-.02.97-.57,1.75-.72,2.84-1.05Z"/>
  <path class="cls-2" d="M161.35,128.31c-.84-7.54-2.3-24.29.6-30.75,1.02-2.27,34.95.29,39.07,1.21-9.59,1.55-27.92.78-37.62-.71-1.03,8.18-1,21.44-1,29.99l-1.05.25Z"/>
  <path class="cls-2" d="M22.8,303.23c1.39-.02,2.86-.08,4.23.05,1.76.55,3.1,1.17,4.24,2.72.6.82.85,1.85.67,2.85-2.24,12.87-21.58-.29-9.13-5.62Z"/>
  <path class="cls-1" d="M24.05,304.19l2.02-.27c1.62,1.69,2.65,2.63,2.8,4.97-1.92,4.52-12.47,1.15-4.82-4.7Z"/>
  <path class="cls-2" d="M22.8,303.23c1.39-.02,2.86-.08,4.23.05l-.96.64-2.02.27-1.25-.97Z"/>
  <path class="cls-2" d="M177.4,114.37c2.21-.1,4.42-.11,6.63-.04,2.56.07,11.01.54,12.78,2.41l-.34.49c-3.26,1.25-5.47.89-8.99.79-4.43,0-17.26.27-20.61-1.72l.04-.48c2.31-1.49,7.56-1.32,10.49-1.44Z"/>
  <path class="cls-2" d="M173.41,119.97c5.67-.37,18.94.31,23.72,2.68l-.11.38c-1.49.74-3.28.72-4.99.85l-6.47-.22c-3.26-.12-16.81-.34-18.68-2.36l.48-.59c1.87-.78,3.97-.67,6.05-.75Z"/>
  <path class="cls-2" d="M176.09,137.9c9.69-.33,15.84.03,25.4,1.21-4.55,1-8.91,1.39-13.53,1.78-3.19.38-20.54-.3-22.81-1.8l.45-.43-.18.56.59-.7c2.91-.75,6.97-.61,10.06-.63Z"/>
  <path class="cls-2" d="M200.8,97.27c3.26,2.59,1.74,29.08.68,33.48-1.96-5.11-2.46-28.39-.68-33.48Z"/>
  <path class="cls-2" d="M167.61,125.16c5.92-.13,24.77-.4,29.12,2.42l.04.6-1.09.29c-3.83-.06-27.62-.4-29.84-2.21.7-1.06.23-.59,1.77-1.1Z"/>
  <path class="cls-2" d="M28.38,332.76c8.97.71,19.51-.09,28.38,1.33l-2.65.25c-.94.45-.78.53-1.4,1.4-3.78,1.33-20.44.96-24.25-1.2-.45-.26-.14-1.29-.08-1.78Z"/>
  <path class="cls-2" d="M184.97,109.54c3.76.08,9.21-.13,12.32,2.05l-.16.52c-2.98,1.07-11.87.44-15.59.32-2.87,0-10.59-.11-12.98-1.27,2.11-1.64,13.28-1.54,16.4-1.62Z"/>
  <path class="cls-2" d="M177.24,129.3c4.22-.07,16.54.21,20.01,2.09l-.06.47c-2.36,1.2-7,.69-9.82.58-6.9-.82-15.09.48-21.59-2.38,3.82-.33,7.64-.58,11.46-.76Z"/>
  <path class="cls-2" d="M110.31,334.46c5.91-.37,10.57-.51,16.34.79-7.73,1.17-15.03,1.54-22.81,1.6-2.68-.05-12.73.46-14.18-1.68,1.3-.82,17.61-.61,20.66-.71Z"/>
  <path class="cls-2" d="M255.41,342.63c8.11-.03,16.37.11,24.39,1.39-3.14.67-5.35,1.15-8.52,1.44-3.82.01-21.44.2-23.82-1.66,1.72-1.3,5.71-1.11,7.95-1.18Z"/>
  <path class="cls-2" d="M167.77,105.78c3.87-.19,28.03-.77,29.54,2.01l-.62.46c-4.44.03-25.81-.29-29.38-1.36l-.25-.52.71-.58Z"/>
  <path class="cls-1" d="M98.7,68.97c14.38.18,28.75.24,43.13.18,4.89-.02,17.79-.35,22.17.2-7.35.65-14.47.39-21.81.56-9.03.28-18.07.4-27.11.35-4.17,0-12.63.12-16.56-.69l.17-.61Z"/>
  <path class="cls-2" d="M370,343.77c5.14-.13,9.78-.2,14.92-.06-4.36,2.08-6.67,2.42-11.42,2.74-3.29.07-10.65.32-13.48-1.02l.05-.51c3.03-1.54,6.48-1.16,9.93-1.15Z"/>
  <path class="cls-2" d="M174.33,133.42c4.19-.25,19.21-.06,22.4,1.82l-.69.3.45-.34c-.49.45-.22.33-.77.44v-.55s-.39.62-.39.62c-1.36.22-4.02.14-5.5.13-6.76-.05-18.4-.56-24.8-1.88,2.78-.39,6.42-.43,9.29-.54Z"/>
  <path class="cls-2" d="M168.18,102.06c5.12.04,23.99.05,27.8,1.67l.14.76c-4.86.03-24.17-.22-28.12-1.71l.18-.73Z"/>
  <path class="cls-2" d="M319.15,138.57c.68,1.1,1.05,1.25,1.03,2.33l-.6-.31c-1.39,1.54-4.09,6.18-5.43,8.27-3.93,6.09-7.47,11.87-12.28,17.35,2.02-4.44,5.34-9.1,8.04-13.23l9.25-14.42Z"/>
  <path class="cls-2" d="M55.85,235.83c2.07.06,8.72.09,10.02.87-2.77.35-18.29.35-21.41.16-2.55.09-12.62.25-14.61-.18l.25-.28c7.26-.99,18.15-.61,25.74-.57Z"/>
  <path class="cls-2" d="M55.85,235.83c2.07.06,8.72.09,10.02.87-2.77.35-18.29.35-21.41.16,3.03-.47,8.1-.16,11.67-.55l-.28-.48Z"/>
  <path class="cls-1" d="M364.53,71.81c4.95-.4,29.6-.69,33.89.24l.04.47c-8.14-.1-27.09.77-33.93-.71Z"/>
  <path class="cls-2" d="M465.52,251.6c6.66-.44,16.07-.34,22.59.54-1.65.29-3.43.42-5.11.58-5.61.4-15.48.29-21.09-.27,1.47-.24,2.17-.43,3.61-.86Z"/>
  <path class="cls-2" d="M219.46,69.44c-5.75.19-22.19.87-27.31-.45,2.31-.65,26.49-.58,30.15-.6-1.09.34-1.87.48-2.84,1.05Z"/>
  <path class="cls-2" d="M37.37,248.57c8.03-.47,16.08-.52,24.12-.15l.22.82c-6.68-.1-17.98.89-24.34-.68Z"/>
  <path class="cls-1" d="M314.32,123.68c-3.37,2.12-10.98,15.67-13.66,17.68.26-2.3,14.32-20.6,16.58-23.21-.29,2-1.33,4.29-2.92,5.53Z"/>
  <path class="cls-2" d="M335.96,345.54c6.51-.9,11.24-1.42,17.82-.21-4.3.95-12.43.64-17.49,1.01l-.33-.8Z"/>
  <path class="cls-2" d="M62.25,137.88c1.57.74,1.73.86,2.38,2.26-.07,1.57-.5,1.94-1.42,3.32-1.44-.49-1.74-.86-2.28-2.22.09-1.61.43-1.92,1.31-3.36Z"/>
  <path class="cls-1" d="M467.85,246.38c4.72-.12,16.1.89,20.68,1.62-4.08.13-17.43-.08-20.68-1.62Z"/>
  <path class="cls-2" d="M295.67,344.36c2.15-.1,6.45-.88,6.84,1.79-2.99.57-5.81,1.63-6.84-1.79Z"/>
  <path class="cls-1" d="M18.8,248.26c1.79-.11,9.39-.22,10.55.77l-.76.26c-2.16,0-9.42.25-10.85-.64l1.05-.39Z"/>
  <path class="cls-2" d="M43.61,293.08c1.28.32,2.18.4,3.14,1.28.44,1.29.3.9-.11,2.45-1.25.02-1.92-.02-2.89-.78-.63-1.57-.44-1.05-.14-2.94Z"/>
  <path class="cls-2" d="M46.93,214.7c2.37,1.41.56,4.1-.55,5.63-.89-.91-.85-.83-1.16-2.07.16-1.59.77-2.18,1.7-3.55Z"/>
  <path class="cls-2" d="M83.39,115.08c1.31.24,1.52.16,2.58.98.65,1.2.41,1.87.24,3.24-1.21-.3-1.14-.28-2.18-.98-.79-1.21-.64-1.8-.64-3.25Z"/>
  <path class="cls-2" d="M161.81,133.5c1.37,1.3,1.6,5.72,1.69,7.67-2.45-1.76-1.98-5.06-1.69-7.67Z"/>
  <path class="cls-2" d="M307.62,345.59c1.96-.23,6.51-.58,8.17.44-2.96.59-5.55,1.11-8.17-.44Z"/>
  <path class="cls-1" d="M61.49,248.42c2.31-.12,4.41-.37,6.67.07l.04.06c-1.62.55-4.74.69-6.49.69l-.22-.82Z"/>
  <path class="cls-2" d="M161.35,128.31l1.05-.25c.02,1.53.16,2.46-.33,3.88-.62-.97-.59-2.37-.72-3.62Z"/>
  <path class="cls-1" d="M98.53,69.57c-1.65-.02-2.44.02-4.03-.32l-.15-.33c1.48-.41,2.87-.28,4.35.05l-.17.61Z"/>
  <path class="cls-1" d="M398.43,72.05c1.61-.05,2.78-.24,4.27.36-.98.7-3,.28-4.23.11l-.04-.47Z"/>
  <path class="cls-2" d="M336.29,346.34c-1.3.15-2.43.42-3.65.03,1.1-.77,1.85-.64,3.32-.83l.33.8Z"/>
  <path class="cls-1" d="M484.86,72.31c25.13.35,50.25,1.03,75.36,2.03,6.78.27,13.52.45,20.29.66,5.47.17,11.95,1.07,17.33.68,4.25,8.31,6.47,20.19,9.34,29.44,7.27,23.45,13.73,47.07,21.59,70.34,2.98,8.84,6.21,20.13,10.4,28.61.99-.63,1.82-1.37,2.72-2.12.99,2.68,2.07,3.84,3.9,6.02l-1.43,3.1c4.96,2.43,7.53,3.18,12.55,4.97,2.57.92,10.26,6.3,12.58,8.28-2.42-.42-5.99-1.26-8.25-.81l-.89-.42c-1.87.61-3.86-.03-5.83-.49,3.38,2.11,19.28,10.03,20.55,11.64-1.32,1.72-1.56-.33-1.72,1.6,3.1,2.6,11.28,5.84,15.34,7.98-1.3,24.65-3.73,50.54-3.89,75.16-7.56-.49-15.22-.12-22.74-.84-2.67-.26-4.95-1.61-7.44-2.54-.98-2.83-2.04-5.64-3.16-8.42.42-.24.75-.48,1.12-.8-1.68-2.33-7.9-7.7-10.31-9.82.75-.8,1.71.24,2.75-.7-3.41-4.06-12.53-5.92-17.93-6.3-9.4-.67-22.88.04-30.92,5.84-.39.28-.5.56-.64.98.93.5,2.12.37,3.23.38-1.69,2.15-14.68,7.92-14.85,10.64l2.04.26c0,.68-9.21,10.77-10.6,13.07-.87,1.37-2.59,4.28-3.62,5.34,1.01-3.56,5.73-13.15,7.53-17.28l-.69-1.02c-.08-1.87,3.68-9.11,4.68-11.22,1.5-4.34,4.28-8.42,4.88-13.08,1.78-13.69.37-28.2.04-42.15-.26-13.39-.75-26.78-1.46-40.15-1.09-18.13-2.73-35.66-2.98-53.9-.18-13.34-1.07-26.54-1.08-39.97-.8-.61-.99-.67-1.87-1.17l.64-1.3c-.67-3.44-.49-8.02-.84-11.67-.34-3.6-1.73-9.12-.78-12.4.13-1.56.08-1.7.84-3.02-3.52-.27-6.45-.55-10-.68-3.62-.13-8.71.09-12.1-.58l-1.82-.64c-19.15-1.17-38.44-.76-57.59-1.83-4.25-.24-16.06-.15-19.31-1.24,2.16-.48,2.84-.45,5-.46Z"/>
  <path class="cls-1" d="M639.17,204.07c.99-.63,1.82-1.37,2.72-2.12.99,2.68,2.07,3.84,3.9,6.02l-1.43,3.1c4.96,2.43,7.53,3.18,12.55,4.97,2.57.92,10.26,6.3,12.58,8.28-2.42-.42-5.99-1.26-8.25-.81l-.89-.42c-1.17-2.43-15.25-9.27-18.68-10.75l1.61-4c-1.75-1.6-2.57-2.45-4.12-4.27Z"/>
  <path class="cls-2" d="M580.97,76.83c1.19-.3.58-.26,1.9.09.34.72.32.39.25.96.27,1.45.28,2.48,1.28,3.51,1.37.71,2.23.8,3.76,1.12l-2.84,3.83c.02,1.72.32,8.77-.58,9.76-1.23-2.48-1.23-6.48-2.25-9.65-.49,6.57.35,14.11.19,20.85-.8-.61-.99-.67-1.87-1.17l.64-1.3c-.67-3.44-.49-8.02-.84-11.67-.34-3.6-1.73-9.12-.78-12.4.13-1.56.08-1.7.84-3.02l.3-.91Z"/>
  <path class="cls-1" d="M580.97,76.83c1.19-.3.58-.26,1.9.09.34.72.32.39.25.96-.38,1.57-.37,2.69-1.38,3.67-1.04-.04-1.02-.16-1.9-.78.13-1.56.08-1.7.84-3.02l.3-.91Z"/>
  <path class="cls-2" d="M583.28,296.55c.92.28.85.28,1.8.12-.63,3.43-3.98,8.88-5.8,12.11l-.69-1.02c-.08-1.87,3.68-9.11,4.68-11.22Z"/>
  <path class="cls-1" d="M583.28,296.55c.92.28.85.28,1.8.12-3.29,2.58-4.1,8.49-6.48,11.1-.08-1.87,3.68-9.11,4.68-11.22Z"/>
  <path class="cls-1" d="M556.76,75.84c6.95-.01,18.8,1.32,24.21.99l-.3.91c-3.52-.27-6.45-.55-10-.68-3.62-.13-8.71.09-12.1-.58l-1.82-.64Z"/>
  <path class="cls-2" d="M592.91,180.74c2.24-18.15-2.94-39.12-.92-57.77.41-3.75,1.46-1.01,3.41-2.76-.1-2.6-.2-2.69,2.33-3.72.47-1.22.48-2.51-.24-3.6-1.65.17-2.42,2.47-4.14,2.66-5.19-4.52,1.61-7.81,2.01-11.4-1.07-1.65-1.47.21-3.88-1.38-1.22-2.48.55-4.8.78-7.41.21-2.44-2.1-14.08,2.01-14.05,3.22,2.4,5.64,14.11,6.93,18.25,1.39,2.74,2.63,6.55,3.54,9.51l-.53,1.32c-.56-2.36-1.09-3.89-2.47-5.88-1.85,6.42-.71,11.84,2.3,17.65-.22,4.04.82,63.99,1.11,64.8.79-5.08.68-10.1,1.03-15.14.96-13.79,0-27.18-.03-40.85,4.51,7.67,15.48,51.58,15.3,62.58-.01.73-1.35,2.3-1.98,2.9l-1.02.78-1.05.38.63.91.99.68-.04.7c-2.59,2.6-11.66,3.01-15.24,3.09.48,2.49,1.55,6.07.54,8.29-1.58,1.66-6.35,2.98-8.47,1.34-1.07-2.56.39-4.97.02-6.99-.66-3.63-5.11-1.01-5.67-6.4-.5-4.75-.82-9.51-1.22-14.23l-2.43-28.65c-.76-9.5-4.76-50.96.6-56.31.42-.42.37-.26,1.04-.18,1.45,1.26,1.7,3.39,1.93,5.21-1.08.66-2.25.58-3.59.7,1.94,24.21,1.29,51.24,6.42,74.97Z"/>
  <path class="cls-1" d="M618.02,198.52c-3,.69-12.16,2.47-14.21-.26-.22-1.68.39-3.15,2.17-3.44l.78.65.76.97,1.04.04c2.83,1.09,7.24.13,9.89.76l-1.05.38.63.91Z"/>
  <path class="cls-1" d="M606.76,195.47l.76.97,1.04.04c2.83,1.09,7.24.13,9.89.76l-1.05.38c-1.73.7-11.11,2.01-11.56-.91l.93-1.23Z"/>
  <path class="cls-1" d="M601.74,104.5c-.62-1.98-3.04-2.88-2.52-5.27l.69-.27.83.78.46-.19c1.39,2.74,2.63,6.55,3.54,9.51l-.53,1.32c-.56-2.36-1.09-3.89-2.47-5.88Z"/>
  <path class="cls-1" d="M608.55,196.47c3.97-.55,7.65-1.85,10.9-.02l-1.02.78c-2.65-.63-7.06.33-9.89-.76Z"/>
  <path class="cls-1" d="M596.7,121.47c.43.26,1.52,1.02,1.6,1.35,1.2,4.78,2.49,29.95,2.18,33.12l-.47-.03c-.94-.26-1.79-.32-2.76-.44-1.89-2.87-2.04-30.03-.56-34Z"/>
  <path class="cls-1" d="M597.63,163.42c.8.26,1.47.52,2.25.82,1.68,2.68-.68,18.2,0,23.22-.86-.43-1.68-.97-2.51-1.47-.66-1.23.26-5.72.28-7.61.06-4.99.02-9.97-.02-14.96Z"/>
  <path class="cls-1" d="M592.09,191.29c4.14,3.32,1.73,4.7,3.19,7.06,1.3.64,3.03.18,4.54-.03l-.37.8c-1.43,1.26-5.04.96-7,.95-.17-2.92-.29-5.85-.36-8.78Z"/>
  <path class="cls-1" d="M601.51,129.8l.34.32c1.02,2.69,1.06,9.71.73,12.59h-.43c-1.21-1.51-.74-10.68-.64-12.91Z"/>
  <path class="cls-1" d="M600.95,204.9c3.08,1.65,2.12,4.88-.81,6.27l-.37-.6c1.37-2.08.44-3.23,1.19-5.66Z"/>
  <path class="cls-2" d="M604.21,110.39l.53-1.32c6.46,19.48,12.32,39.15,17.6,58.98,1.61,6.07,4.97,17.78,5.83,23.76-.93,2.52-2.19,6.74-4.17,8.34l-.43-.23c-.31-2.99,1.52-6.88,2.91-9.51-3.06-6.29-4.84-13.97-6.93-20.72-3.92-12.69-7.28-25.5-10.46-38.39-1.53-6.18-2.9-15.12-4.87-20.92Z"/>
  <path class="cls-2" d="M661.12,258.17l-.69-.79c.63-3.21,9.35-2.96,12.01-2.43,5.01.99,5.75,9.25.52,10.31-3.67.84-10.37,1.33-12.81-2.15-.37-1.49.71-3.06,1.46-4.46l-.48-.48Z"/>
  <path class="cls-1" d="M661.12,258.17c2.41-.4,7.41-1.14,9.58.1-3.87.92-5.38.59-9.1.38l-.48-.48Z"/>
  <path class="cls-1" d="M663.99,261.27c2.39-.08,6.45-.62,8.11,1.24l-.08,1.28c-2.24.04-7.15.54-8.42-1.5l.4-1.01Z"/>
  <path class="cls-2" d="M662.8,285.42c3.31-.22,4.5-.04,7.59.93,2.51,3.64,3.77,6.17,1.04,10.13-2.82-.87,3.66-7.11-4.52-7.89l-.56-.05c-1.6.26-2.19.35-3.53,1.17-1.04,2.7,3.92,3.56,4.19,6.6-2.81.75-11.68-6.87-4.21-10.89Z"/>
  <path class="cls-2" d="M662.03,297.64c1.72.34,10.16.95,10.7,1.26l.08.87c-2,.46-4.49.67-6.57.91-1.52-.94-2.8-1.95-4.22-3.03Z"/>
  <path class="cls-1" d="M699.18,351.23c-.55-2.71.38-25.51,1.56-27.63,1.07-.37,2.22-.71,3.11.09-.25,5.4-3,20.26-3.84,26.66l-.82.88Z"/>
  <path class="cls-1" d="M172.9,51.37c3.14-.63,19.56-.81,23.31-.8l-.46.61c1.1.69,1.9.36,2.91.9,1.84,1.19,4.54.14,6.18.85-10.76-.06-21.65,2.12-31.93-1.56Z"/>
  <path class="cls-1" d="M198.66,52.08c6.65-.88,14.97.19,21.68.61,5.55.35,11.06.51,16.61.75l-.29.74c-10.39.09-21.37-.76-31.81-1.25-1.64-.7-4.34.34-6.18-.85Z"/>
  <path class="cls-1" d="M114.22,349.01c1.47.16,8.14-.29,10.71-.19l.26,1.4c-3.01.02-10.38.21-12.88-.48l.16-.32,1.74-.41Z"/>
  <path class="cls-1" d="M575.36,320.73l1.09,1.38c-2.12,1.22-2.62,3.65-4.7,5.35l-.39-.74.38-.64c1.02-1.06,2.75-3.97,3.62-5.34Z"/>
  <path class="cls-1" d="M140.3,347.67c.03,2.17.2,6.28-.19,8.25l-.63-.21c-.56-3.85-.49-4.34.82-8.04Z"/>
  <path class="cls-1" d="M576.45,322.1c-.71,2.04-2.54,4.34-3.96,5.96l-.69-.34-.05-.27c2.08-1.7,2.58-4.13,4.7-5.35Z"/>
  <path class="cls-1" d="M236.94,53.44c1.13-.02,2.46-.22,3.34.34-1.11.58-2.33.4-3.64.39l.29-.74Z"/>
  <path class="cls-1" d="M582.22,358.73c2.62-7.71,5.3-20.47,12.8-24.05,13.13-6.26,31.28.4,36.76,13.99,1.01,2.45,2.82,8.06,4.21,10.13.5-.41.67-.79,1.06-1.35.18,1.24.46,2.81.48,4.02l.03,1.37c-.82,7.46-3.71,14.44-9.76,19.03-7.24,5.5-13.06,8.94-22.44,7.69-8.69-1.16-18.54-3.8-24.48-10.75-2.44-2.85-3.2-5.46-4.06-8.91,3.64,5.84,5.3,9.63,11.44,13.29-3.35-4.15-8.08-8.71-8.59-14.08-.51-2.52-.72-8.97,1.07-10.84l1.49.45Z"/>
  <path class="cls-2" d="M581.52,365.88c3.93,18.19,30.33,15.87,31.26,17.88-2.33,1.5-9.97.8-12.77.12-8.75-2.12-17.53-6.99-19.4-16.52l.91-1.47Z"/>
  <path class="cls-2" d="M629.27,378.96c1.38-3.9,3.72-7.19,5.46-10.98,1-2.18,1.28-4.65,2.27-6.52h.53s.03,1.38.03,1.38c-.36.69-.16.25-.37.82-2.32,6.43-3.33,10.29-7.92,15.29Z"/>
  <path class="cls-1" d="M580.73,358.28l1.49.45c-.71,2.82-.65,4.24-.7,7.15l-.91,1.47-.41-1.65c-.48,1.49-.45,1.82-.52,3.42-.51-2.52-.72-8.97,1.07-10.84Z"/>
  <path class="cls-1" d="M580.73,358.28c.06,1.54-.29,5.79-.54,7.42-.48,1.49-.45,1.82-.52,3.42-.51-2.52-.72-8.97,1.07-10.84Z"/>
  <path class="cls-2" d="M604.49,344.04c7.43-.66,13.96,2.44,14.5,11.03.42,6.72-1.96,6.21-5.32,10.03l.07.42c5.55.17,5.92-4.97,8.88-5.71l.32.71c-.3,2.67-2.11,5.42-3.51,7.7,7.93-2.22,11.51.64,5.4,7.5-2.87,2.31-4.08,2.56-6.77.01-5.61,2.08-7.48,2.57-13.44,2.83-1.79,2.31-3.47,2.03-6.11.83-1.84-.83-3.24-2.39-3.88-4.3-.81-2.38-.12-3.71.89-5.86-.83-1.2-2.12-2.71-2.15-4.06,3.69-6.49-3.57-15.43,11.13-21.12Z"/>
  <path class="cls-1" d="M607.43,345.93c4.07.48,7.93,2.12,9.59,6.15.95,2.36.87,5.02-.21,7.32-1.72,3.67-4.2,4.83-7.66,6.16-4.03-1.12-7.89-3.39-9.35-7.53-.83-2.29-.67-4.81.45-6.97,1.56-2.97,4.16-4.22,7.2-5.14Z"/>
  <path class="cls-2" d="M607.47,353.15c.55.56.64,1.38.78,2.13.93-.33,1.35-.55,2.33-.62l.27.96-1.24,2.18c-1.59.61-1.68.57-3.01.09-1.46-2.04-.74-3.17.87-4.74Z"/>
  <path class="cls-2" d="M603.83,372.45c-.36-.3-.16-.08-.41-.81,1.74-1.12,7.63-1.34,9.86-1.37l.04.55.95,1.15c-1.96,1.56-5.58,2.32-7.99,2.09-.09-.73.02-.34-.43-1.13l-2.02-.48Z"/>
  <path class="cls-1" d="M603.83,372.45c-.36-.3-.16-.08-.41-.81,1.74-1.12,7.63-1.34,9.86-1.37l.04.55c-3.13.67-6.3,1.44-9.49,1.63Z"/>
  <path class="cls-1" d="M606.28,374.06c1.76-1.16,5.87-1.91,7.99-2.09-1.96,1.56-5.58,2.32-7.99,2.09Z"/>
  <path class="cls-1" d="M613.52,375c1.23-.13.95-.27,2,.09-1.69.91-3.01,1.13-4.86,1.59-1.46.3-1.6.36-3.06.21,1.07-1.16,4.31-1.62,5.92-1.88Z"/>
  <path class="cls-2" d="M589.69,347.55c7.11.35,2.71,12.32-.48,15.58-7.43-1.98-2.3-11.58.48-15.58Z"/>
  <path class="cls-2" d="M623.2,341.51c4.89,1.35,10.02,7.51,6.21,12.58-5.24-2.57-11.15-6.7-6.21-12.58Z"/>
  <path class="cls-2" d="M604.39,333.23c2.12-.07,5,.09,6.44,1.77.58,3.8-4.65,4.57-7.38,5.17-2.83.28-4.44-2.35-7.31-3.88,3.22-1.86,4.56-2.42,8.25-3.06Z"/>
  <path class="cls-2" d="M622.1,380.2c.16.13.19.37.27.56-1.77,1.49-4.07,2.13-6.3,2.63l-.28-.48c1-1.44,4.53-2.21,6.31-2.7Z"/>
  <path class="cls-1" d="M198.6,376.85c-11.65,3.73-23.69,2.94-32.24-5.8-1.14-.95-3.6-1.93-4.41-3.11-6.42-9.83-2.63-20.55,1.68-29.98,4.66-10.19.94-5.39,9.51-9.72,10.6-5.36,17.27-4.67,26.83.67-.83.41-1.53.78-2.34,1.22-2.87,3.92,2.79,8.67,5.46,11.09,2.99-1.38,3.47-1.45,4.32-4.79l.58-1.06c6.59,9.59,7.09,27.99,1.05,37.76l-1.16.24h-.29c-2.44,2.73-5.55,4.95-9.33,5.27l.32-1.81Z"/>
  <path class="cls-1" d="M206.25,372.92c1.06.06.65-.16,1.36.46-2.44,2.74-5.55,4.96-9.33,5.28l.32-1.81c3.45-1.23,4.55-1.99,7.65-3.93Z"/>
  <path class="cls-2" d="M206.25,372.92c-.97,2.1-5.86,4.51-7.97,5.74l.32-1.81c3.45-1.23,4.55-1.99,7.65-3.93Z"/>
  <path class="cls-2" d="M206.14,355.95c2.82,1.32,2.84,6.37,1.37,8.77-2.23,3.63-3.02,4.77-7.08,6.03-.58-1.48-1.39-2.28-1.99-3.58-1.11-2.41,1.19-6.11,2.36-8.56,1.78-.78,3.61-1.77,5.35-2.66Z"/>
  <path class="cls-2" d="M165.24,343.49c6.6.99,4.62,6.87,3.6,11.56l-3.26,2.03c-1.35.58-1.94.5-3.24-.15-2.79-3.88.44-10.14,2.89-13.43Z"/>
  <path class="cls-2" d="M180.46,349.44c1.09,1.56.06,3.44.94,5.15,1.6,3.11,6.03-.86,8.87-.16l.1.78c-.68,1.78-.8,1.88-2.03,3.38-7.41,5.48-14.01-1.4-7.88-9.15Z"/>
  <path class="cls-2" d="M178.42,365.01c3.77,2.35,5.21,12.79-2.28,8.35-2.81-2.24-8.95-8.39.2-7.6,1.28.11,1.05-.09,2.08-.75Z"/>
  <path class="cls-2" d="M180.26,327.23c1.76-.03,3.34-.23,4.57,1.23.37,3.35-4.1,4.94-6.65,5.82-2.14.04-3.47.28-4.81-1.49.18-3.43,4.03-4.87,6.89-5.55Z"/>
  <path class="cls-2" d="M184.17,337.68c19.69-.9,20.05,26.98,2.78,28.2,1.17-1.1,4.04-1.82,5.54-2.83,8.83-5.97,6.94-21.87-4.37-23.92-1.76-.32-3.34.11-5.21-.35l.08-.51,1.18-.59Z"/>
  <path class="cls-2" d="M177.18,342.04c-.05,1.8-3.11,5.05-3.87,7.17-.9,2.51.81,7.91-.18,9.32-3.95-5.64-.55-12.46,4.05-16.5Z"/>
  <path class="cls-2" d="M187.06,347.5l.79.71c.43,1.57-.05,2.94-.38,4.59h-.58c-.72-1.35-.13-3.83.17-5.3Z"/>
  <path class="cls-1" d="M164.56,373.61c11.39,11.15,27.52,14.04,40.51,3.73l1.58-.17c-5.83,6.95-15.1,10.35-23.87,11.46-8.39-5.95-12.19-4.83-18.23-15.02Z"/>
  <path class="cls-1" d="M611.63,314.99c4.05-.73,22.64,3.17,24.09,7.34l-.38.3c-2.29-.08-6.53-2.09-9.22-2.75-4.54-1.11-8.22-1.72-12.87-2.27-5.65-.77-13.06.87-18.46,2.51-1.63.49-4.94,2.18-6.44,1.76l-.11-.51c2.97-3.63,18.36-5.65,23.39-6.38Z"/>
  <path class="cls-1" d="M105.87,55.57c-8.57-.11-47.74,1.58-52.47-.68,4.23-.84,16.89-.01,22.06-.05,12.81-.1,25.49-.35,38.3-.23l-.21.43c-2.31.05-5.47,0-7.67.53Z"/>
  <path class="cls-1" d="M194.26,309.55c9.71,1.02,23.46,4.79,29.9,12.7.5.62.99,1.26,1.46,1.9-10.31-6.63-19.4-10.4-31.16-13.87l-.19-.72Z"/>
  <path class="cls-1" d="M143.85,357.32c.83.9,1.96,7.46,2.57,9.32,1.64,4.92,3.87,10.63,6.59,15.08,3.61,5.88,10.73,9.13,15.42,14.18-2.54-.48-6.37-2.84-8.4-4.51-10.53-8.7-14.78-20.95-16.19-34.06Z"/>
  <path class="cls-1" d="M125.9,352.32c1.41-.09,2.38-.26,3.74.13l-.88.86.27,1.04c-1.72,1.17-24.76.08-28.63-.09-1.92-.11-3.3-.1-5.16-.61,1.79-.45,9.11-.51,11.3-.57,6.46-.18,12.91-.43,19.36-.76Z"/>
  <path class="cls-1" d="M231.69,344.12c-4.93-11.97-7.41-14.18-15.93-24.1,2.74,1.65,3.44,2.14,5.96,4.24,1.51.59,1.53.32,2.37,1.41,6.26,3.89,6.81,11.84,7.61,18.45Z"/>
  <path class="cls-2" d="M221.71,324.27c1.51.59,1.53.32,2.37,1.41,2.01,3.96,3.62,5.95,5.63,10.43-4.72-5.56-4.42-5.82-8-11.84Z"/>
  <path class="cls-1" d="M54.68,351.34c4.47-.44,33.35-.27,35.67,1.19-7.5,1.09-27.34-.04-35.38-.39l-.29-.81Z"/>
  <path class="cls-1" d="M570.03,389.57c1.41-.27,1.59-.13,2.38.92l-.25.69c-2.62,1.85-12.03,3.19-15.85,3.89-1.23.35-.59.32-1.99-.18v-.61c3.33-2.74,11.3-3.85,15.7-4.71Z"/>
  <path class="cls-1" d="M625.15,332.99c1.32.3,4.71,2.83,5.78,3.77,8.02,7.08,8.54,15.86,9.47,25.53-1.58-1.39-2.18-11.62-3.99-15.35-3.2-6.62-6.87-8.62-11.03-13.67l-.22-.28Z"/>
  <path class="cls-1" d="M222.33,385.38c0,.45-.15.94-.42,1.28-5.35,6.93-14.15,10.87-22.22,12.45.21-.77,3.19-1.7,4.22-2.09,6.94-2.61,12.57-7.15,18.41-11.64Z"/>
  <path class="cls-1" d="M623.83,321.7c5.19-.59,16.45,3.92,18.64,8.92-3.72-2.22-7.63-4.14-11.66-5.72-1.88-.72-5.91-1.67-6.98-3.2Z"/>
  <path class="cls-1" d="M628.24,164.49c1.32,2.31,2.81,7.91,3.75,10.75l8.47,25.7c-.09-.06-.18-.11-.27-.17-2.71-2.25-10.9-31.06-11.95-36.28Z"/>
  <path class="cls-1" d="M623.57,333.48c.73.49,1.45.99,2.16,1.51,7.11,5.28,10.07,14.02,11.32,22.47-.38.56-.56.94-1.06,1.35.91-11.55-7.44-17.37-12.15-24.89l-.27-.44Z"/>
  <path class="cls-1" d="M580.46,397.31l7.43,4.84c-1.36,0-2.78-.1-4.14-.17-2.86-.29-5.71-.67-8.55-1.15,2.57-1.21,3.2-1.52,5.26-3.53Z"/>
  <path class="cls-1" d="M595.41,321.64c.57-.05,1.03,0,1.61.04l-.05.4c-4.01,2.47-9.77,2.97-15.16,6.58-.36.27-.72.35-1.16.52l.1-.49c3.35-3.66,9.94-5.87,14.66-7.06Z"/>
  <path class="cls-1" d="M236.54,384.9c.62,4.1-8.34,9.93-11.5,11.66.04-.22.07-.44.11-.66,2.98-2.2,9.18-8.63,11.38-11Z"/>
  <path class="cls-1" d="M565.75,350.18c.45,2.11-.76,11.95-2.02,13.68-1.54-5.3.05-8.8,2.02-13.68Z"/>
  <path class="cls-1" d="M566.56,370.99c2.81,1.58,3.56,9.46,6.13,11.99.86.84,2.45,2.74,2.57,3.95-3.91-2.86-5.11-5.54-6.59-10.01-.74-2.25-1.73-3.33-2.11-5.93Z"/>
  <path class="cls-1" d="M194.76,305.73c5.55.44,7.46,1.11,12.27,3.74-5.22-.74-8.13-.99-13.08-2.91l.81-.83Z"/>
  <path class="cls-1" d="M54.97,352.15c-5.01.7-11.1,1.01-16.14,1.13l-.27-.53c-.28.12-.56.24-.84.36,2.52-1.17,13.49-1.55,16.96-1.78l.29.81Z"/>
  <path class="cls-1" d="M113.75,54.61c4.86-.23,9.19-.29,13.92.98-6.66.04-15.28.28-21.81-.02,2.2-.53,5.36-.48,7.67-.53l.21-.43Z"/>
  <path class="cls-1" d="M565.64,384.95c.2.01.74.19.96.25v.51c-2.18,1.69-7.78,3.05-10.64,3.85-.27.07-.73.05-1.03.05,1.08-1.34,8.64-3.92,10.71-4.67Z"/>
  <path class="cls-1" d="M677.21,322.68c-3.74-.17-9.39.32-12.88-.53v-.09l.67.14.21-.29c4.14-.41,7.12-.35,11.25-.28.31.87.05.53.74,1.05Z"/>
  <path class="cls-1" d="M193.95,306.55c-2.8-.42-9.15.08-11.96.53l-.62.1c2.09-2.23,10.38-1.75,13.39-1.45l-.81.83Z"/>
  <path class="cls-1" d="M184.12,320.92c2.42-.25,3.19-.25,5.59-.13l.37.65.67-.36-.04.14c-1.69.67-4.14.67-6.03.79-1.48.18-4.57.61-5.92.24,1.32-.64,3.83-1.02,5.36-1.33Z"/>
  <path class="cls-1" d="M571.18,370.7c1.78,1.33,3.01,7.64,3.57,10.01-2.6-1.91-3.19-6.98-3.57-10.01Z"/>
  <path class="cls-1" d="M570.99,346.47c.16,1.82-1.63,8.95-2.15,11.03-1.18-3.95.23-7.58,2.15-11.03Z"/>
  <path class="cls-1" d="M220.39,398.77c1.3.7,2.6,1.41,3.88,2.13l-.06.37-1.73.12c-1.9-.05-3.99-.23-5.9-.35l3.8-2.27Z"/>
  <path class="cls-1" d="M162,308.85l.6.13c-1.08,1.19-6.17,4.07-7.83,5.07l-.3-.03-.07-.47c1.98-1.99,5.07-3.51,7.59-4.7Z"/>
  <path class="cls-1" d="M676.46,321.64c2.14-.11,4.03-.34,6.11.23l.3.4c-1.61.66-3.84.44-5.66.42-.7-.52-.44-.18-.74-1.05Z"/>
  <path class="cls-1" d="M202.13,329.8c3.21,1.92,3.78,2.36,5.87,5.57l-.58,1.06c-1.33-2.25-3.54-4.62-5.29-6.64Z"/>
  <path class="cls-1" d="M5.12,335.37l1.09.81c.33,1.81.33,4.16.4,6.04-.24,0-.46-.13-.69-.21-.58-2.02-.64-4.51-.8-6.64Z"/>
  <path class="cls-1" d="M686.79,321.71c2.15-.26,4.35-.27,6.03,1.24-2.28.16-4.64.75-6.03-1.24Z"/>
  <path class="cls-1" d="M561.18,382.36l.4.17-.24.57c-1.8,1.04-3.77,1.59-5.75,2.26l-.47-.09-.04-.38c1.72-1.1,4.14-1.83,6.11-2.53Z"/>
  <path class="cls-1" d="M613.39,326.48c2.97-.11,5.33.59,7.57,2.53-1.77-.23-5.87-1.79-7.57-2.53Z"/>
  <path class="cls-1" d="M189.26,310.71c-1.38.14-4.48.58-5.61.03l.58.13.02-.48c1.86-.47,3.3-.41,5.2-.46l-.18.79Z"/>
  <path class="cls-1" d="M155.19,356.81c1.93,1.26,1.93,3.51,2.21,5.63-1.69-1.46-1.86-3.51-2.21-5.63Z"/>
  <path class="cls-1" d="M207.89,373.38l1.16-.24c-.53,1.61-1.2,2.78-2.4,4.03l-1.58.17c.97-1.02,2.69-2.64,2.82-3.95Z"/>
  <path class="cls-1" d="M145.04,339.02c.13.13.3.57.39.77-.17,2.02-.45,2.57-1.21,4.47-.37-.24-.27-.3-.51-.84.17-1.97.56-2.62,1.32-4.39Z"/>
  <path class="cls-1" d="M9.69,335.45c.52.26.64.4,1.11.76.43,1.36.12,1.98-.24,3.37-1.46-1.28-1.11-2.4-.87-4.12Z"/>
  <path class="cls-1" d="M574.6,394.71c.25.22.09.05.25.64-.96.83-2.7,1.28-3.96,1.71l-.31-.63c1.06-.93,2.65-1.27,4.03-1.71Z"/>
  <path class="cls-1" d="M189.44,309.92c1.65-.26,3.15-.29,4.82-.37l.19.72c-1.69.13-3.52.24-5.19.43l.18-.79Z"/>
  <path class="cls-1" d="M550.42,376.7l.47.49c-.43,1.14-1.55,1.61-2.65,2.3l-.4-.52c.47-1.05,1.57-1.59,2.57-2.27Z"/>
  <path class="cls-1" d="M370.54,405.77c1.17-.04,2.61-.24,3.62.26-1.22.85-7.42,1.21-9.4,1.54,5.4.27,10.88.14,16.18.48-1.64.92-4.23.79-6.1.74-4.37.51-10.15.42-14.61.34-12.23.4-24.48.55-36.72.45-7.09.38-4.04,3.36-7.41,4.06-1.26-.41-.81-.03-1.46-1.09-.04-1.32.2-1.69-.44-2.54l-.89-.13c-5.91.2-12.42.06-18.37.05,1.11-.39,2.35-.62,3.5-.87-2.36-.54-6.16-.13-7.23-.8,3.89-.38,8.21.12,12.5-.39l.07-.4-1.52-.33c-2.91-.02-13.62-.32-15.59.6l-.65-.5c-1.08-.63-1.61-.69-2.81-1.04,21.62-.73,43.52-.03,65.16-.41,7.19-.13,15.04-.57,22.18-.02Z"/>
  <path class="cls-2" d="M303.7,407.86c1.5.48,8.94.29,11.07.3l10.1-.05c-.44.45-1,.96-1.37,1.46-7.09.38-4.04,3.36-7.41,4.06-1.26-.41-.81-.03-1.46-1.09-.04-1.32.2-1.69-.44-2.54l-.89-.13c-5.91.2-12.42.06-18.37.05,1.11-.39,2.35-.62,3.5-.87-2.36-.54-6.16-.13-7.23-.8,3.89-.38,8.21.12,12.5-.39Z"/>
  <path class="cls-2" d="M303.7,407.86c1.5.48,8.94.29,11.07.3-1.07.25-8.38.74-8.36.73,2.61.19,4.38.15,6.89.97-5.91.2-12.42.06-18.37.05,1.11-.39,2.35-.62,3.5-.87-2.36-.54-6.16-.13-7.23-.8,3.89-.38,8.21.12,12.5-.39Z"/>
  <path class="cls-2" d="M283.2,406.2c21.62-.73,43.52-.03,65.16-.41,7.19-.13,15.04-.57,22.18-.02-18.01.16-35.95,1.53-54,.68-4.88-.23-9.44.11-14.28.68-2.91-.02-13.62-.32-15.59.6l-.65-.5c-1.08-.63-1.61-.69-2.81-1.04Z"/>
  <path class="cls-2" d="M324.88,408.12c12.15-.12,30.12-1,41.93-.05-1.69,1.14-4.02.47-6.58,1.06-12.23.4-24.48.55-36.72.45.37-.49.93-1.01,1.37-1.46Z"/>
  <path class="cls-2" d="M366.8,408.07c2.29-.17,6.32-.69,8.03.72-4.37.51-10.15.42-14.61.34,2.56-.59,4.89.09,6.58-1.06Z"/>
  <path class="cls-2" d="M442.18,403.62l-.75-.64.29-.36c13.53-1.09,69.72-2.95,80.9.87-6.86,2.53-10.97,2.12-18.24,2.15-10.9,0-20.86-.68-31.71-1.15-6.33-.27-13.72-.09-20.12-.08h-.99c-2.9,0-6.37-.56-9.38-.8Z"/>
  <path class="cls-2" d="M286.01,407.24l.65.5c1.47.56,2.95.47,4.54.52,1.08.67,4.87.26,7.23.8-1.15.25-2.39.48-3.5.87-6.72.6-13.77,1.35-20.47,1.75-11.72.71-23.47.5-35.21.5-13.09.09-26.18-.04-39.27-.38,3.05-2.44,9.48.66,13.64-2.11,12.93-.72,27.77-.04,40.81-.14,7.78-.06,18.29.54,25.9-.94,2.12.14,4.06,0,5.66-1.36Z"/>
  <path class="cls-3" d="M475.38,409.79l.18.7-.71.51c-1.26-.11-2.42-.26-2.87-1.59,1.39-.48,4.09-1.1,4.19-2.78-2.63-.48-8.97-1.13-11.59-.7l-.12,1.21c-1.04.56-3.16.34-4.36.19l-.64-.93c-3.53.14-6.9.29-10.44.27-2.84-2.92-8.7-.62-10.34-2.21-.09-.38-.31-1.05-.24-1.36h0s.68-.06.68-.06c1.31.74,1.72,1.16,3.05.59,3.01.24,6.48.8,9.38.79l-1.99.48-.14.42c2.42.67,9.2.28,12.05.17l.25-.23c-2.57-.31-7.45.16-9.28-.35l.1-.48c6.4-.02,13.79-.19,20.12.08,10.85.46,20.81,1.14,31.71,1.15,1.15,1.23,10.59.18,12.35,1.09-.67.51-.76.54-1.52.9-5.31.05-37.13,0-39.76,1.81l-.06.34ZM504.05,406.94l.87-.23c-2.18-.44-8.73-.67-10.88-.36l-2.2.33c1.88.47,10.11.29,12.22.26Z"/>
  <path class="cls-2" d="M494.03,406.35c2.15-.31,8.7-.09,10.88.36l-.87.23c-2.11.03-10.33.21-12.22-.26l2.2-.33Z"/>
  <path class="cls-2" d="M515.21,407.64c19.2-.1,38.4.07,57.59.51l1.72.43.22.55c-18.97.87-38.94-.09-58.1.08-13.19.12-28.44,1.15-41.26.58l.06-.34c2.64-1.81,34.45-1.76,39.76-1.81Z"/>
  <path class="cls-2" d="M149.67,409.34c7.2-.2,14.56.15,21.79.21l42.17.12c-4.16,2.77-10.59-.32-13.64,2.11-4.32.11-11.52-.13-16-.26-8.62-.25-26.95.47-34.32-2.19Z"/>
  <path class="cls-2" d="M253.1,406.21c9.97.19,20.09-.04,30.09-.01,1.2.36,1.73.41,2.81,1.04-1.6,1.36-3.54,1.5-5.66,1.36-2.51-.62-5.73-.51-8.33-.61-7.23-.28-14.42-.35-21.65-.02-2.14.1-4.56.18-6.68-.02l-1.76-.16-.11-1.18c1.76.17,5.8-.25,8.01-.19,1.23.23,2.22.63,3.27-.21Z"/>
  <path class="cls-2" d="M494.58,467.76c1.29-.22,2.03.04,2.88.95,1.12,3.44-1.5,5.06-4.31,6-2,.04-3.29-.33-3.98-2.26.23-3.26,2.88-3.87,5.41-4.69Z"/>
  <path class="cls-2" d="M663.12,463.84c3.82.58,7.09,2.62,3.66,6.56-3.53-1.17-6.74-2.62-3.66-6.56Z"/>
  <path class="cls-2" d="M633.09,448.2c3.19,1.4,5.2,4.33,2.51,7.43-5.05-1.56-5.05-3.22-2.51-7.43Z"/>
  <path class="cls-2" d="M570.02,28.56c3.58.98,5.37,2.09,3.26,5.74-4.82.39-5.76-1.74-3.26-5.74Z"/>
  <path class="cls-2" d="M16.93,444.92c2.1.1,3.27.28,3.79,2.46-.3,1.59-.63,1.82-1.67,3.16-1,.11-1.2.01-2.2-.17-2.1-1.77-1.13-3.41.09-5.45Z"/>
  <path class="cls-2" d="M117.99,28.66c1.04.37,1,.42,1.86,1.14.85,2.41-.47,3.49-2.32,4.89-.9-.25-1.07-.46-1.85-1-1.24-2.48.39-3.64,2.31-5.03Z"/>
  <path class="cls-2" d="M23.94,401.34c4.7-1.61,12.02-1.01,16.96-.65l-.5,1.24c-4.54-.82-10.88-.03-16.45-.59Z"/>
  <path class="cls-2" d="M563.72,30.18c1.2-.33,2.45.36,2.8,1.56.35,1.2-.32,2.46-1.51,2.83-.79.25-1.65.05-2.25-.52-.6-.57-.85-1.41-.65-2.22.2-.8.82-1.43,1.61-1.65Z"/>
  <path class="cls-2" d="M423.81,406.66c1.89-.07,5.36-.32,6.91.68-.65.79-.83.58-2.12.85-1.63.32-5.82,1.28-6.94-.11.78-1.05.78-.8,2.16-1.42Z"/>
  <path class="cls-3" d="M286.66,407.73c1.97-.92,12.68-.63,15.59-.6l1.52.33-.07.4c-4.29.51-8.61,0-12.5.39-1.59-.05-3.07.04-4.54-.52Z"/>
  <path class="cls-1" d="M572.8,408.14c5.82-.05,11.56-.9,17.1-.62l-.19,1.16c-5.91-1.13-9.13.74-14.97.45l-.22-.55-1.72-.43Z"/>
  <path class="cls-2" d="M35.69,474.6c1.86.45,2.38.52,2.8,2.48-.35,1.45-.48,1.42-1.55,2.41-1.46-.21-1.9-.46-2.59-1.65.04-1.49.5-1.92,1.34-3.24Z"/>
  <path class="cls-2" d="M201.02,448.56c1-.52,2.22-.12,2.74.87.51,1,.12,2.22-.87,2.74-1,.52-2.22.12-2.74-.87-.51-1-.12-2.22.87-2.74Z"/>
  <path class="cls-1" d="M272.37,399.7c1.53.09,1.73.1,2.77.9.09,1.41.11.91-.83,2.33-1.58,0-1.83.11-2.88-.66,0-1.45.08-1.11.94-2.57Z"/>
  <path class="cls-1" d="M282.36,399.56c1.7,0,3.35-.33,4.4,1.08l-.41,1.1c-1.41.23-2.42.57-3.72.06-.77-1.18-.54-.5-.28-2.24Z"/>
  <path class="cls-2" d="M212.54,450.37c1.49.48,1.72.62,2.45,1.9.14,1.45.11,1.38-.51,2.62-1.23-.57-1.16-.52-2.08-1.52-.47-1.37-.28-1.62.14-3Z"/>
  <path class="cls-2" d="M722.89,171.42c1.25.87,1.13.93,1.54,2.09-.13,1.37-.4,1.6-1.14,2.72-.92-.85-1.21-1-1.67-2.19.06-1.26.51-1.62,1.28-2.62Z"/>
  <path class="cls-2" d="M30.82,438.13c.87-.09,1.66.53,1.79,1.39.13.87-.45,1.68-1.31,1.85-.59.11-1.2-.11-1.58-.57-.38-.47-.48-1.11-.25-1.67.23-.56.75-.94,1.35-1.01Z"/>
  <path class="cls-2" d="M430.67,29.34c.53-.23,1.13-.16,1.59.19.46.35.69.91.61,1.48-.08.57-.46,1.05-.99,1.26-.8.31-1.71-.07-2.04-.87-.33-.8.04-1.71.83-2.06Z"/>
  <path class="cls-2" d="M676.8,0c.82-.06,1.56.52,1.68,1.34.12.82-.41,1.59-1.21,1.77-.58.13-1.18-.07-1.55-.53-.38-.45-.47-1.08-.24-1.62.23-.54.74-.91,1.33-.96Z"/>
  <path class="cls-3" d="M241.82,406.61l-.03-.04.18-.43c1.76-.55,8.17-.57,9.86-.02l-2,.31c-2.21-.06-6.25.36-8.01.19Z"/>
</svg>