<?xml version="1.0" encoding="UTF-8"?>
<svg id="Layer_1" data-name="Layer 1" xmlns="http://www.w3.org/2000/svg" viewBox="0 0 578.04 613.27">
  <defs>
    <style>
      .cls-1 {
        fill: #152314;
      }
    </style>
  </defs>
  <path class="cls-1" d="M82.54,505.77c-6.93-3.32-9.89-5.17-14.22-11.87-3.64-5.64-5.96-11.29-9.32-16.93-12.63-21.15-26.22-43.12-36.41-65.49-4.56-10-8.75-24.08-11.61-34.75-4.83-17.65-8.81-35.72-10.5-53.96-.63-6.77-.43-13.69-.46-20.46-.08-17.06,1.59-34.15,4.04-51.02,1.04-7.18,2.45-14.33,3.83-21.45.33-1.7-.83-4.02-.27-5.74,5.77-25.04,14.75-48.99,26.96-71.63,3.28-6.1,6.78-12.07,10.5-17.91,2.87-4.46,6.92-10.08,9.12-14.69,1.83-3.84,3.1-10.15,4.79-14.27,1.12-2.73,2.14-5.08,4.23-7.3,2.67-2.85,7.51-5.42,10.14-8.22,5.32-5.67,9.8-13.32,16.15-18.03,5.45-4.04,12.73-6.28,18.6-9.99,21.37-13.5,42.07-27.49,65.25-37.85,5.37-2.4,10.83-4.22,15.98-6.45,9.51-4.1,16.33-7.03,26.4-9.71C247.85-.47,279.8-1.17,312.72,1.13c9.74.66,19.88.81,29.51,2.46,25.25,4.32,48.87,13.51,72.28,23.61,12.31,5.32,25.16,10.5,36.55,17.73,9.07,5.76,17.04,13.4,25.82,19.59,6.2,3.9,13.28,6.15,18.71,11.26,2.35,2.21,3.79,4.08,5.67,6.7,1.77,2.46,3.92,5.85,6.08,7.93,4.54,4.38,9.06,7.57,12.84,12.69,5.17,7.01,6.2,14.81,9.81,22.49,2.55,4.91,7.01,11.65,9.94,16.68,6.35,10.84,12.12,22,17.29,33.44,6.35,14.11,11.42,30.24,13.85,45.53,1.14,7.18,1.64,14.63,2.55,21.86.91,7.25,2.44,14.64,3.09,21.9,2.5,29.29,1.5,58.78-2.98,87.83-2.95,19.75-6.47,33.17-13.6,51.93-5.39,14.46-11.92,28.47-19.51,41.91-5.08,8.81-11.01,17.27-15.79,26.18-5.22,9.72-7.12,20.7-15.7,28.26-3.7,3.26-6.51,5.09-11,7.11-7.36,20.47-23.6,18.75-38.56,31.06-1.35,1.11-3.45,2.45-4.91,3.45-19.92,13.6-41.04,26.26-63.7,34.76-8.78,3.28-18.13,5.7-27.08,8.42,17.48-1.12,34.29-1.31,52.07-2.72,14.17-1.13,35.69-3.82,49.14-3.68,3.7.57,7.28.3,11.08.81-11.01,1.24-22.04,2.27-33.08,3.08-3.86.31-12.32.62-15.5,1.21,3.73.67,7.98-.08,11.76.27,17.82,1.62,35.48-.57,53.27,1.43,4.84.54,11.73-.91,16.79-.68,6.06-.35,16.75-.1,22.36-1.12l-1.69,1.43c-2.54.49-4.7.35-7.23.61-24.45,2.51-49.04,3.53-73.62,3.02-2.18-.05-4.93,0-7.06-.21-.5-.16-1.2-.51-1.7-.73l.52-.71c-3.43-1.18-21.8-.24-26.1.28l-.19.29c4.62.77,10.28.13,14.18.95l.1.6c-1.34.86-2.63,1.71-4.03,2.48,6.67-.43,35.68-.72,41.04,1.71l.2.54c-5.71,2.73-14.48-1.88-19.14,1.9-6.23,2.98-20.88,2.33-27.39,3.02-12.89,1.37-29.74-2.64-41.84-1.35-21.82,2.33-44.26,3.08-65.85,5.21l-.58.18c1.45.91,8.79.5,10.59.14,16.19-.89,32.49-1.23,48.69-2.34.96-.07,2.36-.04,3.16.56-1.15,1.39-5.85,2.4-7.67,2.52-8.31.55-16.62,1.25-24.91,2.04-2.93.28-6.53.36-9.31,1l-3.78.12-1.15-1.23.52-.32c-1.12-.62-15.7-.17-17.76.05-2.47-.03-4.93-.15-7.39-.25-17.12-.7-34.23,1.14-51.35.86-3.94-.06-8.03-.62-11.99-.9l-.15-.57c5.93.18,9.97-1.99,18.14-2.04-11.75-2.24-26.58-1.82-38.61-3.02-4.76-.47-26.23,1.57-28.71-1.25,2.59-2,9.91.19,12.08-1.88l-.24-.85c-2.83-2.21-21.84.95-26.76.76-4.19.65-23.86,4.04-25.62.74.97-1.47,1.14-1.19,2.99-2.11l-2.09-.07c-1.23-.21-1.44-.02-2.22-.73l.49-.94c4.07-.2,24.3-.97,26.23-2.3-.8-4-30.68-.11-34.78-3.1l.07-.5c2.51-1.59,7.87-1.23,11.21-1.64-4.32-.48-24.32-1.76-26.61-3.61l.41-.51c2.48-.96,5.11-.86,7.79-.97,1.79.43,3.59.78,5.41,1.04,17.32,3.64,28.57,3.12,45.95,3.02,10.71-.06,21.47.73,32.45.4-12.8-3.82-25.37-8.39-37.63-13.68-15.48-6.78-30.34-14.87-44.44-24.19-8.23-5.47-16.42-11.66-24.69-17.01-5.42-3.12-11.34-4.42-16.03-8.82-4.87-4.56-8.66-10.18-11.13-16.39ZM154.49,596.56c6.37,1.13,10.51-.43,16.75-.56l2.68-.4c-1.23-.63-1.89-.62-3.18-.18-5.29.39-10.99.96-16.25,1.14ZM239.43,10.17c-9.63,2.9-19.73,4.07-29.5,6.45-14.05,3.43-27.85,8.22-40.95,14.35-15.62,7.31-30.5,16.43-44.84,25.99-6.92,4.61-13.42,10.05-20.73,14.04,1.79-2.19,3.4-4.19,5.35-6.24-5.44,3.54-12.18,9.33-17.16,13.53,4.12-1.41,9.51-2.09,13.97-3.16,1,3.25-10.89,6.62-13.81,8.89-4.31,3.36-6.68,8.31-10.41,11.38l-.32-1.14c1.13-4.79,1.44-5.13,4.57-8.98-1.37,1.05-3.62,2.77-4.54,4.11-3.33,4.84-8.17,6.62-12.11,10.66,1.9-1.02,3.84-2.16,5.86-2.87l.86.37c-.31,1.31-6.41,7.13-8.29,10.75-2.74,5.29-3.35,10.66-5.53,15.09-.58-1.48-1.23-3.03-1.69-4.55-4.09,5.32-27.26,42.77-26.98,46.29l.23-.34c2.4-3.6,12.23-22.67,15.4-23.96-.92,2.31-4.1,6.74-5.53,9.46-3.6,6.83-7.08,13.72-10.74,20.52-4.07,10.26-18.11,36.94-17.07,47.06,3.43-9.32,6.47-15.41,11.77-23.88,2.66-4.24,4.38-10.83,6.96-15.25,4.19-8.8,8.75-15.15,14.78-22.65l.29.15c-1.55,2.81-3.54,4.93-4.94,7.41-5.86,10.36-11.49,19.36-15.41,30.63,5.17-7.83,11.86-17.68,18.75-24.03l-.07.34-.33.08-.05.56c-1.75,2.48-10.48,14.07-11.28,15.7-6.49,13.32-12.09,30.14-16.14,44.48-1.09,3.86-1.73,8.38-2.65,12.25-.55,2.29-.46,6.08-1.24,7.75-1.04-1.76,3.32-21.19,4.18-24.51,3.29-12.6,7.71-24.89,13.21-36.69l-.36.44c-5.62,6.9-7.7,13.84-10.27,22.22-.5,1.63-1.69,6.18-2.38,7.47.91-8.39,4.45-13.45,5.18-20.91-5.96,6.85-6.19,14.41-9.46,22.97-7.88,29.02-12.75,60.37-11.68,90.61.17,4.76,1.41,10.39,2.06,15.21.68,4.79.61,9.86,1.54,14.6,4.89,25.08,14.65,48.67,25.4,71.69,9.44,20.22,18.8,39.25,30.91,58.07,3.6,5.6,4.49,11.12,9.47,16.25l.14.15c-.2-1.59-.48-4.14-.91-5.61-1.15-3.94-3.9-8.5-3.43-12.63l.52-.52c4.14,1.66,5,8.68,6.98,11.91,3.31,5.39,10.35,8.25,15.12,12.14,1.6-1.89,2.5-2.92,3.82-5.07-11.18-3.33-17.36-10.51-17.67-21.77-.01-.48-2.57-3.75-2.97-5.47l.34-.67c4.18-.96,6.77,7.52,7.93,10.14,2.88,6.46,9.82,10.19,16.02,12.9,2.52-1.56,5.1-3.21,7.64-4.73-9.9-2.61-22.78-9.95-17.91-22.18-1.78-1.11-5.61-2.92-3.84-5.4,1.46-.19,2.15.28,3.34,1.16,2.2,1.61,2.84,4.56,3.95,7,3.8,8.3,11.62,11.76,19.36,15.31,2.95-1.94,4.62-2.93,7.1-5.4-10.04-3.7-16.62-8.2-18.7-19.49-.15-.79-.3-1.59-.45-2.38-2.41-1.59-4.47-2.39-3.49-5.56,5.5-3.73,9.37,8.18,11.43,11.11,3.61,5.14,12.89,9.28,18.33,11.66l7.35-4.3c-5.99-3.31-13.63-6.83-15.5-13.85-.76-2.86-.97-6.63-2.16-9.08-1.07-2.21-4.15-4.05-2.9-6.66,5.71-3.06,11.95,12.23,15.07,15.78,4.27,4.87,6.99,7.3,12.88,10.06,3.44-1.87,7.32-4.1,10.84-5.72-6.88-4.53-13.9-9.33-15.7-18-.37-1.79.05-4.67.27-6.55-2.72-1.05-5-1.48-4.26-4.97,3.96-3.51,9.87,6.36,11.56,9.24,5.5,9.36,10.25,12.89,19.09,18.37,3.14-1.3,9.39-3.71,12.1-5.3-5.4-4.51-15.26-11.76-15.86-19.2-.14-1.78.13-3.01-.85-4.51-.61-.4-1.25-.77-1.86-1.17-.89-.58-1.41-1.41-1.48-2.49-.06-1.01.33-2.11,1.09-2.79.79-.71,1.68-.82,2.68-.65,8.12,1.38,19.7,38.09,40.05,26.56,1.13-.64,2.17-1.42,3.2-2.2-8.31-6.4-14.74-12.13-17.14-22.4-.78-3.32-4.96-6.97-2.52-10.82,6.19-3.25,10.28,9.94,12.53,13.78,5.25,8.96,11.68,12.43,19.59,18.49,4.41-.64,10.08-1.33,14.27-2.5-7.66-9.4-12.72-13.28-15.36-25.62-.63-2.93-2.7-3.87-2.32-8.22,1.39-2.38,4.07-1.22,5.69.37,2.45,2.4,2.31,3.32,2.5,6.43.67.5.95.69,1.73.98,2.47.9,4.13,4.66,5.33,6.91,3.47,6.53,9.27,11.69,14.39,16.94,6.19-1.38,10.64-1.97,16.97-2.45-6.74-9.15-17.16-20.89-15.85-33.38.1-.96.46-1.45,1.11-2.1,4.35-.56,8.19,8.12,10.6,11.41,5.61,7.63,9.49,16.51,14.59,24.45,6.48-3.45,11.23-2.26,18.54-1.9-5.99-9.72-9.36-15.93-10.76-27.33-.27-2.23-2.42-4.71-1.67-7.22,1.52-6.81,9.35-1.49,8.47,3.37-.08.44.13,1.83.33,2.17,4.84,7.89,9.28,15.97,13.69,24.11,1.06,1.95,2.03,4.16,3.1,6.04,4.92.67,14.29.59,19.41-.03-2.76-7.99-13.37-31.75-6.5-38.73,3.87-1.18,5.46,5.1,5.5,8.04l.02,1.37c7.06,9.41,9.71,19.77,12.69,30.94,7.92-1.23,12.41-.02,20.11,2.02-1.6-6.07-11.57-36.04-2.91-37.83,2.77,1.88,2.46,7.7,2.55,10.78,8.12,9.92,6.89,19.45,10.72,31.11,6.66.8,11.25,1.1,18.08,1.15-.42-3.74-.93-7.46-1.54-11.17-.96-5.58-2.16-10.7-2.48-16.69-.14-2.56.49-12.23,6.39-7.89,1.43,1.05.57,5.22.23,7.1,7.25,10.66,6.82,18.59,5.8,31.18,2.35.82,4.64,1.44,7.13,2.24,23.42,7.53,1.17-26.55,12.94-33.43,1.06-.62,1.25-.64,2.4-.56,3.69,2.24,2.22,6.63-.29,9.19-.77-1.38-.95-2-1.36-3.54l-.23-.13-.41.32.03-.11c-.02,2.22.53,3.1,2.18,4.52,8.57,9.4,4.8,19.63,2.88,30.57,3.6.95,13.86,3.39,16.23,1.7,3.72-2.65,2.17-24.1,2.33-27.79,1.55-2.79,3.67-6.09,7.41-4.2,1.44,2.03.65,5.88-1.31,7.05-1.12-.57-1.04-.97-1.8-2.28-.67.69-.43.27-.44,1.44,3.47,6.19,5.23,6.97,4.82,14.48-.37,6.61-1.56,10.97-3.45,17.2,3.98,1.05,7.9,2.34,11.74,3.84,2.27-3.94,3.21-6.22,4.7-11.81.88-3.3-1.16-24.54,8.01-19.37.51.29.54.76.75,1.35-.96,2.91-5.44,3.94-2.64,8.56,2.89,4.76,1.41,11.26-.25,16.55-1.16,3.8-2.87,7.4-5.07,10.7,3.13,1.41,6.97,3.27,10.16,4.37,4.6-6.36,7.83-12.81,8.99-20.61.43-2.93,3.51-13.19,7.9-8.61.07,2.58-1.21,3.1-3.06,4.67,2.9,10.44.86,19.84-5.44,28.54,2.52,1.24,3.89,1.85,5.99,3.86,8.8-9.36,6.67-12.81,9.9-23.17,1.3-2.67,3.95-5.24,7.1-4.02.29,1.38.29.66-.33,2.21-2.97,1.16-3.8.06-5.19,3.17l1.85,2.35c1.66,2.1,2.05,5.11,1.7,7.69-1.05,7.69-5.62,12.03-10.99,16.78l4.89,4.65c10.66-10.04,7.93-10.42,10.68-21.81,1.74-1.9,5.56-6.66,8.47-6.08.64,1.85-2.56,4.47-3.91,5.49,2.63,9.14.17,16.67-5.91,23.57-1.34,1.52-5.71,3.71-5.27,5.49l.31.29c.36.35.63.63.97,1,2.07-.02,7.4-3.87,8.95-5.38,5.54-5.4,5.07-11.22,6.97-17.62,1.18-1.22,2.24-2.62,3.82-3.08l.24.42c-.74,1.65-1.22,1.87-2.67,3.07.67,5.08.95,7.47.36,12.5,1.12-1.43,2.16-2.96,3.58-4.05l.39-.04c1.68-3.12,1.68-2.85-.08-5.94,9.34-13.52,17.39-29.45,25.04-44,13.34-25.35,21.68-53.15,26.53-81.3,1.35-7.8,2.85-15.87,3.61-23.74.76,1.53.55,2.69.96,4.3.55,14.02-2.36,27.49-6.03,40.91-1.28,4.69-2.35,9.2-2.76,14.06l.19.06c1.74-5.48,3.3-11.01,4.69-16.58,4.07-16.4,6.71-35.6,7.12-52.54-.31-8.25-1.34-17.47-1.61-25.64-.91-27.77-1.76-54.97-12.28-81.07-2-4.97-4.02-13.87-5.64-19.45-6.14-21.27-17.57-40.7-27.86-60.19-4.09-7.75-5.58-15.32-9.38-22.63-2.68-5.16-11.59-14.45-17.41-15.82-8.72-19.26-12.76-14.23-29.49-25.21-3.36-2.2-10.49-9.07-14.87-12.16-25.03-17.72-43.77-26.16-73.02-35.12-8.43-2.56-16.93-4.91-25.49-7.02-1.98-.48-12.21-2.53-13.45-3.12,9.31.67,22.65,3.73,31.81,6.22,2.06.54,9.55,2.97,11.01,2.88l-.12-.35c-3.41-1.07-6.81-2.16-10.2-3.29-13.14-3.74-25.11-7.64-38.66-9.67-8.86-1.33-16.01-1.14-24.7-1.68-23.53-1.44-46.74-1.47-70.12,2.03-5.95.89-15.3,2.34-21.04,4.27,6.81-.76,11.1-1.17,18.01-1.08ZM236.28,438.41c-.94,6.22.1,11.81.09,18.08,0,3.39-.52,5-.94,8.3.74-.48,1.77-3.87,2.17-4.97.47,2.02,1.79,5.85.26,7.58-2.68,3.03-6.86-1.67-8.31-3.8-4.81-7.04-4.08-17.2-1.72-24.99-7.44,1.81-11.27,3.02-18.95,2.2.24,5.6,6.49,28.89,4.11,31.78-.08.1-.19.17-.29.26-2.22-.19-3.14-2.57-4.18-4.37-11.16-5.36-8.42-14.65-9.19-24.87-5.09,2.04-9.37,3.36-14.71,4.71.29,3.38.5,5.78,1.46,9.06,1.45,4.93,9.04,17,6.26,21.53-1.63.19-.81.25-2.51-.49-1.11-1.54-.86-2.3-.58-4.28-4.11-.86-5.14.72-8.6-4.51-4.38-6.6-4.25-15.51-4.18-23.11-9.86,4.6-19.75,7.7-12.75,20.56,2.71,4.98,3.73,6.83,8.95,9.63.93,2.27,3.77,7.97.33,9.16-2.91-.71-3.5-2.85-5.4-4.01-12.56-7.67-12.84-14.9-12.65-28.38-2.82.92-9.85,3.71-11.52,6.03.09,1.24.22,1.31.74,2.47-.99.54-1.16.52-2.28.77-2.89,4.31,3.58,16.79,6.91,20.36,1.78.39,4.24.86,5.93,1.4,2.3,2.43,3.82,3.81,2.68,7.3-1.1,1.03-.45.72-2.06.83-1.66-.62-1.96-1.36-3.08-2.87-12.44-2.09-16.46-12.29-17.95-23.48l-8.45,4.81c1.23,4.67,2.23,6.58,4.86,10.57,3.37,5.13,12.33,11.95,11.64,18.37l-.55.4c-2.61-.87-2.92-1.63-4.02-4.14-12.93-3.36-15.56-7.98-19.14-20.12-6.45,4.32-8.5,4.08-3.35,11.84,3.81,5.74,13.1,11.63,15.91,17.31l-.09.6c-16.18-1.19-20.96-7.12-24.99-21.91-1.47,1.22-3.58,2.87-4.84,4.22,3.37,10.42,8.72,13.85,16.73,20.95,1.17,1.03,3.55,3.12,4.2,4.49-2.16,2.74-16.25-5.11-18.56-7.55-4.04-4.27-5.11-7.21-6.81-12.52-.79.95-1.59,1.96-2.44,2.87,4.09,16.68,20.01,19.39,21.04,23.17-1.49.91-3.95.34-5.63-.06-10.4-2.51-15.52-10.05-18.22-19.68-1.19,1.43-2.28,2.72-3.54,4.09,1.94,2.15,9.43,11.17,10.81,12.32,7.47,6.24,18.54,12.76,26.99,18.05,13.55,8.55,27.49,16.44,41.79,23.65,16.96,8.7,31.44,15.08,49.98,20.09,15.4,4.16,31.36,9.24,47.58,9.48,27.13.17,55.01.45,81.78-4.48,8.54-2.02,17-5.64,25.26-8.54,31.38-11.03,61.8-23.82,88.38-44.18,6.29-4.82,13.78-4.32,20.1-10.18,2.76-1.92,5.75-3.92,7.78-6.6-3.04,2.01-4.71,3.09-7.96,4.65-3.15,1.18-7.25,2.87-10.54,1.2.03-.77-.14-.76.52-1.23,6.02-4.29,13.08-5.68,18.06-11.57,2.62-3.09,2.71-8.23-1.42-9.88-2.65.86-1.86,2.84-2.98,5.1-4.16,8.41-9.61,10.86-18.53,11.24-1.33,1.01-2.6,2.26-4.2,2.43l-.96-.3c-1.63-7.22,18.13-8.59,23.27-20.99-1.64-3.18-2.85-4.94-5.35-7.58-3.24,9.74-11.22,20.49-22.73,17.33-1.28.85-3.22,2.48-4.58,2.47l-.77-.65c.4-5.12,21.8-12.77,22.3-21.27.29-4.94-4.3-5.95-7.4-6.73-3.57,6.28-7.28,14.01-14.75,16.29-2.62.8-6.06.61-8.43-.76l-.33,1.04c1.28,1.3,1.63-.09,2.7,1.3-.82,2.23-2.03,2.78-4.4,2.57-2.84-1.96.15-6.69,1.38-7.28,10.24-4.88,13.11-6.17,19.19-16.67-3.8-1.77-7.5-3.44-11.15-5.52-2.85,6.44-5.93,13.25-12.84,16.34-3.77,1.69-7.27.31-9.38,1.74-.83,2.69,2.81,6.41-4.34,5.12-4.36-5.28,10.1-14.66,13.19-18.07,3.06-3.38,5.75-7.11,9.05-10.24-5.51-2.77-8.09-3.29-14.25-4.14-4,7.59-7.54,15.14-16.39,18.03-1.9.62-5.77.95-6.65,1.73.8.78,1.26,1.16,1.84,2.14-.53,1.67-3.61,3.19-5.25,2.73-4.7-4.44,3.92-11.93,7.05-14.83,4.58-4.23,8.75-8.92,12.12-14.19-4.96-1.02-11.01-1.25-15.4-2.47l-2.77-3.77c-2.27,7.51-6.46,16.12-13.49,20.55-3.05,1.92-5.06.59-6.62,3.95.12,1.37.2,2.01.08,3.41-1.32,1.55-3.04,1.94-4.65.58-.65-2.22.39-5.1,1.49-6.99,4.45-7.69,12.89-15.52,16.52-23.69-3.68-1.09-11.79-4.07-15.41-1.62-4.95,3.36-2.89,15.61-18.85,23.36-1.07,2.32-1.82,5.18-4.9,4.34-5.63-6.01,10.44-24.83,13.97-31.15-3.83-.2-10.02-.43-13.8-.94-4-3.4-3.43-.79-7.34-2.77-2.3,13.34-3.71,19.02-16.1,25.74l.54.16c1.39.43,2.1.47,2.98,1.6.55,4.66-9.42,6.37-5.54-6.62,2.96-9.91,8.54-15.91,12.32-24.22-3.7-.96-11.46-2.65-15.11-1.76-1.1,2.18-.25,2.76-1.6,3.79l-.8-.26c-1.94-.62-2.54-1.03-4.48-.65-1.8,1.47-11.66,28.63-16.17,30.04-6.92-3.1,5.18-27.55,7.13-32.48-4.35-.04-17.04-.81-19.74,2.28-4.12,4.74-4.48,20.69-10.66,24.09l-.62-.2c-.36-1.35-.33-1.59-.41-2.96l-.42-.65c-1.79,3.21,2.35,5.44-.29,8.8-3.12.57-3.4-6.93-3.42-8.9-.09-8.82,1.63-16.38,5.46-24.3-3.42-.58-11.13-1.16-14.34.06l-.21.54c1.18,1.14,1.74,1.56,3.07,2.53-1.11,1.03-7.59-.67-8.16.89-1.71,4.67-1.26,29.53-4.62,31.87-2.41-.37-3.41-1.92-3.84-4.2.38-1.48.62-1.47,2.16-2.05-2.6-2.27-4-1.57-4.99-5.99-1.64-7.34-.52-14.99,1.76-22.05-6.62,1.81-13.44,3.76-20.11,5.28ZM134.92,491.64l-2.64-3.04c-1.81-2.05-7.89-12.09-8.33-12.41,1.28,5.71,4.76,13.9,10.97,15.45ZM414.67,472.04c3.39-2.15,14.47-12,13-16.28l-.23-.26c-2.41,2.57-4.64,6.37-6.85,9.31-2.23,2.96-3.84,4.18-6.15,6.73l.24.5ZM469.31,474.47c2.72-2.84,7.78-11.14,6.36-14.92-1.52,3.28-7.49,12.2-6.36,14.92ZM335.53,591.68c6.56.33,13.13.38,19.7.16,5.03-.18,11.76-.79,16.57-.34,3.69.54,15.95.53,19.59-.11-1.71-.66-15-.42-17.53-.42-10.02-4.66-27.76-1.25-38.33.7ZM494.9,502.95c3.29-1.75,7.87-5.49,9.86-8.64l-.25-.21-.45.41c-2.77,2.48-6.08,4.2-9.5,5.67-.03,1.16.24,1.63.35,2.77ZM567.96,226.63c-1.34-6.78-9.45-43.05-13.27-45.83,2.49,8.27,9.27,42.17,13.27,45.83ZM260.78,451.55c.42-3.25,1.88-14.9.24-17.31-.48,2.59-1.41,15.44-.47,17.25l.23.06ZM239.76,594.3c6.71.15,21.08,1.05,27.12.39-5.26-1.44-23.48-2.01-28.94-1.26-1.3-.09-6.1-.31-7.26-.24l-.52,1.08-1.44-.45c2.96.79,7.95.52,11.04.49ZM384.38,427.49c.2-3.87-1.05-11.37-4.17-13.87.28,2.55,2.99,11.83,4.17,13.87ZM129.85,453.65c-1.74-1.78-2.76-2.99-4.27-4.79-1.51-1.8-4.35-7.02-5.57-7.95,1.66,4.81,4.38,11.4,9.83,12.73ZM182.31,456.12c.48,1.65,1.26,4.68,1.91,6.15,1.29,3.76,1.6,4.98,4.3,8.04h.32c-1.21-3.1-3.09-5.61-4.05-8.16-.77-1.9-1.37-4.26-1.94-6.26-.23-1.78-.56-5.67-1.59-6.96l.33.63-.63.51c.16,2.53.6,3.69,1.34,6.06ZM375.38,451.61c1.66-2.81,4.07-5.93,3.8-9.02-.8-1.08-.31-.61-1.73-1.22-.77,3.99-1.48,6.45-2.69,10.36l.26.26.36-.37ZM288.01,445.76c1.16-3.02,3.74-8.87,3.45-11.82l-.54-.54c-1.49,3.89-2.62,7.91-3.38,12.01l.47.35ZM207.81,457.36c-.25-2.43-.51-6.37-1.36-8.57-.17,2.98-.06,5.53.88,8.4l.48.17ZM438.32,595.9c1.08-.02.68.04,1.69-.39-1.91-.5-3.15-.35-5.11-.3h-.54c-8.98-.09-17.96-.09-26.95,0-6.46.05-12.92.34-19.36.88,4.87.85,13.03.49,18.17.44,10.7-.07,21.39-.29,32.08-.64ZM383.5,587.01l-.03.61c1.28.65,2.2.55,3.64.6l-.08-.75c-1.28-.69-2.08-.51-3.53-.46ZM489.84,466.61c-.81,2.79-4.54,10.18-4.32,10.94,1.86-2.55,5.11-7.75,4.32-10.94ZM323.14,423.7c-.26-2.88-7.23-26.12-8.78-27.92-.79,6.35,5.77,22.17,8.78,27.92ZM290.65,422.99c-1.72-3.44-7.16-15.59-9.06-17.26,1.47,3.71,5.9,15.66,9.06,17.26ZM219.68,409.39c1.09,2.44,3.72,8.83,6.17,9.84-1.09-1.96-4.65-8.92-6.17-9.84ZM256.21,417.59c-1.16-2.44-4.39-9.47-6.72-10.69,1.26,2.45,4.65,9.18,6.72,10.69ZM163.32,423.89c1.52,2.66,3.09,5.96,5.79,7.4-1.17-1.71-4.24-6.65-5.79-7.4ZM319.25,432.84c-1.11,2.76-1.79,5.08-2.64,7.94l.26.41.27-.28c.97-2.21,2.8-5.29,3.25-7.14l-.28-.62-.87-.32ZM409.99,424.66c.24,5.57.03,11.16-.63,16.7-.13,1.12-.65,3.43-.11,4.04l.19-.11c1.19-5.75,3.76-15.36.55-20.63ZM304.36,600.07c-3.45.05-46.69,1.07-46.83,1.13,18.95,1.71,32.19,1.72,51.03-.39,5.3-.55,11.5-.71,16.98-1.14.63-.49.25-.35,1.22-.23l-.72.12-.3-.28c-4.57-.17-17.09.11-21.38.78ZM398.5,568.73c-8.19,3.17-17.17,5.49-25.44,8.66-1.94.74-7.21,2.13-8.69,3.07l.31.28c8.92-2.1,26.5-6.55,33.95-11.61l-.13-.41ZM74.51,487.43c.45,2.97,9.5,12.45,12.37,13.79,1.11-.34.6-.05,1.37-1.17l2.26-3.49c-5.49-1.44-7.85-2.14-12.28-5.9-.81-.69-3.09-2.84-3.71-3.23ZM175.34,587.88c7.89.75,15.89,2.03,23.77,2.53,4.12.26,34.09.06,35.63-.81-14.98-2.57-24.49-.66-39.28-.4-6.99.12-11.67-2.69-20.12-1.32ZM88.78,150.7c.84,1.21,1.26.87,1.91,1.65-1.33,2.01-2.63,3.5-5.23,3.17-1.34-.89-.83-.32-1.53-1.83.53-2.82,2.34-2.93,4.84-2.99Z"/>
  <path class="cls-1" d="M170.74,595.42l.5.58c-6.24.13-10.38,1.69-16.75.56,5.26-.19,10.96-.75,16.25-1.14Z"/>
  <path class="cls-1" d="M170.74,595.42c1.29-.44,1.95-.45,3.18.18l-2.68.4-.5-.58Z"/>
  <path class="cls-1" d="M171.24,596.01l2.68-.4c.32.5.74,1.01.84,1.52-4.19.65-23.86,4.04-25.62.74.97-1.47,1.14-1.19,2.99-2.11l2.37.81c6.37,1.13,10.51-.43,16.75-.56Z"/>
  <path class="cls-1" d="M429.26,144.1c-.39-6.04-1.59-15.25-5.92-19.88-2.53-2.72-8.27-6.7-6.99-11.14,4.38-4.35,16.23,8.72,18.55,12.49,3.28,5.36,3.72,10.43,4.39,16.46.96.19.89.18,1.84-.03-.43,1.12-.67,1.83-1.23,2.9-1.34-.08-1.32-.14-2.59.23,10.24,4.84,17.58,10.03,20.87,21.17.93,3.14,3.78,6.68,2.87,9.99-6.09,5.66-12.82-13.09-16.17-16.5-5.36-5.46-10.6-7.98-16.72-12.19-5.19,2-10.13,2.78-15.14,4.72,11.68,6.98,16.42,11.69,20.64,24.86.91,2.84,4.24,8.36,0,9.79-7.24-1.46-12.93-15.71-17.87-20.76-3.6-3.68-9.46-7.01-12.65-10.47-5.06,2.81-8.55,3.86-14.02,5.65,4.72,4.47,9.37,8.46,12.27,14.45,1.48,3.07,6.77,15.66,2.85,17.47-5.24-1.12-12.77-14.89-17.33-19.42-4.19-4.16-7.27-7.01-11.77-10.84-4.86.11-15.03,1.94-20.22,2.74,7.08,6.81,13.44,13.3,14.99,23.38.54,3.49,5.62,10.48-1.01,11.18-6.21-1.65-10.94-15.81-14.48-20.81-3-4.23-6.73-8.54-10.05-12.51-8.37.94-12.15,1.03-20.41,1.36l-.54.93c-.44,3.05,5.41,9.07,6.83,12.57,1.75,4.3,6.43,17.17,4.88,21.54-8.64,7.14-19.41-29.64-25.55-33.4-5.9-3.61-14.9-1.88-21.25-1.46,1.3,6.96,12.63,33.59,6.83,38.59-4.17.51-4.61-4.57-4.94-7.42-7.54-9.45-11.02-19.68-14.27-31.24-9.63.76-13.78.77-23.12-.74,2.45,9.19,5.14,18.2,6.23,27.81.38,3.33-.16,13.04-6.68,7.66-1.14-.94-1.11-3.07-.87-4.55l.42-.24,2.6,1.19.16-.2c-7.44-7.98-11.64-23.44-12-34.01-7.21-1.24-16.33-2.99-23.61-3.23.06,4.24,1.1,8.65,1.27,12.83.2,4.86,4.34,26.77-4.19,25.22-1.64-1.48-1.76-2.64-2.05-4.81.46-1.69.77-1.83,1.76-2.86.12-1.72-3.45-5.14-3.89-7.46-.97-5.13-4.43-25.36-.65-28.75,1.61-.51,2.87-.14,4.57.1,4.93-5.95,6.28-15.51,12.46-20.6,2.4-1.98,7.11-2.03,8.11-4.74.79-2.13-2.08-.87-3.05-2.67,1.3-2.09,3.11-3.75,5.61-3,5.36,5.11-9.88,29.89-13.46,35.42,4.27.45,14.12,2.44,17.71,1.73.84-.67,1.4-1.09,2.3-1.69,1.65-.03,2.2.47,3.72,1.3.08-.38.16-.76.25-1.14,3.09-13.7,5.87-20.58,17.64-28l-2.9.49c-1.28.22-1.94.56-3.06-.06l-.08-.53c1.42-2.29,7.11-5.61,9.12-2.56.11,2.38-1.06,4.2-1.66,6.61-2.58,10.39-5.76,18.46-10.22,28.1,5.33.54,12.01.09,17.45-.12,2.2-2.18,2.18-2.11,5.23-2.99,1.9-5.2,2.59-11.29,4.57-16.42.55-1.42,3.12-3.77,4.23-6.18-.95-4.15.35-7.96,5.16-8.1,3.29,1.53,2.47,5.15,2.25,8.28-.65,9.52-3.53,17.21-7.47,25.75,8.18-.25,15.18.63,23.52-.83,1.56-6.49,2.22-13.05,4.19-19.54,1.21-3.96,4.49-5,4.4-8.5-.02-.64,0-1.31-.44-1.7-1.49.45-2.98,4.35-4.64,4.94-1.6-2.35.38-9.93,5.37-8.69,7.15,4.98,4.28,27.23,2.14,34.84,4.81-.49,19.6-2.5,22.5-6.26,3.27-4.25,2.07-16.33,1.36-21.68-1.72-2.19-3.08-4.51-1.69-7.24.7-.52,1.55-1.23,2.46-.94,12.07,3.87,9.85,24.27,8.52,31.88,5.55-.83,15.74-1.34,19.88-5.03,1.28-3.09.13-13.23-.5-15.98-1.08-4.73-7.52-12.88-3.25-16.43,1.05-.26,1.42-.4,2.5-.21,2.33.42,2.24,2.66,3.51,4.31,1.51,1.97,3.44,3.7,4.86,5.8,4.66,6.94,3.2,17.41,1.65,25.08,5.06-1.02,11.26-1.93,15.83-4.29.39-.2,1.92-3.23,3.75-4.6-.02-.43-.04-.87-.06-1.3-.44-7.9-3.12-17.84-8.92-23.57-1.6-1.58-2.87-6.24-.6-7.73,3.5-.01,8.13,4.98,10.62,7.38,7.17,6.88,8.57,12.77,8.58,22.41,4.41-1.26,9.41-2.34,13.9-3.41ZM252.14,185.7c-.8-4.46-3.32-19.67-6.73-21.97,1,4.18,4.67,18.92,6.73,21.97ZM292.61,137.41c-.59.49-1.18.9-1.85,1.29-.35,1.79.63,2.42.51,2.84-.79,2.88-4.59,12.4-3.96,15.06,2.09-5.1,5.35-13.57,5.96-18.93l-.33-.43-.33.17ZM410.01,149.55c.28-3.64-.18-12.38-3.57-14.36.65,2.26,2.85,13.63,3.57,14.36ZM329.71,193.01c-1.41-6.35-3.33-14.76-9.33-18.44,1.46,3.14,7.58,16.6,9.33,18.44ZM401.56,188.25c-1.57-3.6-5.9-14.18-9.16-15.77,3.21,4.95,5.02,9.05,7.21,14.48.3.74,1.24,1.08,1.95,1.29ZM364.3,185.6c-1.04-3.7-3.61-9.97-7.03-11.86,1.28,2.35,5.41,10.41,7.03,11.86ZM382.34,148.35c.02-3.34-.54-11-3.28-13.11.71,3.21,2.06,10.41,3.28,13.11ZM226.21,149.53c1.16-1.89,5.94-9.13,5.83-10.75l-.21-.19c-1.31,1.88-6.17,8.93-5.91,10.88l.29.06ZM422.11,164.24c1.08,1.89,2.77,5.16,4.39,6.47-.9-2.26-2.13-5.27-4.39-6.47ZM364.16,190.38c.27,2.76,1.17,2.89,3.49,4.29-.11-1.56.03-2.71-.97-3.83-1.21-.51-1.19-.44-2.52-.46ZM262.13,141.52c-2.07,2.65-5.38,7.9-5.81,11.25l.18.53c1.31-2.39,5.45-9.55,5.62-11.77ZM353.65,155.51c-.78,2.38-2.23,5.35-1,7.65.78-2.2,1.67-5.32,1-7.65ZM319.12,146.39c-.52,2.64-2.45,11.38-2.01,13.52.78-3.11,2.92-10.75,2.01-13.52ZM281.86,174.1c1.12,2.98,3.03,8.09,4.88,10.66-.82-3.31-2.01-8.65-4.88-10.66Z"/>
  <path class="cls-1" d="M439.29,142.03c.96.19.89.18,1.84-.03-.43,1.12-.67,1.83-1.23,2.9-1.34-.08-1.32-.14-2.59.23-1.05.21-1.64-.16-2.64-.56-.93-1.12-.81-.53-.76-1.73,1.67-1.35,2.9-.89,5.37-.81Z"/>
  <path class="cls-1" d="M245.41,163.72c3.41,2.3,5.93,17.51,6.73,21.97-2.06-3.06-5.73-17.79-6.73-21.97Z"/>
  <path class="cls-1" d="M406.44,135.18c3.39,1.99,3.85,10.72,3.57,14.36-.72-.73-2.92-12.11-3.57-14.36Z"/>
  <path class="cls-1" d="M392.4,172.48c3.26,1.59,7.59,12.17,9.16,15.77-.71-.21-1.65-.55-1.95-1.29-2.19-5.43-4-9.53-7.21-14.48Z"/>
  <path class="cls-1" d="M357.27,173.74c3.42,1.89,5.99,8.16,7.03,11.86-1.63-1.45-5.76-9.51-7.03-11.86Z"/>
  <path class="cls-1" d="M379.05,135.24c2.74,2.11,3.31,9.77,3.28,13.11-1.22-2.7-2.57-9.9-3.28-13.11Z"/>
  <path class="cls-1" d="M231.83,138.59l.21.19c.11,1.62-4.67,8.86-5.83,10.75l-.29-.06c-.26-1.95,4.6-9,5.91-10.88Z"/>
  <path class="cls-1" d="M262.13,141.52c-.18,2.22-4.32,9.38-5.62,11.77l-.18-.53c.42-3.35,3.73-8.59,5.81-11.25Z"/>
  <path class="cls-1" d="M281.86,174.1c2.88,2,4.06,7.35,4.88,10.66-1.86-2.57-3.77-7.67-4.88-10.66Z"/>
  <path class="cls-1" d="M319.12,146.39c.91,2.78-1.23,10.41-2.01,13.52-.44-2.14,1.49-10.88,2.01-13.52Z"/>
  <path class="cls-1" d="M353.65,155.51c.66,2.33-.23,5.45-1,7.65-1.23-2.29.23-5.26,1-7.65Z"/>
  <path class="cls-1" d="M422.11,164.24c2.26,1.2,3.49,4.22,4.39,6.47-1.62-1.31-3.31-4.58-4.39-6.47Z"/>
  <path class="cls-1" d="M371.43,229.96c6.22-.51,14.07.69,19.11,5.01,12.9,11.06,7.9,31.82,8.98,46.88.37,5.14-.06,11.45-.93,16.3-2.26,12.59-11.66,18.26-23.66,19.18-7.12-.06-13.1-1.09-19.08-5.28-4.18-2.79-8.27-9.27-8.39-14.82-.38-18.5-5.07-43.23,5.88-59.51,3.3-4.91,12.8-7.11,18.11-7.75ZM374.05,301.35c2.27-1.34,3.72-2.14,4.39-4.82,1.83-7.33,2.8-42.33-1.04-48.02-1.11-1.64-2.75-1.76-4.55-2.02l-.57-.08c-1.27.56-3.95,2.11-4.22,3.64-2.69,14.91-3.09,33.19.19,47.99.46,2.08,4.03,3.05,5.8,3.3Z"/>
  <path class="cls-1" d="M111.25,231.23c4.36-.46,11.55.13,15.87.63,16.12,1.86,20.87,13.68,18.23,28.27-1.13,6.24-3.9,8.67-8.88,12.07,9.15,5.64,11.04,12.31,10.53,22.65-.41,8.19-2.09,13.62-9.38,18.23-10.7,3.89-30.13,2.86-41.91,2.76-.35-9.83-.13-20.98-.16-30.93-.21-17.65-.11-35.3.3-52.94,5.13-.2,10.27-.45,15.39-.73ZM115.44,300.63c3.12.01,7.54.33,9.95-1.99,5.84-11.25,2.86-18.34-10.09-18.91.05,6.81.17,14.12.14,20.9ZM115.26,265.77c4.2.08,6.39.36,10.24-1.52,4.21-10.27,2.07-17.71-10.19-17.5.02,6.27-.19,12.79-.05,19.02Z"/>
  <path class="cls-1" d="M243.6,231.22c2.23-.22,4.66-.03,6.72-.07,21.51-.4,32.38,10.14,27.96,32-1.28,6.33-3.53,8.29-8.72,11.83,10.8,8.39,8.64,14.67,9.23,26.95.24,5.04.96,8.88,2.26,13.71-19.79,1.94-21.63.39-21.15-18.84.19-4.8.14-7.21-2.21-11.5-3.59-2.26-5.71-2.45-9.74-2.57-.32,10.39-.23,22.82.06,33.14l-19.55.05c.8-27.53-.34-56.14.28-83.95,3.83-.49,10.74-.53,14.87-.74ZM247.93,268.41c3.94-.02,6.62.37,9.88-1.97,5.11-9.89,2.85-19.61-9.78-19.33-.26,7.1-.29,14.2-.09,21.3Z"/>
  <path class="cls-1" d="M184.42,231.66c4.56,0,8.67-.03,13.24-.26.98,3.4,1.62,7.17,2.39,10.64,5.46,24.55,10.03,49.41,16.06,73.82-6.17-.25-14.04-.02-20.34-.04-.66-3.57-1.56-9.41-2.63-12.7-.96-.64-2.68-.5-3.94-.53-3.96-.23-6.95-.2-10.92-.04l-2,13.05c-6.99.39-12.4.36-19.37-.16l11.37-53.81c2.03-9.52,4.12-20.47,6.6-29.79l9.54-.19ZM180.91,287.72l6.05.04c1.16-.08,2.49-.13,3.63-.25-.47-3.75-3.43-27.53-4.8-29.65-1.91,9.17-4.08,20.56-4.88,29.86Z"/>
  <path class="cls-1" d="M456.17,230.31c21.27-2.31,26.72,7.45,28.88,26.33-5.76.38-11.52.54-17.29.48-.77-5.62-3.5-16.42-12.17-8.97-.88.76-1.9,3.89-1.47,5.01,3.76,9.16,13.86,13.25,21.79,18.85,12.28,8.67,12.93,25.59,4.76,37.26-3.83,5.48-10.45,7.19-17,7.91-13.04.36-25.75-2.61-28.38-18.02-.41-2.43-1.31-7.37.13-9.39,2.8-1.32,12.88-1.15,16.59-1.23-.7,20.94,18.25,12.34,14.96,4.63-6.69-15.67-32.06-16.8-31.57-38.42.33-14.65,6.6-21.45,20.78-24.44Z"/>
  <path class="cls-1" d="M303.27,231.65c3.86-.01,6.48,0,10.32-.48-.28,3.3-.33,7.36-.28,10.69.29,18.76-.52,37.89.11,56.61l24.19.02c.07,3.87.57,13.07-.48,16.41-1.63,1.46-4.87,1.02-7.23,1.01-11.9.04-23.81-.07-35.71-.33-.13-15.82-.15-31.64-.05-47.46-.03-10.86-.41-25.48.27-36.2l8.86-.26Z"/>
  <path class="cls-1" d="M459.52,134.08c10.65-6.09,11.06-11.1,3.93-21.01-3.24-4.51-14.66-9.32-12.84-14.67,1.48-.92.7-.69,2.41-.74,1.85.81,2.44,2.1,3.8,3.47,2.15,2.16,4.15.1,6.98,2.11,7.68,5.45,10.71,12.35,12.56,21.29l3.23-2.42,1.37,1.09c-2.58,1.51-4.27,2.25-6.23,4.55,12.09,1.49,19.45,8.92,20.13,21.29,1.92,2.27,3.59,4.01,1.97,7.12-5.24,1.06-10.44-12.47-13.56-15.67-4.12-4.23-9.45-6.35-14.11-9.61-2.87,2.83-5.66,4.68-8.85,7.1,6.91,3.1,13.41,5.9,16.34,13.61,1.35,3.54.56,7.55,1.41,10.53,1.55-1.71-.09-3.16,1.7-3.34,2.16,1.77,2.9,5.96,1.03,8.17-5.74,1.65-9.73-12-13.18-15.16-4.73-4.32-9.9-6.87-14.77-11.11-3.25,1.91-9.11,5.42-12.92,4.24.56-1.08.8-1.78,1.23-2.9,3.15-1.4,7.09-2.52,9.28-5.01,4.81-5.99-2.08-14.63-5.86-19.34-2.01-2.51-11.72-9.19-8.73-12.29,2.13.09,12.67,6.36,14.81,8.18,7.34,6.25,8.09,11.83,8.88,20.55ZM473.82,125.7c.36-3.44-2.28-11.05-5.4-12.88,1.08,2.24,4.02,12.66,4.41,12.92l.99-.04Z"/>
  <path class="cls-1" d="M204.93,126.42c2.39-2.1,6.16-6.13,9.11-3.04,1.86,6.34-6.58,12.23-9.82,16.82-3.44,4.88-5.8,10.33-8.36,15.69,4.38.81,9.16,1.27,13.37,2.49-4.71.25-14.79-.09-19.76-.51-1.43,5.93-1.72,12.16-1.97,18.75-.11,2.74,1.43,23.68-7.83,15.06-.96-.89-.12-4.28.7-5.37.94,1.01,1.29,1.49,2.48,2.24l.61-.19c-.56-1.73-.55-1.31-2.11-2.72-6.64-9.82-3.82-20.2-1.58-30.91.07-.33-.93-2.08-1.15-2.44,1.75-2.44,7.46-.99,8.37-2.95,4.29-9.17,7.5-13.93,16.1-19.38h6.67c.5-1.91,1.04-3.82,1.61-5.72l-6.44,2.16ZM183.55,180.57l.46-.26c.07-3.08,1.14-20.81.49-22.34-2.06,8.12-3.26,14.24-.95,22.59Z"/>
  <path class="cls-1" d="M483,119.22c.4-20.54-25.78-23.03-22.47-29.39.77-.32,1.63-.45,2.43-.13,9,3.57,18.99,6.36,22.38,16.64.76,2.3,1.03,7.11,1.67,8.25,2.33-.52,6.03-6.08,7.45-8.19.19-1.16.21-2.01.91-2.93l.71.09c1.76-2,4.38-7.01,6.27-7.35,1.27,2.26-.37,5.05-1.48,7.07-1.6,2.69-2.8,4.22-4.75,6.7,12.69,2.85,17.34,7.97,20.44,20.17.31,1.22,2.02,1.88,2.23,3.98l-.38.97c-6.98,2.2-7.42-18.04-23.79-22.75-1.63,1.35-4.26,3.4-5.62,4.86,7.32,2.95,13.53,6.55,17.06,14.2,1.01,2.19,1.88,11.31,1.64,13.73l-.33.45c-4.57-2.48-4.85-9.08-7.48-12.8-3.54-4.99-8.89-8.91-14.08-11.95l-4.83,2.37-1.37-1.09,3.41-2.88Z"/>
  <path class="cls-1" d="M178.15,337.51c6.35.33,12.9-1.04,18.41,3.42,4.41,3.57.71,8.28-2.44,11.02,4.67,3.79,5.08,5.25,4.18,11.21-4.53,6.47-13.17,5.19-20.17,5.05-.12-10.23-.12-20.47.01-30.71ZM183.71,362.71c3.28.18,5.1.39,8.24-.82,2.62-7.04-3.25-6.8-8.31-6.48-.02,2.32-.11,5.02.07,7.3ZM183.81,349.95c2.6.12,4.4.21,6.94-.68.93-1.71,1.26-2.03,1.27-3.89-1.31-2.86-4.17-2.58-7.01-2.75l-.9.42c-.61,1.92-.34,4.78-.3,6.9Z"/>
  <path class="cls-1" d="M247.93,337.55c7.82-.13,23.38-1.94,22.4,10.53-.26,3.33-3.65,6.13-6.18,7.95,1.9,3.56,4.87,8.45,6.04,12.08-2.01.04-4.11,0-6.13.01-1.46-2.62-5.57-14.27-9.39-11.67-1.75,3.3-1.19,7.89-1.07,11.7l-5.74-.06c-.39-9.26-.08-21.21.08-30.54ZM253.61,351.16c3.52.16,6.57.65,9.65-1.08,3.33-8.18-3.97-7.3-9.69-7.25l.05,8.33Z"/>
  <path class="cls-1" d="M351.49,337.54c5.76-.07,17.39-1.08,20.62,4.11,3.84,6.15.56,10.96-4.39,14.19,2.19,4.05,4.47,8.07,6.25,12.31-2.42.02-4.16.18-6.51-.45-1.17-2.7-5.53-13.54-9.27-11.05-1.7,3.12-1.2,7.83-1.12,11.49h-5.72c-.07-10.21-.02-20.4.15-30.6ZM357.04,351.27c3.43.32,6.67.34,9.94-1.01,4.13-8.03-5.21-7.22-9.96-7.77,0,2.85-.05,5.95.02,8.78Z"/>
  <path class="cls-1" d="M294.5,337.17h.36c5.37-.04,7.67.8,11.38,4.46l-2.86,4.18c-4.96-3.55-10.73-4.59-14.44,1.33-1.6,2.5-2.12,5.54-1.47,8.43,1.65,7.12,11.3,9.5,13.34,5.25-.65-2.97-5.04-4.28-3.98-7.24,1.1-1.03,1.83-.96,3.25-1.15,2.16.18,4.33.32,6.49.43v13.06c-5.6,2.85-11.92,3.86-17.67.75-3.81-2.07-6.59-5.63-7.68-9.83-2.47-9.87,3.68-17.68,13.26-19.67Z"/>
  <path class="cls-1" d="M228.86,337.57l5.66-.02.14,5.85c.39,6.56,1.04,16.71-3.65,21.91-3.72,4.31-13.09,4.06-16.64-.29-5.43-6.66-4-19.36-3.68-27.5l5.76.04c-.09,5.9-2.54,25.83,7.05,25.44,7.53-.31,5.59-19.93,5.35-25.43Z"/>
  <path class="cls-1" d="M410.16,231.32c3.06.44,11.08.2,14.55.17.46,11.1,1.7,22.05-7.48,30.05-2.02,1.35-5.68,2.35-7.48.2-.02-5.16,13.73-12.1.39-13.1l.02-17.33Z"/>
  <path class="cls-1" d="M319.85,337.48c5.81.3,12.79.13,18.69.12.11,1.77.63,2.53.49,4.19-1.38,1.26-11.29.81-13.76.8l-.07,7.25c3.82-.06,7.79,0,11.63,0l-.13,5.23c-3.99-.23-7.1.07-11.07.38-.16,2.33-.06,4.87-.03,7.22,3.76-.11,11.39-1.29,13.37,2.35-.04,1.24.09,1.52-.64,2.49-4.14,1.21-13.65.6-18.48.48.22-10.01.05-20.5,0-30.52Z"/>
  <path class="cls-1" d="M391.95,337.18c4.59-.17,9.93.02,11.91,4.78-1.09,4.13-8.88-1.14-12.9,1.75-.86,4.38,12.75,8.5,13.67,14.7.87,5.9-1.97,8.01-7.33,9.75-3.61.42-10.28.39-12.01-3.58.32-1.51.31-1.48,1.05-2.84,4.23-2.35,8.9,4.84,12.29-.59.1-3.69-8.18-7.18-10.98-10.1-6.02-6.3-2.42-10.98,4.3-13.85Z"/>
  <path class="cls-1" d="M547.66,368.98h1.25c-1.4,10.16-3.13,18.74-5.96,28.56-1.2,4.17-5.23,15.12-5.84,18.62l-.9,1.42c-2.3,4.7-2.99,7.06-3.51,12.35h-.81c-.21-.07-.04-.03-.68-.01-2.48,5.83-3.9,9.11-5.05,15.33.03-4.1-.25-8.19-.82-12.25-.4-2.98-3.88-21.24-3.69-22.17,1.74,3.35,5.07,23.12,5.37,27.61,4.77-13.99,3.94-14.14,1.24-29.52-.11-.65-.18-.18.13-.96.8,1.13,3.34,14.77,3.8,17.11,1.42-6.61,4.23-10.95,2.53-17.86-.34-1.36-.21-3.72-.14-5.17.7,2.99,1.19,5.68,1.72,8.71,5.82-12.65,8.26-28.24,11.36-41.76Z"/>
  <path class="cls-1" d="M494.45,106.39c-3.67-2.85-4.92-8.12-8.54-11.78-3.56-3.6-16.2-6.97-16.46-11.9l.65-.26c2.98.67,4.91,2.48,7.42,3.31,8.93,2.97,17.42,6.66,17.83,17.7-.7.92-.71,1.78-.91,2.93Z"/>
  <path class="cls-1" d="M396.27,52.1c2.22-1.05,4.47-2.24,6.85-2.76l-.68.21.03.56c-1.94,1.17-3.47,1.97-5.47,2.97,1.39,1.61,4.09,5.31,5.52,6.53,1.19.02.99-.17,1.85.34-.49.61-.97,1.23-1.43,1.85.32,1.02.27.65.25,1.75l-.78.4c.02-1.03.06-.53-.12-1.51l-.87-.44c-1.82.13-2.91.75-4.57,1.48,1,1.4,1.99,2.61,2.66,4.2-.85-.83-2.3-2.25-3.16-3.07-.78-.75-.21.64-1.75-.7.23-.72.05-.32.58-1.21-.86-2.2-2.83-4.59-4.26-6.56l-8.28,4.37c-7.15,3.67-12.69,6.92-19.51,11.14,5.1-4.91,20.21-12.92,27.02-16.73-.89-1.38-2.04-2.89-2.36-4.45,1.12.59,2.51,2.89,3.32,4.04l4.29-2.01c-1.5-1.48-2.1-2.03-3.24-3.78,1.72.65,2.84,2.06,4.13,3.39ZM391.83,55.6c1.43,2.24,2.89,4.73,4.67,6.69l1.08.24,3.8-2.09c-1.32-1.92-3.59-5.66-5.6-6.66l-3.96,1.82Z"/>
  <path class="cls-1" d="M26.96,379.21c1.18,1.22,8.38,23.05,10.49,27.62,5.45,11.81,10.83,23.27,17.85,34.41,2.68,4.25,5.62,7.85,8.35,11.92-1.72-1.16-6.14-6.47-7.39-8.21-13.23-18.51-24.51-43.6-29.31-65.74Z"/>
  <path class="cls-1" d="M500.85,103.27c10.26-1.54,20.4,9.35,19.23,19.82-3.71.58-4.88-7.56-7.02-10.39-2.91-3.84-10.29-5.96-12.21-9.44Z"/>
  <path class="cls-1" d="M559.84,321.23c.53,3.41-.19,9.93-.59,13.56-1.99,17.83-5.2,37.89-11.79,54.62-.59-1.73,3.05-14.18,3.71-16.62,3.35-12.38,5.02-25.2,6.97-37.86.68-4.45.87-9.53,1.69-13.7Z"/>
  <path class="cls-1" d="M533.64,172.87c3.47,2.65,12.13,24.87,13.83,30.42,2.96,9.64,7.33,21.99,8.44,32.03-1.68-3.85-4.05-15.96-6.03-21.53-4.91-13.83-10.16-27.57-16.24-40.92Z"/>
  <path class="cls-1" d="M181.74,36.42l.24.11c-.55.96-8.19,4.73-9.94,5.71-12.89,7.19-24.58,14.59-35.73,24.25l-.26-.55c13-13.4,28.89-21.98,45.69-29.52Z"/>
  <path class="cls-1" d="M487.56,80.38c3.73,2.06,13.04,9.98,10.81,14.68l-.65.16c-4.79-3.79-4.07-8-12.58-11.73.64-1.78.9-1.85,2.42-3.11Z"/>
  <path class="cls-1" d="M17.78,283.48c.44-16.2,5.21-39.51,10.7-54.71l.42-.09c.03,2.84-2.74,10.39-3.6,13.71-3.72,14.44-6.54,30.03-6.7,44.97l-.74.09-.09-3.96Z"/>
  <path class="cls-1" d="M534.86,204.8c6.13.74,6.38,4.85,2.64,8.88-6.25.24-4.93-5.31-2.64-8.88Z"/>
  <path class="cls-1" d="M28.41,284.79l.41.55c-3.05,16.16-.2,32.44,1.72,48.68-1.25-1.89-1.81-6.54-2.05-8.85-1.37-12.84-3.61-27.8-.07-40.38Z"/>
  <path class="cls-1" d="M485.14,83.5c-2.58-1.1-9.68-3.57-9.62-6.55l.74-.63c2.81-.61,8.28,2.67,11.31,4.06-1.53,1.26-1.78,1.33-2.42,3.11Z"/>
  <path class="cls-1" d="M470.76,387.37c3.92,2.61,2.23,9.66-2.17,10.87-1.29-1.6-1.41-1.23-1.58-2.93-.11.02-.21.03-.32.05l1.65-.19.34-.91c-1.11-5.7.42-1.7,2.07-6.9Z"/>
  <path class="cls-1" d="M509.7,420.03c3.64,8.88,5.15,20.27,6.2,29.75l-1-.67c-1.15-9.33-3.81-19.08-5.2-29.08Z"/>
  <path class="cls-1" d="M23.61,284.78l.68,2.03c-1.18,11.82.71,23.19.29,34.12-1.93-6.3-1.79-29.05-.97-36.15Z"/>
  <path class="cls-1" d="M474.73,368.07c3.35,2.9,10.97,23.69,12.57,28.81-1.24-.93-11.48-25.66-12.57-28.81Z"/>
  <path class="cls-1" d="M520.66,446.55c-.73-5.37-1.61-10.73-2.64-16.05-.83-4.31-2.16-8.02-2.2-12.53l.34.21c2.44,6.58,4.29,19.73,5.23,26.7l-.73,1.67Z"/>
  <path class="cls-1" d="M44.79,405.9c5.09,1.71,6.57,6.71,6.59,11.62-.91-1.13-2.26-4.15-2.96-5.6-1.54-.69-1.83-.81-3.16-1.81-.86-1.45-.58-2.42-.48-4.21Z"/>
  <path class="cls-1" d="M74.74,407.7c4.12,2.03.83,5.74-1.8,7.24-1.43-.95-1.82-1.28-2.1-2.89.91-1.69,2.4-1.86,3.9-4.35Z"/>
  <path class="cls-1" d="M80.12,207.75c.43,1.89-6.89,17.67-8.15,20.53-.78-3.11,6.31-16.97,8.15-20.53Z"/>
  <path class="cls-1" d="M548.11,255.79c.75-.49,1.7-.54,2.5-.13.79.42,1.3,1.23,1.32,2.12.02.89-.44,1.73-1.22,2.18-1.15.67-2.63.31-3.33-.82-.71-1.13-.38-2.62.73-3.35Z"/>
  <path class="cls-1" d="M56.29,302.83c3.64.51,4.72,1.91,3.44,5.44-3.46.22-3.98-2.78-3.44-5.44Z"/>
  <path class="cls-1" d="M432.42,75.81c1.67.34,2.35.62,3.21,2.1.25,1.65.12,1.76-.56,3.36-1.78-.12-2.29-.26-3.29-1.61-.27-1.66.08-2.19.65-3.85Z"/>
  <path class="cls-1" d="M483.64,191.83c4.04.56,4.1,2.7,3.08,6.07-3.11-2-3.91-2.44-3.08-6.07Z"/>
  <path class="cls-1" d="M76.77,223.44c.6,1.5-3.69,14.83-4.04,19.39-1.35-5.13,2.27-14.44,4.04-19.39Z"/>
  <path class="cls-1" d="M83.06,386.42c1.89,3.55,3.25,3.85,5.53,6.33l-.41.29c-2.61-1.01-7.33-6.18-7.6-9l.89-.11,1.58,2.49Z"/>
  <path class="cls-1" d="M64.78,131.01c2.63,1.58-.27,4.36-1.66,5.68-2.05-2.01.14-4.01,1.66-5.68Z"/>
  <path class="cls-1" d="M23.61,284.78c.58-6.33,1.53-11.04,2.24-16.87.07.12-1.39,17.2-1.56,18.9l-.68-2.03Z"/>
  <path class="cls-1" d="M547.66,368.98c.4-1.89,2.39-12.15,2.85-13.07l-.02-.22c.07-.18-1.41,12.09-1.58,13.29h-1.25Z"/>
  <path class="cls-1" d="M190.23,52.76c.91-.08,1.73.55,1.88,1.45.15.9-.43,1.77-1.32,1.97-.63.15-1.29-.07-1.72-.57-.42-.49-.53-1.18-.29-1.78.24-.6.8-1.02,1.45-1.08Z"/>
  <path class="cls-1" d="M92.87,385.98c1.89-.03,2.1-.1,3.81.57,1.06,1.22.83.54.86,2.04-1.74.15-1.67.17-3.34-.32-1.3-1.21-.84-.5-1.33-2.28Z"/>
  <path class="cls-1" d="M488.91,374.55c2.27,1.19,2.62,2.46,2.88,4.89-1.01.15-.97.18-1.97,0l-.57-.85c-.05-1.48-.16-2.58-.33-4.05Z"/>
  <path class="cls-1" d="M41.52,405.69l.61.5c.94,2.46,2.17,6.24,2.29,8.85-1.3-2.36-3.56-6.69-2.9-9.35Z"/>
  <path class="cls-1" d="M500.11,351.83c1.02,2.19-.21,3.99-1.64,5.55-1.16-2.89-.45-3.63,1.64-5.55Z"/>
  <path class="cls-1" d="M514.9,449.11l1,.67c.25,1.97.38,4.72.52,6.76l-.63.31.1.42.51.05-.09.55-.28-.09c-.85-2.71-.93-5.82-1.13-8.68Z"/>
  <path class="cls-1" d="M484.82,375c2.22,1.22,2.72,4.67,3.33,7.01-2.36-1.6-2.83-4.39-3.33-7.01Z"/>
  <path class="cls-1" d="M536.22,417.58l.9-1.42c1.01,4.5,1.03,5.91.41,10.4-.37-3.15-.75-5.86-1.3-8.98Z"/>
  <path class="cls-1" d="M230.3,77.19c.12.08.23.17.35.25,1.45,2.7,1.35,1.13,4.41.84l.04.56-.39.2c-1.66.84-2.6,1.42-4.33.86-.63-1.27-.39-.99-.08-2.72Z"/>
  <path class="cls-1" d="M18.44,296.87c.13,1.8.48,5.52.39,7.15l-.62.38.58.04-.29.77-.19-.36.42-.1.06-.46-.66-.23c-.26-2.5-.34-4.07-.36-6.58l.65-.6Z"/>
  <path class="cls-1" d="M81.48,383.93c.97-.8.63-.31,1.03-1.54,1.11.78,1.52,1.74,1.53,3.1l-.97.93-1.58-2.49Z"/>
  <path class="cls-1" d="M479.6,196.1c1.58,1.02,2.6,3.44,3.53,5.18-2.81-1.09-2.88-2.47-3.53-5.18Z"/>
  <path class="cls-1" d="M531.9,429.93h.81c0,1.79.54,3.42-.13,4.87l.07-.52-.46.04c-.61-1.7-.4-2.53-.28-4.39Z"/>
  <path class="cls-1" d="M17.79,297.47c-.7-2.58-.35-11.17,0-13.99l.09,3.96c0,2.65.15,7.55-.09,10.03Z"/>
  <path class="cls-1" d="M18.61,287.36c-.19,3.15-.49,6.38-.17,9.51l-.65.6c.24-2.48.09-7.37.09-10.03l.74-.09Z"/>
  <path class="cls-1" d="M521.39,444.88c.26,2.32.54,3.83.27,6.17l-.3.22c-.44-1.73-.52-2.95-.69-4.72l.73-1.67Z"/>
  <path class="cls-1" d="M181.35,185.66c1.56,1.41,1.55.99,2.11,2.72l-.61.19c-1.19-.75-1.55-1.23-2.48-2.24l.99-.67Z"/>
  <path class="cls-1" d="M25.18,299.15c1.09,1.48.56,3.67.33,5.5-.91-2-.64-3.37-.33-5.5Z"/>
  <path class="cls-1" d="M548.24,378.34l.6.18c-.33,2.23-.6,2.93-1.39,5.07-.23-1.13.49-3.99.79-5.25Z"/>
  <path class="cls-1" d="M182.65,551.73c2.41,2.36,10.2,7.24,13.5,7.03l1.23-.83c1.73,2.19,3.31,3.06,5.99,3.88l.62-.22c-.48-1.26-.25-.8-1.27-1.83l.89-.51c2.17,2.27,9.26,7.39,12.41,6.21-.36-.87-.42-.7-1.26-1.42l.83-.54c6.37,5.99,14.91,6.55,23.04,7.72,2.38.34,6.96,2.92,10.05,3.52,14.59,2.85,31.2,4.27,46.02,3.84,1.21-.03,2.43-.09,3.64-.16l.25.91c-18.47,3.44-41.17-.66-59.12-4.69-1.7-.38-9.78-2.51-10.65-2.13l1.61,1.78c-2.24.34-7.23-3.33-10-4.31-3.52-1.24-4.52-.92-7.81-1.52-.65-.12-5.88-2.44-7.42-3.01l.04.34-.44,1.23c-5.99-4.63-6.93-5.78-14.39-7.78l-.11.8-.93.53c-3.43-3.11-5.48-4.28-9.59-6.42l.9-1.37,1.12-.1.83-.95Z"/>
  <path class="cls-1" d="M200.78,509.18c6.13-4.21,16.42-11.24,23.29-13.68.07-.14-20.15,13.3-21.88,14.52,2.78,1.87,7.59,5.72,10.24,6.96l.06,1.2c-1.26.59-3.53,1.62-4.62,2.41-1.22.89-2.56,3.07-3.9,3.83-1.16-3.29,5.15-5.67,7.47-6.74-2.63-2-7.53-5.11-10.37-6.74-4.64,3.74-16.32,13.1-21.34,15.69,3.19-3.46,16.17-13.71,20.32-16.75-3.32-2.94-4.95-4.48-9.2-5.82l-.76-.24.2-.41c3.66-.11,7.7,3.56,10.49,5.77Z"/>
  <path class="cls-1" d="M438.45,537.21l.05.34c-1.27,1.52-5.67,3.95-7.47,5.03-14.69,8.74-27.85,14.35-43.77,20.21l-.08-.34c1.02-1.02,27.55-12.94,31.09-14.67,6.84-3.31,13.57-6.84,20.18-10.58Z"/>
  <path class="cls-1" d="M153.16,540.64c.75.9,4.91,5.48,5.09,6-1.07-.07-6.15-5.79-7.68-6.94-5.44-4.05-11.62-7.68-17.38-11.2l.12-.32c3.64.79,13.47,7.02,17.12,9.26l.34-.29c-.91-1.47-2.68-3.36-2.72-4.64,2.92,1.33,6.69,10.01,12.37,9.42l-1.41,2.12c-1.85-.78-4.1-2.31-5.85-3.4Z"/>
  <path class="cls-1" d="M230.25,566.95c-3.16-2.31-7.95-6.25-9.89-9.6,8.39,7.77,17.62,13.87,29.5,13.7l.45.31c-1.07.57-1.09.29-1.31,1.02-4.71,0-17.82-3.47-22.14-5.78-1.03-.55-.91-.4-1.84.02l-.35-.25.53-.55c1.74-.21,3.34.55,5.06,1.13Z"/>
  <path class="cls-1" d="M187.63,551.19c1.06.87,2.99,2.75,4.17,2.95-1.75-3.29-9.16-10.07-12.16-15.35,5.29,5.17,13.07,13.55,17.74,19.13l-1.23.83c-.78-1.76-1.73-2.49-3.31-3.1l.74.73c-3.41-1.31-3.65-2.25-5.95-5.2Z"/>
  <path class="cls-1" d="M166.5,545.96c-.76-.91-2.79-3.23-3.35-4.1l.28-.35-.87-.77c2.09,1.69,4.28,3.82,6.24,5.33l-1.97,2.22c-1.94-.98-1.7-1.23-3.59-1.16l-.22.14c-1.54-.48-2.82-2.05-4.02-3.24l1.41-2.12c1.98,1.39,4.05,2.71,6.08,4.04Z"/>
  <path class="cls-1" d="M168.81,546.07c2.62,2.03,6.51,4.74,9.76,5.57l-1.45,1.46-2.29-.61.19.45-1.06.83c-2.37-2.24-4.37-3.77-7.12-5.48l1.97-2.22Z"/>
  <path class="cls-1" d="M248.32,569.2c7.94,2.94,10.82,3.12,19.38,3.62l.78.76-7.91.1c-3.71-.02-7.96-.43-11.56-1.3.23-.72.24-.44,1.31-1.02l-.45-.31-1.82-1.09.29-.76Z"/>
  <path class="cls-1" d="M314.05,522.43c2.24.69,4.01.95,5.19,2.94.28,1.59,0,1.9-.65,3.36-2.68-.05-4.79.05-5.87-2.69.12-1.8.37-2,1.33-3.61Z"/>
  <path class="cls-1" d="M427.39,539.62l.38.57c-3.68,2.12-18.96,11.16-22.01,11.35l-.4.28c1.7-2.07,18.72-10.58,22.03-12.2Z"/>
  <path class="cls-1" d="M421.47,535.06l.21.1.05.51c-5.43,4.29-12.28,7.22-18.56,10.13l-.25-.19c.38-.66,16.3-9.26,18.54-10.55Z"/>
  <path class="cls-1" d="M380.69,522.45c.65.14.84.29,1.45.57,1.18,2.54-.5,3.98-2.49,5.4-1.5-1.06-2.06-1.4-1.96-3.33.92-1.53,1.42-1.67,3-2.64Z"/>
  <path class="cls-1" d="M181.82,552.67c-3.44-4.78-7.76-8.09-11.22-13.09l-.07-.77-.25.26-.15-.32c.31-.04.2-.09.37.03l-.35-.13.3.66.51-.14c3.69,3.38,8.35,8.79,11.7,12.56l-.83.95Z"/>
  <path class="cls-1" d="M349.17,556.43c1.27-.26,2.5.54,2.8,1.8.29,1.26-.46,2.52-1.71,2.85-.84.23-1.74-.02-2.34-.65-.6-.63-.82-1.54-.56-2.37.26-.83.95-1.45,1.81-1.63Z"/>
  <path class="cls-1" d="M214.76,564.04c-4.24-3.76-8.12-6.44-11.79-10.82.19.18.39.36.58.54l.23-.21c3.54,2.54,8.62,6.98,11.81,9.94l-.83.54Z"/>
  <path class="cls-1" d="M175.02,552.94c3.41,5.7,9.65,8.64,13.45,13.23-3.38-1.03-11.67-9.5-14.51-12.4l1.06-.83Z"/>
  <path class="cls-1" d="M202.73,559.76h-.85c-.66-1.6-5.64-5.72-7.39-9,1.83,1.21,7.27,6.69,9.13,8.49l-.89.51Z"/>
  <path class="cls-1" d="M212.43,516.98c2.97-1.65,5.91-3.42,9.11-4.51-1.84,1.38-5.88,3.61-7.19,4.94.67,1.14.77,1.16,1.73,2.1l-3.59-1.32-.06-1.2Z"/>
  <path class="cls-1" d="M190.31,560.02c1.68,1.54,4.23,3.8,5.37,5.67-1.61-.04-5.07-3.88-6.3-5.13l.93-.53Z"/>
  <path class="cls-1" d="M275.25,573.27c1.17,0,2.16-.13,3.16.42-.94.65-15.77.32-17.85-.03l7.91-.1c2.7.05,4.1.13,6.78-.3Z"/>
  <path class="cls-1" d="M205.25,565.77c1.6,1.56,5.65,4.14,6.46,5.46-2.53-1.32-4.76-2.32-6.9-4.23l.44-1.23Z"/>
  <path class="cls-1" d="M375.92,537.85c.39-.4.97-.55,1.5-.41.54.15.95.58,1.08,1.12.13.54-.05,1.11-.46,1.49-.61.56-1.56.53-2.13-.07-.58-.6-.57-1.54,0-2.13Z"/>
  <path class="cls-1" d="M298.33,578.41c2.65-.41,5.53-.35,8.23-.36-3.84,1.02-4.66.7-7.97,1.26l-.25-.91Z"/>
  <path class="cls-1" d="M248.03,569.96c-1.09-.5-4.09-1.65-4.46-2.74l.69.82-.06-.73c1.2.37,2.94,1.32,4.12,1.9l-.29.76Z"/>
  <path class="cls-1" d="M178.57,551.64c.43.22,1.81.9,2.13,1.13l-.9,1.37-2.68-1.03,1.45-1.46Z"/>
  <path class="cls-1" d="M267.69,572.82c2.51.18,5.04.39,7.55.45-2.67.44-4.07.35-6.78.3l-.78-.76Z"/>
  <path class="cls-1" d="M84.99,100.86c4.92-16.07,15.31-15.07,28.3-20.34-6.92,11.36-17.91,6.45-24.92,23.5,1.42,2.85,2.08,4.25,3.96,6.78,4.76-14.83,11.68-14.74,24-19.31l.4-.5c1.06-1.32,1.36-2.02,2.91-2.44l.91.27c.27,1.04.33,1.31-.36,2.53-4.11,7.2-12.03,5.57-17.31,12.44-3.02,3.94-3.51,5.94-5.47,10.38,1.96,1.66,4.03,3.33,5.83,5.15,2.48-8.33,5.45-14.37,13.36-18.64,3.81-2.06,6.91-2.16,10.55-.05,1.4-1.63,2.65-3.47,4.54-4.29l.94.11c.91,2.03-.77,5.1-1.81,6.96-11.6,5.42-16.38,7.76-22.99,19.48,5.07,1.85,8.64,2.15,12.68,5.84,4.3-14.84,9.99-18.45,24.38-21.5l.07-.52c.25-1.65.18-2.03,1.16-3.26,1.36-.67.69-.63,2.07-.23,4.5,6.06-9.59,12.42-13.03,15.92-2.44,2.48-8.41,9.61-8,13.15,3.96,2.09,7.74.19,12.43,3.71,5.1-11.97,9.89-16.12,22.11-19.83.88-2.51,1.45-5.51,4.77-5.13,2.54,3.61-2.41,9.01-5.49,10.63-8.84,4.64-11.68,9.93-15.67,18.69,2.3.58,5.35,1.33,7.51,2.2,3.8,1.54,3.31.59,6.49.12.62.54,1.17,1.01,1.81,1.51,2.3-2.94,4.5-8.94,6.29-11.25,2.71-3.52,9.57-7.85,13.1-10.52,2.02-1.53,5.51-5.67,7.37-6.42,2.77,1.16.97,5.61.07,7.61-2.15,4.76-7.03,7.76-10.02,11.95-3.39,4.55-5.53,8.97-8.17,13.96,3.42,1.52,5.38,2.46,8.47,4.61-7.32-.17-9.38-1.14-15.98-4.25-1.33,4.2-2.97,8.77-3.55,13.11-.73,5.47,1.79,22.99-7.55,22.87-3.25-2.52-1.25-5.83.41-8.66-3.42-10.6-2.7-18.96,2.44-28.98.37-.72.76-1.44,1.15-2.15-5.57-1-9.65-2.01-14.96-3.76-5.04-1.66-7.44,13.98-7.71,16.74-.31,3.43-.5,6.88-.56,10.32-1.54,2.29-4.48,8.02-7.72,5.88-.77-2.62.51-4.35,2.57-5.66-.53-2.26-2.14-4.21-2.34-5.48-1.54-10.05,3.15-19.05,7.92-27.22-6.47-.41-8.93.2-14.18-3.84-6.4,10.07-7.93,14.38-7.91,26.31-1.7,1.89-5.02,6.55-7.39,6.62-2.08-2.2-.28-4.57,2.44-5.32.28-1.37-.62-2.39-1.05-3.72-3.2-9.98,2.71-20.14,8.22-27.49-3.69-1.61-5.37-2.44-8.68-4.54l-.28.39c-1.71,2.29-4.64,4.82-5.76,6.68-3.69,6.12-3.53,14.56-7.1,20.41-.65-.78-1.08-.44-1.91-1.65-.42-1.26-.85-2.57-1.18-3.86-2.4-9.25,2.41-22.6,12.43-25.01-2.91-2.76-4.69-4.02-8.11-6-8.3,4.18-8.18,11.77-11.45,19.44-1.39,3.25-4.12,11.33-8.9,9.25-.53-1.29-.48-.63-.08-2.03.96-1.25,1.58-1.33,3.13-1.98l.56-.23c-1.37-5.87-2.19-11.44.05-17.25,2.94-7.64,6.85-8.38,13.11-11.19-1.58-1.76-3.11-3.84-4.56-5.72-18.1,11.24-12.89,23.16-15.88,25.81l-.93-.19c-2.51-3.35-1.81-11.64-.34-15.42,2.97-7.65,8.62-9.98,15.52-12.95-.91-1.7-2.45-4.34-3.67-5.78-.54-1.51-.76-1.88-.3-3.19,1.41-.57,1.11-.36,2.85-.13l.32,1.14,3.64,5.46ZM165.26,146.75c3.36-6.76,7.34-14.91,14.23-18.77,2.25-1.27,5.06-.72,5.95-3.46l-.23-.52-.9.04c-8.2,4.93-12.75,8.03-17.23,16.98-.97,1.95-1.93,3.44-2.5,5.63l.47.31.2-.2ZM154.17,171.13c.19-.7,2.28-15,2.26-15.17-2.55,5.39-4.16,9.19-2.26,15.17ZM79.38,124.28c.94-1.32,2.03-2.63,2.49-4.16l-.13-.57c-1.43,1.59-1.8,1.83-2.51,3.77l.14.95Z"/>
  <path class="cls-1" d="M184.31,124.04l.9-.04.23.52c-.89,2.74-3.7,2.2-5.95,3.46-6.89,3.87-10.86,12.01-14.23,18.77l-.2.2-.47-.31c.57-2.19,1.52-3.68,2.5-5.63,4.47-8.96,9.03-12.05,17.23-16.98Z"/>
  <path class="cls-1" d="M81.74,119.56l.13.57c-.46,1.53-1.55,2.83-2.49,4.16l-.14-.95c.71-1.95,1.08-2.18,2.51-3.77Z"/>
  <path class="cls-1" d="M15.48,217.87c3.43-9.32,6.47-15.41,11.77-23.88,2.66-4.24,4.38-10.83,6.96-15.25,4.19-8.8,8.75-15.15,14.78-22.65l.29.15c-1.55,2.81-3.54,4.93-4.94,7.41-5.86,10.36-11.49,19.36-15.41,30.63,5.17-7.83,11.86-17.68,18.75-24.03l-.07.34-.33.08-.05.56c-1.75,2.48-10.48,14.07-11.28,15.7-6.49,13.32-12.09,30.14-16.14,44.48-1.09,3.86-1.73,8.38-2.65,12.25-.55,2.29-.46,6.08-1.24,7.75-1.04-1.76,3.32-21.19,4.18-24.51,3.29-12.6,7.71-24.89,13.21-36.69l-.36.44c-5.62,6.9-7.7,13.84-10.27,22.22-.5,1.63-1.69,6.18-2.38,7.47.91-8.39,4.45-13.45,5.18-20.91-5.96,6.85-6.19,14.41-9.46,22.97-.8-1.56-1.19-2.81-.52-4.52Z"/>
  <path class="cls-1" d="M175.34,587.88c8.46-1.37,13.13,1.44,20.12,1.32,14.79-.26,24.29-2.17,39.28.4-1.55.86-31.51,1.07-35.63.81-7.88-.5-15.88-1.78-23.77-2.53Z"/>
  <path class="cls-1" d="M74.51,487.43c.63.39,2.91,2.54,3.71,3.23,4.44,3.77,6.79,4.46,12.28,5.9l-2.26,3.49c-.77,1.11-.26.83-1.37,1.17-2.86-1.34-11.92-10.81-12.37-13.79Z"/>
  <path class="cls-1" d="M33.18,165.14l.23-.34c2.4-3.6,12.23-22.67,15.4-23.96-.92,2.31-4.1,6.74-5.53,9.46-3.6,6.83-7.08,13.72-10.74,20.52-.54-1.11-.63-1.09-.68-2.3.72-1.33,1.02-1.89,1.32-3.37Z"/>
  <path class="cls-1" d="M398.5,568.73l.13.41c-7.45,5.05-25.02,9.51-33.95,11.61l-.31-.28c1.48-.94,6.75-2.33,8.69-3.07,8.27-3.17,17.25-5.49,25.44-8.66Z"/>
  <path class="cls-1" d="M314.36,395.78c1.55,1.8,8.52,25.04,8.78,27.92-3.01-5.74-9.57-21.57-8.78-27.92Z"/>
  <path class="cls-1" d="M434.37,595.22h.54s3.42.68,3.42.68c-10.69.36-21.39.57-32.08.64-5.14.05-13.31.41-18.17-.44,6.44-.54,12.9-.83,19.36-.88,4.28.49,23.15.74,26.95,0Z"/>
  <path class="cls-1" d="M237.94,593.43c5.46-.75,23.68-.17,28.94,1.26-6.04.67-20.41-.24-27.12-.39l-1.82-.88Z"/>
  <path class="cls-1" d="M427.43,455.51l.23.26c1.47,4.28-9.6,14.13-13,16.28l-.24-.5c2.31-2.55,3.93-3.77,6.15-6.73,2.21-2.94,4.44-6.75,6.85-9.31Z"/>
  <path class="cls-1" d="M68.95,100.06c3.94-4.05,8.77-5.82,12.11-10.66.92-1.34,3.17-3.07,4.54-4.11-3.13,3.85-3.45,4.18-4.57,8.98-1.74-.23-1.43-.44-2.85.13-.46,1.31-.24,1.68.3,3.19l-.65.36-1.8-1.42-.89.11-.32.55c-2.01.71-3.96,1.86-5.86,2.87Z"/>
  <path class="cls-1" d="M475.66,459.55c1.42,3.78-3.64,12.07-6.36,14.92-1.13-2.72,4.84-11.64,6.36-14.92Z"/>
  <path class="cls-1" d="M123.95,476.19c.44.32,6.52,10.36,8.33,12.41l2.64,3.04c-6.2-1.55-9.69-9.74-10.97-15.45Z"/>
  <path class="cls-1" d="M90.69,152.35c-1.33,2.01-2.63,3.5-5.23,3.17-1.34-.89-.83-.32-1.53-1.83.53-2.82,2.34-2.93,4.84-2.99.84,1.21,1.26.87,1.91,1.65Z"/>
  <path class="cls-1" d="M488.65,456.42c1.3-2.67,3.95-5.24,7.1-4.02.29,1.38.29.66-.33,2.21-2.97,1.16-3.8.06-5.19,3.17l-1.58-1.36Z"/>
  <path class="cls-1" d="M504.51,494.1l.25.21c-1.98,3.15-6.57,6.89-9.86,8.64-.1-1.13-.38-1.6-.35-2.77,3.42-1.46,6.73-3.18,9.5-5.67l.45-.41Z"/>
  <path class="cls-1" d="M261.01,434.23c1.64,2.42.19,14.07-.24,17.31l-.23-.06c-.94-1.81,0-14.66.47-17.25Z"/>
  <path class="cls-1" d="M304.36,600.07c4.29-.67,16.81-.96,21.38-.78l.3.28.72-.12c-.97-.12-.58-.26-1.22.23-5.49.43-11.68.59-16.98,1.14-.98-.65-2.91-.64-4.2-.75Z"/>
  <path class="cls-1" d="M281.6,405.73c1.9,1.67,7.34,13.82,9.06,17.26-3.16-1.6-7.58-13.55-9.06-17.26Z"/>
  <path class="cls-1" d="M120.01,440.92c1.22.93,4.06,6.15,5.57,7.95,1.51,1.8,2.53,3.01,4.27,4.79-5.45-1.33-8.17-7.92-9.83-12.73Z"/>
  <path class="cls-1" d="M373.86,590.98c2.53,0,15.82-.24,17.53.42-3.63.64-15.89.65-19.59.11l2.06-.53Z"/>
  <path class="cls-1" d="M290.92,433.4l.54.54c.29,2.95-2.29,8.8-3.45,11.82l-.47-.35c.76-4.1,1.89-8.12,3.38-12.01Z"/>
  <path class="cls-1" d="M407.42,595.22c8.98-.1,17.96-.1,26.95,0-3.8.74-22.67.49-26.95,0Z"/>
  <path class="cls-1" d="M249.49,406.9c2.33,1.23,5.55,8.25,6.72,10.69-2.07-1.51-5.45-8.24-6.72-10.69Z"/>
  <path class="cls-1" d="M488.53,513.6c-2.03,2.68-5.03,4.68-7.78,6.6l-.18-1.95c3.26-1.56,4.92-2.64,7.96-4.65Z"/>
  <path class="cls-1" d="M239.76,594.3c-3.1.03-8.08.3-11.04-.49l1.44.45.52-1.08c1.16-.07,5.97.15,7.26.24l1.82.88Z"/>
  <path class="cls-1" d="M219.68,409.39c1.52.92,5.08,7.88,6.17,9.84-2.45-1.01-5.08-7.4-6.17-9.84Z"/>
  <path class="cls-1" d="M489.84,466.61c.78,3.19-2.47,8.39-4.32,10.94-.21-.76,3.52-8.15,4.32-10.94Z"/>
  <path class="cls-1" d="M184.79,462.15c.95,2.55,2.84,5.07,4.05,8.15h-.32c-2.7-3.05-3.01-4.27-4.3-8.03l.57-.12Z"/>
  <path class="cls-1" d="M375.94,16.3c3.39,1.12,6.79,2.22,10.2,3.29l.12.35c-1.47.08-8.95-2.35-11.01-2.88l.7-.75Z"/>
  <path class="cls-1" d="M514.26,483.07l.39-.04.54.68c-.32,2.55-2.76,5.98-4.41,7.93.76-2.05,3.47-7.44,3.48-8.57Z"/>
  <path class="cls-1" d="M182.31,456.12c-.74-2.37-1.19-3.53-1.34-6.06l.63-.51-.33-.63c1.03,1.29,1.36,5.18,1.59,6.96l-.54.23Z"/>
  <path class="cls-1" d="M163.32,423.89c1.56.75,4.62,5.69,5.79,7.4-2.7-1.44-4.27-4.75-5.79-7.4Z"/>
  <path class="cls-1" d="M206.46,448.79c.85,2.21,1.11,6.15,1.36,8.57l-.48-.17c-.94-2.87-1.05-5.42-.88-8.4Z"/>
  <path class="cls-1" d="M570.52,321.33c.47,3.81.3,7.21.2,11.03-.41-1.61-.2-2.77-.96-4.3l.76-6.73Z"/>
  <path class="cls-1" d="M410.29,419.36c-1.65-1.42-2.2-2.31-2.18-4.52l-.03.11.41-.32.23.13c.41,1.54.59,2.16,1.36,3.54l.21,1.07Z"/>
  <path class="cls-1" d="M182.85,455.89c.57,2,1.17,4.36,1.94,6.26l-.57.12c-.65-1.47-1.43-4.5-1.91-6.15l.54-.23Z"/>
  <path class="cls-1" d="M383.5,587.01c1.46-.05,2.26-.23,3.53.46l.08.75c-1.44-.05-2.36.05-3.64-.6l.03-.61Z"/>
  <path class="cls-1" d="M434.9,595.21c1.96-.05,3.2-.2,5.11.3-1.01.43-.62.37-1.69.39l-3.42-.69Z"/>
  <path class="cls-1" d="M331.83,608.51c2.99-.52,13.51-.77,17.04-.87,9.76-.28,20.87-1.14,30.56-.9l-.04.71c.78.44,1.55.88,2.34,1.31-20.5.21-42.03,2.17-62.72,2.4-14.04.16-22.94,1.4-37.35-.36,7.42-1.34,26.56-3.55,34.25-3.61-.48,1.3-.58.85-.31,1.95,3.03.08,4.88.07,7.89-.17l8.35-.45Z"/>
  <path class="cls-1" d="M399.01,577.68c10.57-.96,82.8-2.32,89.79.24l.2.53c-2.64,1.4-9.59,1.71-12.85,1.89-3.8-.51-7.38-.24-11.08-.81,2.39-.29,4.41-.4,6.89-.76-1.78-.36-13.43-.35-15.69-.37-19.24-.14-38.49.1-57.72.72l.46-1.43Z"/>
  <path class="cls-1" d="M132.64,581.4c-7.81-1.28-16.01-1.05-23.9-1.19-2.36-.04-7.68.1-9.63-.22l.2-.44c3.7-.95,9.94-.59,13.86-.64,13.39-.17,26.85.87,40.23.78,12.66-.08,24.25-2.64,36.82.36-12.92.79-25.69,1.16-38.58,1.97-4.03.25-9.86.03-13.6.43-1.82-.27-3.63-.61-5.41-1.04Z"/>
  <path class="cls-1" d="M239,605.98c-24.06.29-43.08,1.14-67.03,3.28-13.23,1.25-26.49,2.29-39.75,3.12-5.16.32-12.3,1.08-17.3.85,2.05-1.37,80.93-7.22,91.16-7.63,10.92-.49,21.85-.55,32.78-.18l.15.57Z"/>
  <path class="cls-1" d="M379.42,606.73c9.1-.37,38.49-1.72,45.88-.03l-.14.4c-1.96.6-4.8,1.05-6.88,1.01-12.21-.24-24.38.46-36.57.64-.78-.43-1.56-.87-2.34-1.31l.04-.71Z"/>
  <path class="cls-1" d="M77.79,590.34c6.22-.15,39.39-.15,42.4,1.74-3.36.5-4.59-.37-7.63-.37-11.38.02-22.7,0-34.09.07-8.48,0-16.96.24-25.42.72-4.36.26-13.63,1.17-17.58.94l-.17-.31c11.02-1.89,31.24-2.39,42.49-2.78Z"/>
  <path class="cls-1" d="M111,598.25c2.53-.78,7.34-1.1,10.17-1.44,9.02-1.12,18.07-2.05,27.14-2.79l-.49.94c.78.7.99.52,2.22.73-11.93,1.01-23.84,2.27-35.71,3.8-1.23-1.3-1.08-.89-3.33-1.24Z"/>
  <path class="cls-1" d="M531.75,584.53l.22-.42-2.45-.45-.18-.48c2.4-2.32,12.08.08,14.73,1.82l.19.66c-1.56,1.05-14.62,2.23-17.51,2.67l-.49-.46c1.71-.37,5.07-.87,6.33-1.75l-.44-.17-.02-.05-.25.53-.51-.6-1.3.12,1.69-1.43Z"/>
  <path class="cls-1" d="M106.38,593.66c1.6-.15,1.78-.17,3.37-.01l-.06.53c-8.24,1.76-31.38,1.48-40.36,1.39-1.17.04-1.74.18-2.75-.4,1.81-1.23,34.48-1.02,39.8-1.51Z"/>
  <path class="cls-1" d="M114.32,599.48c-1.06.13-2.13.24-3.19.34-3.56.35-19.23,1.78-21.59-.16,1.3-1.77,5.88-2.19,8.12-2.58l-.27,1.01-1.03.11-.33.44-.71.1.5.26-.03-.31.65.34c3.33-.22,11.98-1.13,14.55-.78,2.25.35,2.09-.06,3.33,1.24Z"/>
  <path class="cls-1" d="M472.54,607.18c2.56-.24,6.6,0,6.88,3.25-.61,1.42-.77,1.39-2.01,2.27-2.65.3-5.78.49-6.61-2.59.34-1.6.63-1.76,1.74-2.94Z"/>
  <path class="cls-1" d="M97.66,597.08l.99-.81c5.24,1.45,26.11-4.89,29.46-3.37-1.16.99-27.36,4.67-30.72,5.19l.27-1.01Z"/>
  <path class="cls-1" d="M463.93,570.78c1.97-.14,5.97-.79,6.72,1.38l-.56,1.03c-2.05.34-4.01.75-5.88-.14-.82-1.27-.64-.56-.28-2.26Z"/>
  <path class="cls-1" d="M316.51,607.01c3.61-.05,6.86-.23,10.46-.47l1.15,1.23c-2.3.21-4.53.39-6.82.75-2.21-.28-3.65-.4-5.72.59-.27-1.1-.16-.64.31-1.95l.61-.16Z"/>
  <path class="cls-1" d="M521.2,563.03c.6-.42,1.38-.49,2.04-.17.66.32,1.1.97,1.15,1.7.05.73-.3,1.43-.92,1.83-.93.6-2.17.35-2.79-.57-.62-.92-.39-2.16.52-2.8Z"/>
  <path class="cls-1" d="M309.74,606.27c2.05-.22,16.63-.67,17.76-.05l-.52.32c-3.61.24-6.85.41-10.46.47l.82-.36c-.43-.2-6.39-.29-7.59-.38Z"/>
  <path class="cls-1" d="M328.12,607.78l3.78-.12-.07.84-8.35.45-2.17-.43c2.28-.36,4.52-.54,6.82-.75Z"/>
  <path class="cls-1" d="M391.64,578.85c2.89-.62,4.43-.91,7.37-1.17l-.46,1.43c-2.34.04-4.58-.13-6.91-.26Z"/>
  <path class="cls-1" d="M442.15,589.38c-2.28.05-4.31.2-6.55-.29l-.28-.29-.08.03,1.02.31-.1-.47c1.3-.2,2.94-.07,4.29-.02.5.23,1.2.58,1.7.73Z"/>
  <path class="cls-1" d="M315.59,609.12c2.06-.99,3.51-.88,5.72-.59l2.17.43c-3.01.24-4.86.25-7.89.17Z"/>
  <path class="cls-1" d="M321.94,603.89c-1.8.36-9.14.78-10.59-.14l.58-.18c3.54.59,6.57.08,10.01.32Z"/>
  <path class="cls-1" d="M72.98,592.89c1.08-.4,3.27-.46,4.12.4-1.6.23-2.06.3-3.66.24l-.46-.64Z"/>
</svg>