<?xml version="1.0" encoding="UTF-8"?>
<svg id="Layer_1" data-name="Layer 1" xmlns="http://www.w3.org/2000/svg" viewBox="0 0 789 652.31">
  <defs>
    <style>
      .cls-1 {
        fill: #142917;
      }

      .cls-2 {
        fill: #fff;
      }
    </style>
  </defs>
  <path class="cls-1" d="M313.19.5c16.82-1.53,43.42.78,60.65,2.86,72.47,8.78,149.97,42.6,196.33,100.53,18.06,22.57,30.99,55.84,26.5,84.59-2.26,14.49-6.15,20.51-17.39,29.17,7.11,7.06,37.04,24.42,31.33,37.67-5.1,11.84-31.72-.5-40.04.92-1.66.29-3.23,6.19-3.71,7.73,41.62.39,55.32,10.02,80.87,41.4,13.58-.91,23-.66,25.28,15.27,3.18,1.3,6.21,2.93,9.05,4.85,15.61,10.61,30.9,37.19,20.54,57.28-1.34,2.09-5.13,5.19-6.23,7.15-6.59,11.82-5.54,14.83-19.88,17.04-4.08,6.26-10.85,12.69-18.6,7.99-10.85-6.57-12.69-22.55-15.65-33.8-4.69,3.69-10.02,6.11-15.81,3.48-15.97-7.27-6.37-29.41-2.11-40.22-.95-.63-1.85-1.33-2.69-2.1-9.01-8.29-2.78-18.19,4.09-25.05-13.65-18.17-21.84-23.82-43.49-28.35,2.42,5.71,8.32,18.1,1.85,23.04-3.04,2.32-7.26,1.4-10.8.93-1.33,9.65-2.35,10.86-7.12,19.22,16.84,10.31,27.06,37.87-1.7,37.74-.92,16.29-1.79,27.31-11.77,41.12-21.21,29.35-67.98,31.93-100.74,31.57,3.76,10.49,6.71,17.27,11.49,27.45,9.67-.8,20.75-1.14,30.31-2.77,12.29-2.1,24.39-5.95,37.1-6.46,19.52-.64,42.09,1.23,57.59,14.44,12.54,10.69,11.95,30.49.61,41.88-19.06,19.14-43.84,23.18-69.76,24.07,1.08,9.92,1.24,18.13-7.19,25.28-5.67,4.72-13.02,6.94-20.35,6.15-10.26-1.03-19.76-8.09-21.53-18.63-.59-3.55-.2-6.85.16-10.39-7.93.08-16.25.55-24.34.67-2.2,3.6-4.78,7.54-8.41,9.76-14.08,8.58-27.57,5.95-36.94-7.33-17.99.22-37.94,2.28-56.34,2.89-16.83,1.05-35.82,2.02-52.62,2.43.57,2.33,1.16,4.67,1.24,7.08.22,5.65-1.84,11.15-5.71,15.27-10.02,10.73-27.98,11.18-38.39.76-6.36-6.36-6.58-12.27-6.61-20.59-7.38.39-15.86,1.02-23.15,1.02-9.38,12.43-21.11,16.83-36.12,9.69-6.22-2.96-9.38-9.02-11.22-15.44-20.28-3.72-41.95-12.2-59.06-24.33-17.8-12.61-19.59-36.45,5.88-41.02,17.31-3.11,35.58,0,53.01-.96,22.88-1.26,46.45-2.04,69.38-3.8-6.77-22.66-8.96-42.28-2.52-65.23l-20.65-5.58c-46.07-12.69-124.78-33.98-109.61-98.48.5-2.12,1.16-4.31,1.76-6.41-30.38-10.15-5.43-33.19,10.69-41.74-1.88-6.36-1.89-10.93-1.38-17.42-29.86-5-49.17-13.89-64.72-41.29-15.04,1.08-24.46-.5-27-17.03-.83-.44-1.65-.9-2.47-1.36-12.82-7.24-18.72-15.38-22.6-29.64-1.92-7.05-4.31-20.35-.38-27.04,2.92-4.96,8.91-6.14,14.04-7.28-5.21-11.54-20.77-39.07-4.55-49.53,17.85-11.5,25.33,17.2,31.23,28.44l.38.72c-.02-.76-.03-1.53-.04-2.29-.04-10.02.22-25.32,7.54-32.92,6.64-7.36,21.57-2.88,23.03,6.5,2.24,14.47,2.14,33.6,1.02,48.01,21.39,9.87,16.51,31.39,9.59,49.01l.3.34c8.97,10.28,2.22,18.55-6.31,25.69,13.39,15.68,16.24,18.42,36.15,22.58,7.82-6.18,9.66-8.82,19.11-14.73-1.23-13.94-.24-20.39,7.98-31.52-8.97,1.96-40.43,9.29-32.85-10.16,3.34-8.58,27.11-15.54,35.58-17.99-18.58-26.72-1.11-60.77,17.81-82.04C199.45,19.37,259.02,3.62,313.19.5ZM282.96,478.71c29.86-2.13,59.75-3.93,89.65-5.41,7.73-.41,15.47-.75,23.21-1.04,3.93-.14,10.44-.12,14.13-.65,1.76.1,5.36-.11,7.26-.16-1.71-3.43-3.23-7.33-4.95-10.92-2.38-7.54-4.02-11.46-5.28-19.37-45.6-5.06-80.78-8.86-125.85-17.84-2.36,12.99-2.43,22.49-.49,35.66.99,6.68,2.09,12.96,2.33,19.72Z"/>
  <path class="cls-2" d="M324.44,7.78h.44c81.81-.88,166.03,26.96,225.13,84.61,21.24,20.71,40.25,53.51,40.43,83.58.07,11.48-3.58,26.05-12.25,34.21-7.71,7.25-29.86,5.54-40.18,4.95-24.83-1.41-49.84-4.38-74.45-7.87-44.33-6.28-294.8-46.88-314.67-70.5-4.63-5.5-5.32-13.81-4.83-20.71,1.89-26.38,20.34-47.74,39.49-64.31.27-.05.53-.1.8-.16,2.02,6.04.79,5.55,5.9,8.88-2.55,20.75-3.41,40.14,9.41,58.06,15.07,19.43,45.53,25.18,67.65,15.07,19.33-8.84,27.03-23.61,34.19-42.63,10.48-4.02,14.9-2.12,23.17,4.51-.7,16.3.24,30.3,9.17,44.82,15.96,25.97,57.76,33.66,82.92,17.41,17.02-11,23.05-28.89,27.1-47.89,25.39,6.56,53.86,11.16,78.88,19.64,3.96,1.34,1.05,13.49,6.99,15.59,17.55,6.21,13.82-24.43,2.74-28.51-9.14-4.31-17.56-6.47-27.11-9.46l-50.02-15.48c-.72-2.64-1.55-6.15-4.64-6.77-35.34-6.99-71.01-12.62-106.54-18.66-14.42-2.45-15.05-1.75-16.7,12.12-8.16-4.28-13.49-4.83-22.53-4.99,1.36-11.3,2.28-14.44-10.16-16.34-3.71-.57-7.74-1.43-11.49-2-27.78-4.22-55.64-10.58-83.39-14.61,34.1-23.45,84.18-31.33,124.55-32.55Z"/>
  <path class="cls-1" d="M521.13,81.68c8.73.81,24.49,4.56,16.24,16.3-6.79,3.85-20.53-5.86-16.24-16.3Z"/>
  <path class="cls-2" d="M524.6,86.24c6.4,1.18,9.48,1.75,10.04,8.86-5.54-1.7-7.09-4.16-10.04-8.86Z"/>
  <path class="cls-1" d="M258.95,25.29c3.07,0,5.48.32,7.03,3.16.11,6.68-8.85,11.12-14.16,12.99-1.04-.26-2.27-.51-3.23-.9-8.62-3.56-1.71-11.02,3.6-13.45,2.37-1.08,4.39-1.35,6.76-1.8Z"/>
  <path class="cls-2" d="M258.73,29.82l1.02.31.22.97c-1.86,2.93-5.1,4.31-8.17,5.76-1.19-.26-1.1-.33-1.93-1.26l.16-1.19c2.24-2.84,5.37-3.65,8.7-4.58Z"/>
  <path class="cls-1" d="M459.14,47.17c9.19.88,19.58,9.53,12.22,19.2-9.19,2.89-18.18-9.73-12.22-19.2Z"/>
  <path class="cls-2" d="M461.43,52.35c5.4,1.69,7.43,4.76,8.14,10.18-5.65-.78-6.97-5.3-8.14-10.18Z"/>
  <path class="cls-1" d="M325.89,21.14c15.53.52,2.21,14.39-4.7,17.67-11.89-.88-7.63-9.76-1.34-14.8,1.74-1.39,3.97-2.12,6.04-2.87Z"/>
  <path class="cls-2" d="M326.89,25.69c2.19,3.79-4.59,7.48-7.37,9.16-2.36-5.36,3.46-7.2,7.37-9.16Z"/>
  <path class="cls-1" d="M393.56,33.99c10.97,1.77,10.77,15.68,2.31,21.35-12.3-2.3-8.35-14.42-2.31-21.35Z"/>
  <path class="cls-2" d="M395.04,39.43c3.78,3.06,2.06,7.92.16,11.48-4.17-3.62-2.46-7.31-.16-11.48Z"/>
  <path class="cls-2" d="M117.62,305.21l9.53.02c10.69,6.49,20.25,10.01,31.54,14.96,4.16,1.82,7.06,8.55,11.75,10.99,7.19,3.74,13.68,2.25,20.96.28,16.22,4.25,32.21,8.96,48.57,12.83,11.04,2.61,22.02,5.32,33.15,7.63,5,1.04,9.09,5.36,13.81,6.46,6.71,1.54,13.72-1.11,20.44.08,16.74,2.97,33.49,5.76,50.32,8.18,3.26.47,7.14,2.91,10.48,3.22,7.15.68,14.42-.16,21.59.6,11.99,1.19,23.91,3.18,35.88,4.41,6.27.65,13.6.68,19.95.81,0,6.86.13,13.34,4.1,19.08,8.01,11.57,21.52,6.6,25.47-5.46,1.52-4.64,1.77-7.85,2.32-12.51,4.44-.09,15.51-.72,19.37.41,12.62,3.7,13.31,7.91,24.92-1.9,6.22-.67,12.6-1.49,18.67-2.99,5.46-1.35,10.8-3.39,16.34-4.39,1.48,8.77-.9,17.07-3.17,25.48-4.22,11.7-12.47,21.51-23.28,27.67-56.82,33.02-237.17,0-303.24-17.38-31.56-8.3-89.6-24.01-107.01-54.41-8.18-14.29-6.49-28.92-2.46-44.1Z"/>
  <path class="cls-2" d="M532.57,468.17c16.52-2.3,50.2,3.09,56.58,21.27,5.39,15.37-22.49,30.32-34.16,33.14-23.38,5.65-48.38,5.23-72.27,6.36l-96.66,4.77-107.44,5.47c-24.39,1.3-54.16,3.72-78.11,1.87-25.82-2.67-51.73-9.36-74.52-22.04-5.49-3.05-16.35-9.8-17.95-16.4-1.83-7.53,7.99-9.54,13.33-10.73,13.55-2.14,24.99-.19,37.96-.74,21.86-.93,43.72-2,65.59-2.9-5.57,5.28-14.5,13.61-12.63,21.77,3.64,13.99,24.87,12.71,36.18,12.18,11.19-.53,32.5-.31,40.15-9.81,3.22-4.01-1.58-21.44-2.89-26.74l126.92-6.22c2.45-.1,6.83-.55,8.56,1.04-1.15,3.36-14.95,5.88-19.3,15.35-16.01,34.81,50.19,21.97,66.28,18.29,16.93-3.88,3.99-26.73-.86-37.02,7.22-.37,19.05-.82,26.06-2.15,14.04-2.66,24.8-5.62,39.18-6.75Z"/>
  <path class="cls-2" d="M123.2,269.25c2.12.42,9.04,6.54,11.13,8.27-2.33.87-15.14,5.42-11.82,9.26,5.11,1.7,12.94-2.97,18.84-4.28l.76-.17c15.49,5.98,31.28,11.16,47.3,15.52-4.24,2.13-14.39,7.1-15.43,11.93.76,1.93,2.77,3.87,4.79,2.42,7.28-5.22,12.33-9.05,20.99-11.83,31.8,7.33,63.71,13.37,95.63,20.12-2.7,2.24-14.5,11.91-8.72,15.45,4.36-.58,9.54-8.17,13.31-10.8,2.36-1.65,3.21-2.02,5.82-3.16,8.32,1.5,16.64,2.92,24.98,4.26,7.56,1.28,14.24,1.38,20.28,6.35,17.74-1.59,25.39.85,42.85,3.43,15.29,2.15,30.62,4.07,45.97,5.77,10.17,1.08,20.37,1.99,30.57,2.71,7.56.52,14.97.59,22.56,1.68,6.97,1,16,14.04,19.74,13.13,3.27-4.52-3.97-10.02-7.02-12.94,13.98.12,25.34-.1,39.09-3.01l.2.09c4.97,2.17,11.79,8.71,16.39,7.25,2.85-4.72-4.65-7.93-8.07-9.91l8.12-4.55c6.68,6.16,13.33,11.84,13.82,21.35-.36.99-1.06,2.4-1.91,2.99-9.32,6.48-25.12-4.36-35.66-4.77-14.53-.57-15.92,9.51-23.92,16.77-7.12,6.46-18.85-10.24-27.18-10.6-20.54-.88-13.02,21.11-22.03,30.61-.87.91-3.19,1.22-4.58,1-8.16-1.32-5.89-17.52-7.65-23.81-1.13-4.04-1.82-6.83-4.66-10.15-11.05-12.93-31.6-13.7-46.42-7.68-8.42,3.42-15.34,8.73-24.23,10.28-19.01,3.33-26.58-18.83-43.96-21.84-16.16-2.8-26.7,11.8-41.76,10.93-14.82-.86-18.68-20.11-32.44-23.8-8.74-2.35-17.94,6.45-25.51,4.28-11.15-3.2-12.07-18.83-28.35-15.52-8.79,1.79-16.83,10.77-26,9.56-11.11-1.47-13.96-14.81-19.95-22.81-10.71-14.09-30.04-2.78-44.54-5.6-5.09-.99-12.78-2.55-10.55-9.89,2.53-8.33,12.07-14.21,19.21-18.3Z"/>
  <path class="cls-2" d="M149.11,149.12c1.19-.21,2.53-.18,3.66.26,12.76,5.02,25.37,9.52,38.73,12.8-6.04,2.25-12.79,4.49-18.38,7.69-2.78,1.6-4.98,3.26-3.77,6.7.88.41,1.38.85,2.4.4,10.45-4.64,20.22-8.62,31.21-11.82,20.46,5.39,39.35,10.24,60.26,13.98-4.34,2.91-13.84,6.91-15.29,11.7,1.7,5.7,7.2,1.01,10.26-.96,5.7-3.67,9.77-6.13,16.16-8.36,21.67,4.58,43.39,8.89,65.16,12.95-1.77,4.43-7.2,16.61-3.32,20.39,1.89.52,1.01.57,2.75.02,2.82-3.43,5.06-14.22,7.03-19.5,12.66,2.82,39.65,4.41,48.72,12.05,5.92,4.99,9.52,12.24,15.29,17.18,1.46,1.26,2.73,2.12,4.69,1.98l.55-1.03c-.16-7.52-8.48-14.83-13.71-20.28,21.51,3.82,44.65,5.28,65.53,11.35,5.85,1.7,18.47,21.27,24.44,20.53,4.38-4.78-10.56-17.12-14.04-20.48,25.63,3.44,47.67-.51,65.13,20.35,1.85,2.21,9.77,9.54,11.87,4.55-.96-5.82-14.1-14.99-19.09-18.82,4.03,0,18.2-.45,21.07.96,4.61,3.06,19.54,17.36,23.38,13.96.89-4.87-10.39-12.33-14.15-15.14l5.25-1.3c7.01,4.88,31.76,21.66,32.56,29.34-4.26,8.45-22.63-3.61-30.5-2.17-6.78,1.24-9.3,4.71-14.67,6.83-11.39,4.51-19.71-12.71-29.72-16.73-15.54-6.23-19.8,8.92-29.78,12.19-14.51,4.75-29.14-19.26-41.38-24.79-18.85-8.51-24.52,4.28-39.35,10.15-10.68,4.23-21.79-14.69-31.37-19.29-17.14-8.22-28.62,3.69-43.72,8.51-24.83,7.92-31.84-19.3-49.57-28.53-13.8-7.19-27.32,2.76-40.35,6.83-22.61,7.07-18.14-17.14-31.62-24.03-13.12-6.71-27.42,8.26-38.97,11.74-17.84,5.38-18.72-13.31-26.94-21.55-4.32-4.33-17.76-11.45-23.58-14.57,5.37-2.22,11.64-4.18,17.19-6.05Z"/>
  <path class="cls-2" d="M138.06,209.1c1.29.71,5.83,4.43,7.25,5.51,4.01,3.11,8.32,5.79,12.88,8,38.58,18.85,107.1,30.66,149.82,29.02,6.98-.29,13.93-1.14,20.78-2.56,9.07-1.96,12.91-5.35,21.87-4.35,30.62,26.02,82.43,36.89,121.33,42.38-6.55.91-14.46,1.17-21.24,1.8-9.44.88-16.91,2.31-26.21,4.19-16.25,4.28-36.19,10.85-50.61,19.32-23.9,14.05-16.26,16.85-37.83-2.85-24.63-22.52-53.2-40.3-84.28-52.45-31.77-12.4-65.23-19.94-99.25-22.34-11.48-.85-22.07-.59-33.53-.27-1.41.04-2.23-.19-3.26-1.04-2.2-7.01,17.13-20.7,22.29-24.37Z"/>
  <path class="cls-2" d="M652.96,312.52c3.18-.33,10.74.8,12.51,3.66l-.32,1.09c-3.82,3-10.32,2.34-11.18,6.93,1.71,3.52,7.1,2.67,10.5,2.84,20.12.97,34,24.4,34.07,42.77.01,4.07-1.24,7.64-2.68,11.46-.43-4-3.23-24-9.89-21.55-3.93,6.47,5.39,22.52,2.29,31.42-1.32,3.77-4.4,8.64-8.88,7.47-2.7-5.76-.5-24.01-7.49-28.67-1.99-.45-1.92-.35-3.9.4-1.46,1.68-1.01,1.04-1.52,3.4.6,1.9,1.18,3.8,1.75,5.71,1.74,5.93,6.65,28.26-3.8,29.24-12.79,1.2-12.28-33.59-19.65-38.01-4.81-.25-7.17,6.38-11.45,8.55-4.06,2.06-7.39-3.08-8.02-6.39-1.63-8.56,3.22-18.93,7-26.41,1.55-3.06,8.05-10.44,7.17-13.6-4.63-3.81-8.59,4.41-13.37,4.39-.61-.53-.94-.55-1.07-1.39-2.05-13.91,17.56-21.02,27.95-23.31Z"/>
  <path class="cls-2" d="M245.58,416.22c9.29,2.02,18.56,4.12,27.82,6.29-4.07,22.44-.6,39.83,4.34,61.65,1.9,8.38,3.95,15.77,4.15,24.41-7.74,5.19-22.36,5.39-31.6,5.82l-.82.04c-6.57.29-23.52.97-28.19-3.3-4.97-12.59,11.06-17.82,19.97-20.84,8.45-2.87,9.57-2.11,7.39-10.98-5.3-21.51-9.52-40.92-3.05-63.09Z"/>
  <path class="cls-2" d="M414.74,441.55c9.41.7,19.93.78,29.44,1.04,5.39,18.65,14.76,34.16,22.61,51.72,1.47,3.29,2.11,6.79,2.52,10.35-8.06,4.43-18.86,4.93-27.99,5.93-6.78.65-37.33,4.07-34.17-7.63,3.14-11.6,16.52-11.89,25.56-17.16-1.34-3.37-5.12-10.6-6.94-14.22-5.5-10.95-8.37-18.25-11.04-30.04Z"/>
  <path class="cls-2" d="M68.91,127.41c18.94-1.08,15.71,29.46,7.93,39.46-2.87,3.69-9.82,7.55-9.74,12.05.93,2.04.27,1.2,2.13,2.58,5.64.92,7.43-7.41,12.91-4.41,2.08,9.5-18.14,18.46-25.94,18.88-5.96.32-17.64,1.82-20.81-4.77,2.88-3.48,13.73-.49,14.77-6.51-1.6-4.16-5.6-3.31-9.4-3.26-2.45-.06-4.88-.38-7.25-.96-10.3-2.52-15.09-8.69-20.15-17.18,12.9,6.82,21.06,6.07,25.54-8.94,7.5,4.55,16.76,4.85,24.77,1.03,2.38-1.13,4.57-2.7,5.38-5.29-.25-.98-.5-1.89-1.61-2.24-5.61-2.52-17.44,6.44-22.78,1.37-13.42-12.74,19.07-20.72,24.24-21.81Z"/>
  <path class="cls-2" d="M354.72,229.23c7.39,5.74,16.4,12.7,25.07,16.22,47.66,19.32,130.7,40.21,180.24,21.58-.52,3.19-.69,4.24-2.06,7.27-.24.2-.48.4-.72.6-14.74,11.9-56.07,8.13-74.39,6.08-28.22-3.16-108.7-17.91-126.26-40.86-2.88-3.76-2.44-6.45-1.88-10.89Z"/>
  <path class="cls-2" d="M58.92,69.12c13.41-1.47,9.25,41.87,9.07,50.72-14.71,2.78-24.33,6.73-33.44,18.73-7-14.36-12.82-21.65-19.53-37.83-.16-.46-.32-.92-.47-1.39-1.92-5.82-3.49-14.43-.75-20.38.5-1.09,2-2.2,2.91-2.25,14.96-.85,17.79,36.82,27.56,43.93.72.53,2.24.47,3.16.01,1.69-.83,2.77-3.96,2.93-5.79,1-10.99-1-23.07,1.1-33.95,1.08-5.62,2.67-8.73,7.46-11.81Z"/>
  <path class="cls-2" d="M382.74,83.36c9.44,1.59,18.87,3.24,28.29,4.97-14.39,18.99-31.09,38.66-46.15,57.37l-3.85,5c-9.72-4.84-12.77-8.08-19.01-16.89,3.94-5.37,9.71-12.11,13.97-17.4l26.76-33.05Z"/>
  <path class="cls-2" d="M141.07,192.28c6.29,3.95,11.1,9.38,18.49,12.9,45.4,21.61,98.73,30.59,148.78,30.04,5.8-.06,31.39-3.41,34.79-.49l-.19,1.21c-1.35,1.65-1.82,1.81-3.69,2.94-41.94,15.51-169.05-3.8-198.63-38.96-.01-2.83.18-4.86.45-7.64Z"/>
  <path class="cls-2" d="M239.94,58.15c8.15.75,19.9,3.1,28.19,4.49-4.53,6.08-10.72,13.19-15.6,19.19l-27.44,34.11-5.3,6.5c-8.66-5.22-12.83-9.95-16.52-19.24,12.52-14.83,24.41-29.99,36.66-45.04Z"/>
  <path class="cls-2" d="M372.98,221.8c6.97-.33,9.64,1.1,15.26,4.86-.85,2.85-2.52,7.82.61,9.71,6.74,4.07,20.87,6.5,28.5,7.32,5.68.61,15.72-8.33,21.36-10.06,3.14-.96,4.89-1.21,8.06-1.61-8.35,4.39-26.65,11.56-12.79,19.67,18.71,10.96,21.85-10.47,27.92-12.24,7.61,2.12,4.91,14.6,12.67,19.86,6.83,4.63,18.36-.43,27.56-1.78,7.09,4.47,15.54,7.44,23.84,4.53,5.13-1.8,3.03-6.72,1.54-10-1.45-1.38-7.61-5.44-9.58-6.81,15.51-.21,17.67,12.38,33.54,17.62-6.1,1.74-12.36,2.85-18.69,3.31-43.94,3.45-137.42-11.76-171.3-40.71,4.3-2.05,6.89-2.89,11.5-3.67Z"/>
  <path class="cls-2" d="M149.99,175.46c6.43,4.87,7.41,15.83,14.85,20.16,3.94,2.29,8.01,2.89,12.32,3.97,2.3.58,5.97,3.31,8.15,3.43,12.74.74,30.9-4.7,43.32-7.78-4.48,2.43-9.28,3.81-13.56,6.11-18.81,10.1,7.94,19.52,17.17,13.62,2.32-1.48,3.27-2.21,5.28-4.01,7.73,2.18,10.08,1.7,17.8-.12,4.19,9.73,9.46,16.32,21.57,13.67,14.63-3.21-.17-16.05-4.98-21.48,2.04,1.2,3.96,2.49,5.93,3.79,10.29,7.53,20.11,16.29,33.15,16.5l4.81,4.47c-31.83,2.28-69.07-3.57-100.68-10.86-23.26-6.4-53.71-12.43-70.06-31.49-3.63-4.24,1.56-8.07,4.93-9.98Z"/>
  <path class="cls-2" d="M564.33,277.5c3.6,1.93,19.18,25.57,13.96,28.58-5.42-.93-24.69-7.87-32-9.97-9.17-2.1-18.4-3.95-27.67-5.55,16.52-1.12,33.52-1.09,45.7-13.06Z"/>
  <path class="cls-2" d="M13.41,128.78c10.34.64,19.76,18.97,16.44,28.23-.72,1.99-3.45,2.73-5.25,3.25-10.72-4.54-27.69-22.62-11.19-31.48Z"/>
  <path class="cls-2" d="M600.18,619.71l8.04-.31c1.03,4.89,1.75,9.07-.15,13.93-1.42,3.68-4.34,6.6-8.02,8.02-8.77,3.36-14.69-2.57-17.58-10.25-.9-3.44-.09-7.01.43-10.52,2.59-.34,5.81-.47,8.47-.65-2.19,4.43-4.48,10.99,1.17,14.1,1.7.92,3.71,1.06,5.52.38,1.62-.61,2.93-1.84,3.64-3.42,1.81-4.03,0-7.48-1.52-11.29Z"/>
  <path class="cls-2" d="M373.83,630.79l7.34-.25c2.09,11.2-1.72,24.27-16.9,21.35-3.96-.76-7.31-5.82-9.07-9.41-.41-2.49-1.29-6.45-.08-8.71.96-1.82,5.33-2.93,7.18-1.79-.34,3.58-1.26,9.95,2.05,12.51,2.37,1.83,9-.83,10.13-3.5,1.37-3.25-.06-6.56-1.2-9.65l.56-.55Z"/>
  <path class="cls-2" d="M415.52,356.14c11.78-1.49,18.18.49,27.02,7.99-2.58.99-5.36,1.92-7.98,2.84-11.91,2.64-17.52-2.43-25.96-9.68,2.26-.48,4.62-.8,6.91-1.15Z"/>
  <path class="cls-2" d="M453.1,236.12l1.08.19c.23,2.94-5.43,9.79-7.51,12-3.13-.02-4.82-.17-7.89-.53l-1.58-1c-2.3-4.42,12.64-9.29,15.9-10.67Z"/>
  <path class="cls-2" d="M264.33,205.97c3.17,2.11,11.16,7.77,11.32,11.74l-1.23.98c-7.4-.21-17.83-4.74-10.09-12.71Z"/>
  <path class="cls-2" d="M122.38,159.33c4.11.28,9.19,3.45,12.78,5.45l-6.92,1.52c-4.24.78-7.12,1.68-10.84-.37-1.77-3.27,2.57-5.12,4.98-6.61Z"/>
  <path class="cls-2" d="M227,202.96c2.14.15,3.21.9,4.08,2.75-.47,5.21-4.66,5.45-8.86,5.4-2.38-.56-4.39-.57-5.37-2.93,1.25-2.72,7.44-4.28,10.15-5.22Z"/>
  <path class="cls-2" d="M512.37,250.07c3.05.63,8.83,2.72,9.44,6.02-1.19,1.36-.48.77-2.55,1.43-5.56-.29-6.6-.61-11.47-3.31l4.58-4.14Z"/>
  <path class="cls-2" d="M196.04,192.72c5.37-.28,9.67-.11,15,.22-3.4,1.22-7.58,2.2-11.13,3.13l-12.99,2.22c3.02-1.89,6.06-3.75,9.12-5.57Z"/>
  <path class="cls-2" d="M288.02,206.18c6.81,1.34,11.89,4.32,15.64,10.23-5.29-2.17-11.45-6.35-15.64-10.23Z"/>
  <path class="cls-2" d="M475.37,250.58c2.55.98,4.47,2.7,6.59,4.4-4.02-.07-4.7-1.2-6.59-4.4Z"/>
  <path class="cls-1" d="M775.16,483.81c4.65-.44,10.97-1.58,13.85,3.03-.06.96.12,1.1-.39,1.7-.98,1.16-3.36,1.86-4.85,1.99-12.27,1.08-24.88,1.48-37.15,2.12l-78.95,3.88c-5.01.33-11.04,1.2-14.48-3.3-.05-4.66,17.16-4.61,20.9-4.82,8.05-.44,16.13-.8,24.18-1.18l76.88-3.41Z"/>
  <path class="cls-1" d="M700.91,467.73c4.9-.46,8.16-1.35,11.9,2.58.57,1.74.69.97.09,2.41-1.26,1.19-2.84,1.89-4.57,2.01-31.02,2.21-62.44,2.87-93.45,5.04-3.1.14-13.75.4-10.54-5.82,6.07-3.35,83.6-5.55,96.57-6.22Z"/>
  <path class="cls-1" d="M705.69,507.58c3.39-.38,6-.87,8.07,2.33.4,3.24-1.6,4.97-4.71,5.19-29.14,2.08-59.09,1.91-88.18,4.56-4.35.25-6.51,1-9.39-2.71-.52-3.14,2.12-4.42,4.9-4.61,29.73-2.05,59.58-2.85,89.31-4.76Z"/>
</svg>