<?xml version="1.0" encoding="UTF-8"?>
<svg id="Layer_1" data-name="Layer 1" xmlns="http://www.w3.org/2000/svg" xmlns:xlink="http://www.w3.org/1999/xlink" viewBox="0 0 839.16 295.65">
  <defs>
    <style>
      .cls-1 {
        fill: url(#linear-gradient-2);
      }

      .cls-2 {
        fill: url(#linear-gradient);
      }

      .cls-3 {
        fill: #152917;
      }
    </style>
    <linearGradient id="linear-gradient" x1="584.35" y1="-135.39" x2="540.52" y2="-126.6" gradientTransform="translate(0 140.73) scale(1 -1)" gradientUnits="userSpaceOnUse">
      <stop offset="0" stop-color="#101e11"/>
      <stop offset="1" stop-color="#152a17"/>
    </linearGradient>
    <linearGradient id="linear-gradient-2" x1="381.48" y1="-137.54" x2="336.16" y2="-125.12" gradientTransform="translate(0 140.73) scale(1 -1)" gradientUnits="userSpaceOnUse">
      <stop offset="0" stop-color="#101c10"/>
      <stop offset="1" stop-color="#172d18"/>
    </linearGradient>
  </defs>
  <path class="cls-3" d="M585.89.44c29.15-3.45,60.33,13.69,63.35,44.93,1.65,17.09-.05,33.37.69,49.87,1.99,44.15,1.37,79.21-51.21,86.1-17.7.26-32.24-1.36-46.67-12.36-25.54-19.26-17.67-53.03-18.81-80.19-1.89-45.09-1.38-82.31,52.66-88.34ZM595.33,144.66c4.32-1.57,8.54-4.05,8.67-9.3.33-14.63.43-29.28.1-43.92-.37-16.63,1.25-33.87-1.55-50.32-.72-4.24-10.24-5.83-13.76-5.41-3.4,1.29-7.07,2.91-8.61,6.49-2.19,5.06-1.82,77.99-1.26,87.55.17,2.86.42,6.86,1.68,9.44,1.26,2.57,3.67,4.45,6.38,5.27,2.9.88,5.41.56,8.35.2Z"/>
  <path class="cls-3" d="M.04,4.11c15.21.81,30.86.07,46.26.27,20.93.13,49.6-3.47,60.85,19.21,5.94,11.97,6.26,33.83,2.41,46.85-2.75,9.28-10.43,13.58-18.56,17.5,7.72,3.93,14.39,6.88,18.18,15.34,5.63,12.53,5.06,38.92.42,51.28-13.84,27.09-37.61,23.13-63.86,23.13l-45.73.03L.04,4.11ZM45.21,143.8c6.66.17,16.64,1.2,22.14-2.5,2.98-5.79,2.23-10.34,2.39-16.5.61-22.66-5.65-21.27-24.68-21.15-.05,13.38,0,26.77.15,40.15ZM45.22,74.97c6.33.02,14.84.65,20.42-2.16,3.74-5.05,3.19-9.07,3.48-14.97,1.04-21.09-5.01-21.56-24.17-20.85.06,13.01-.13,24.89.26,37.97Z"/>
  <path class="cls-3" d="M278.53,3.99c12.62.38,25.25.5,37.88.34,15.11-.2,29.57-1.65,44.25,1.98,24.77,6.4,30.96,26.58,29.91,49.85-.91,20.18-1.76,26.26-19.87,36.82,2.61,1.44,5.34,2.89,7.81,4.63,17.84,12.63,10.91,37.58,12.47,56.02.72,8.45,3.45,16.01,5.97,23.93-13.65.39-27.3.38-40.95-.03l-2.98-3.99c-8.83-16.37-1.3-54.07-9.99-62.14-3.95-3.67-14.49-2.54-19.72-2.45-.61,20.98-.54,48.03.21,68.8l-45.11-.03c-.53-39.7.24-79.91-.02-119.66-.12-18.05.93-35.81.13-54.06ZM323.59,78.56c6.86.25,14.9,1.15,20.59-3.16,3.97-5.31,3.42-12.93,3.52-19.18.32-20.27-7.33-19.08-24.14-18.95-.63,11.52-.77,29.86.03,41.29Z"/>
  <path class="cls-3" d="M167.23,4.2c16.13.67,35.83.16,52.15-.08,4.84,25.58,11.45,50.37,17.01,75.76,7.1,32.45,13.83,65.5,21.74,97.75-15.18.36-31.17-.36-46.2.22-1.17-5.04-2.05-11.4-2.91-16.59-.55-3.97-1.08-7.69-1.8-11.63-10.19-.23-21.51-.03-31.69.08-1.57,9.4-3.22,18.78-4.97,28.14-13.26-.54-28.45-.26-41.86-.3,8.58-41.48,17.6-82.86,27.06-124.15,1.45-6.57,9.43-45.78,11.49-49.21ZM181.48,118.18c3.12-.06,6.62-.21,9.71-.17,3.64.04,7.28.03,10.92-.03-1.04-6.16-9.07-59.86-9.9-60.9-4.03,19.22-6.15,42.79-10.72,61.1Z"/>
  <path class="cls-3" d="M779.58.51c16.01-.51,31.03,2.53,43.06,13.9,12.66,11.97,14.02,25.97,14.45,42.29-7.27-1.01-31.84-.45-39.47-.03-.12-6.6-.04-13.68-4.82-18.87-2.49-2.71-5.98-4.27-9.65-4.32-7.19-.15-12.87,5.46-12.69,12.7.32,11.79,9.97,18.23,18.91,23.75,14.49,8.94,31.07,17.49,41.22,31.57,13.17,18.27,10.91,47.76-4.88,63.79-11.24,11.41-28.1,16.12-43.73,16.08h-.76c-20.61.18-42.19-8.82-50.86-28.62-4.56-10.42-4.42-19.54-4.43-30.62,12.95.26,26.78.01,39.8,0-.67,7.47-.66,15.61,5.28,21.17,9.27,8.62,27.04,2.34,25.39-11.35-1.49-11.71-12.28-18.38-21.33-24.05-19.73-12.35-44.99-26.11-47.05-52.12-.95-13.63,1.71-26.55,10.71-37.16,10.88-12.83,24.73-16.79,40.86-18.11Z"/>
  <path class="cls-3" d="M419.68,4.14c5.27.48,13.66.25,19.07.26,8.28,0,17.27.11,25.5-.29-.61,7.82-.41,17.56-.42,25.51v38.38c.05,21.48-.71,51.83.43,72.87,4.2-.39,13.42-.04,18.16-.01,11.51.06,23.02.05,34.53-.06-.73,10.92-.32,24.53-.22,35.66.02.68.09.28-.54,1.09-3.96.53-19.26.16-23.86.16l-45.7-.02c-8.24,0-18.71-.27-26.75.32-1.02-57.47.64-116.24-.18-173.86Z"/>
  <path class="cls-3" d="M672.69,4.17c6.86.63,26.21.28,33.28-.02-1.31,23.63,6.09,46.77-17.81,60.75-4.74,1.96-10.65,2.62-15.78,3.42l-.1-9.78c12.61-3.11,13.81-6.86,15.91-18.61h-15.41s-.08-35.77-.08-35.77Z"/>
  <path class="cls-3" d="M201.36,243.85c10.31.4,30.61-3.19,30.13,13.38-.12,4.23-3.85,7.81-6.92,10.32,6.89,3.45,8.44,4.08,11.37,11.13l-.37,2.36c-.56,3.75-.55,3.88-2.1,7.35-7.91,8.8-21.63,6.69-32.5,6.42,1.04-16.47-.63-35.11.39-50.96ZM208.15,288.87c5.89.03,12.86.65,17.9-2.45,10.93-13.74-8.68-14.98-17.58-14.66-.31,5.95-.34,11.17-.32,17.12ZM208.35,265.71c5.35-.07,9.16.4,13.84-2.18,8.28-12.21-4.58-13.53-13.66-13.37-.38,5.67-.38,9.84-.18,15.54Z"/>
  <path class="cls-2" d="M544.6,243.94c7.93.34,21.87-1.69,26.51,5.4,5.81,8.89,1.84,16.13-5.51,21.23,7.25,7.48,11.89,15.38,17.2,24.25-2.78.07-5.56.02-8.34-.01-1.05-1.53-2.13-3.32-3.14-4.9-2.99-4.83-12.68-22.06-20.09-16.77-.91,4.04-.42,17.16-.36,21.92-2.32-.16-4.68.02-7.01.13.91-7.14-.93-49.06.75-51.24ZM550.88,266.46c5.11-.02,8.7.23,13.19-2.59,7.53-11.82-3.73-13.78-13.05-13.85-.17,5.48-.21,10.96-.14,16.43Z"/>
  <path class="cls-1" d="M341.02,243.7c11.48.31,31.35-2.37,29.21,16.15-.56,4.88-4.17,7.97-7.93,10.64,6.69,6.07,12.72,16.73,17.6,24.58-5.04.07-6.76.94-10.28-2.91-4.11-6.9-11.09-21.41-20.85-19-1.86,3.07-1.03,17.28-.96,21.68l-6.64.04c0-16.81.26-34.43-.16-51.18ZM348.21,266.25c5.34.04,8.09.56,12.66-2.39,8.65-11.62-4.08-13.71-12.97-14.21-.01,5.54-.12,11.08.31,16.6Z"/>
  <path class="cls-3" d="M428.83,242.83c4.68-.1,14.97,1.59,18.39,4.81.82,1.95.5,4.25.42,6.42-6.55-3.42-15.33-5.84-22.62-3.87-5.06,1.35-9.37,4.69-11.95,9.25-2.78,5.01-3.34,10.95-1.54,16.39,1.6,4.94,5.11,9.03,9.75,11.36,6.76,3.38,13.91,2.2,20.69-.22l.18-11.06c-5.09-.52-8.83,1.88-10.65-3.51,2.99-4.56,12.45-2.82,17.72-2.57-.3,6.87-.43,14.37-.02,21.21-3.06,1.48-6.27,2.63-9.58,3.41-8.54,1.98-17.6,1.51-25.12-3.42-5.82-3.78-9.85-9.77-11.15-16.58-3.45-18.14,9.21-28.82,25.5-31.62Z"/>
  <path class="cls-3" d="M300.42,243.66l7.43.05c-.14,12.41,1.17,24.09-1.03,36.71-2.89,16.59-26.05,19.38-36.83,9.61-7.22-6.54-5.81-24.12-5.75-33.57l.07-12.47,6.93.19c.12,11.2-.82,23.15.55,34.13.87,6.99,8.34,11.28,14.95,10.95,16.86-.82,13.76-17.62,13.91-29.5.07-5.39-.14-10.76-.23-16.09Z"/>
  <path class="cls-3" d="M482.07,243.89c9.21.42,18.77-.52,27.82.48.93.1.59.03,1.24.95-.25,2.76-.55,4.13-3.89,4.38-5.96.43-12.59.14-18.58.38-.04,5.23.05,10.47.26,15.7l21.17-.03-.15,6.29c-3.88-.19-18.05-1.13-20.97,1l-.2,1.73-.13,13.91c7.82-.11,15.64-.11,23.46,0v6.11s-30.52.11-30.52.11c-.04-6.58-.52-48.29.48-51.01Z"/>
  <path class="cls-3" d="M619.87,243.21c6.34-.97,9.63.69,15.13,3.31v8.04c-3.53-2.7-6.19-4.22-10.84-5.03-2.81-1.23-10.56,2.87-9.43,6.22,3.53,10.44,21.45,11.56,22.18,24.83.59,10.69-5.64,14.43-15.34,14.89-.14,0-.28-.02-.41-.03l-.69-.06c-5.69-.46-7.25-1.57-12.1-4.33.19-2.98.03-6.2-.03-9.21,6.18,5.56,16.03,12.14,22.19,2.29,1.9-9.2-18.93-14.64-21.62-23.85-2.85-9.74,1.86-13.98,10.97-17.08Z"/>
</svg>